<svg width="339" height="370" viewBox="0 0 339 370" xmlns="http://www.w3.org/2000/svg"><title>cabletv_vectors</title><defs><linearGradient x1="50%" y1="0%" x2="50%" y2="100%" id="a"><stop stop-color="#717B29" offset="0%"/><stop stop-color="#99A738" offset="100%"/></linearGradient><linearGradient x1="50%" y1="100%" x2="50%" y2="0%" id="b"><stop stop-color="#717B29" offset="0%"/><stop stop-color="#99A738" offset="100%"/></linearGradient></defs><g fill="none" fill-rule="evenodd"><circle fill="#EDA840" cx="95" cy="275" r="95"/><g transform="translate(25 235)"><path d="M1 78v2.5C1 81.88 2.123 83 3.495 83h132.01A2.491 2.491 0 0 0 138 80.5V78H1z" fill="#B47515"/><rect fill="#A66709" x="16" width="108" height="66" rx="3"/><path d="M19.001 66c-1.657 0-4.07.823-5.38 1.831L.443 77.973h137.772L126.3 67.937c-1.27-1.07-3.646-1.937-5.301-1.937H19z" fill="#C78219"/><path d="M29.365 67L18.72 76.238h102.036L109.506 67h-80.14z" fill="#A66709"/><rect fill="#FFCC80" x="23" y="7" width="93" height="52" rx="3"/></g><circle fill="#AEBE40" cx="244" cy="185" r="95"/><g transform="translate(219 126)"><path d="M26 0C6.906 0 1.95 1.578 1.95 1.578.874 1.811 0 2.898 0 3.998v114.003C0 119.105.903 120 2.007 120h47.986A2.005 2.005 0 0 0 52 118.001V4c0-1.104-.864-2.206-1.95-2.42C50.05 1.578 45.093 0 26 0z" fill="#717B29"/><rect fill="#AEBE40" x="7" y="20" width="38" height="41" rx="3"/><g transform="translate(5 68)" fill="#AEBE40"><rect width="13" height="7" rx="3"/><rect x="15" width="13" height="7" rx="3"/><rect x="30" width="13" height="7" rx="3"/><rect y="9" width="13" height="7" rx="3"/><rect x="15" y="9" width="13" height="7" rx="3"/><rect x="30" y="9" width="13" height="7" rx="3"/><rect y="18" width="13" height="7" rx="3"/><rect x="15" y="18" width="13" height="7" rx="3"/><rect x="30" y="18" width="13" height="7" rx="3"/><rect y="27" width="13" height="7" rx="3"/><rect x="15" y="27" width="13" height="7" rx="3"/><rect x="30" y="27" width="13" height="7" rx="3"/></g><g transform="translate(15 8)"><rect fill="url(#a)" width="22" height="6" rx="3"/><rect fill="#5F6722" x="1" width="20" height="5" rx="3"/></g><g transform="matrix(1 0 0 -1 20 111)"><rect fill="url(#b)" y="-1" width="12" height="4" rx="3"/><rect fill="#5F6722" x=".545" width="10.909" height="3.333" rx="3"/></g></g><circle fill="#3A9BA2" cx="96" cy="95" r="95"/><g transform="translate(33 57)"><rect fill="#266468" x="36" y="83" width="53" height="8" rx="2"/><rect fill="#328288" transform="matrix(1 0 0 -1 0 169)" x="36" y="83" width="53" height="3" rx="2"/><rect fill="#266468" width="125" height="75" rx="3"/><rect fill="#4FBDC5" x="7" y="7" width="111" height="61" rx="3"/><path fill="#205155" d="M50 75h25v3H50z"/><path fill="#266468" d="M50 78h25v5H50z"/></g></g></svg>