<svg width="54" height="54" viewBox="0 0 54 54" xmlns="http://www.w3.org/2000/svg"><title>Oval 71 + Line + Line</title><g fill="none" fill-rule="evenodd"><path d="M27 54c14.912 0 27-12.088 27-27S41.912 0 27 0 0 12.088 0 27s12.088 27 27 27zm0-4c12.703 0 23-10.297 23-23S39.703 4 27 4 4 14.297 4 27s10.297 23 23 23z" fill="#444"/><path d="M27 3.5v3.2m16.404 3.595l-2.262 2.263m9.057 14.141H47m-3.595 16.405l-2.262-2.263M27 49.898v-3.2m-16.404-3.594l2.262-2.263M3.801 26.699H7m3.595-16.404l2.262 2.263M26.5 13.5v15h8" stroke="#444" stroke-width="2" stroke-linecap="square"/></g></svg>