<svg id="Layer_1" data-name="Layer 1" xmlns="http://www.w3.org/2000/svg" viewBox="0 0 190 190"><defs><style>.cls-1{fill:#3a9ba2}.cls-2{fill:#266468}.cls-3{fill:#328288}.cls-4{fill:#4fbdc5}.cls-5{fill:#205155}</style></defs><title>blue-tv</title><g id="Page-1"><g id="Bundle"><circle id="Oval-3" class="cls-1" cx="95" cy="95" r="95"/><g id="TV"><rect id="Rectangle-7" class="cls-2" x="68" y="140" width="53" height="8" rx="2" ry="2"/><path id="Rectangle-8" class="cls-3" d="M-284 165h49a1.8 1.8 0 0 0 2-1.5 1.8 1.8 0 0 0-2-1.5h-49a1.8 1.8 0 0 0-2 1.5 1.8 1.8 0 0 0 2 1.5z" transform="translate(354 -22)"/><rect id="Rectangle-4" class="cls-2" x="32" y="57" width="125" height="75" rx="3" ry="3"/><rect id="Rectangle-3" class="cls-4" x="39" y="64" width="111" height="61" rx="3" ry="3"/><path id="Rectangle-5" class="cls-5" d="M82 132h25v3H82z"/><path id="Rectangle-6" class="cls-2" d="M82 135h25v5H82z"/></g></g></g></svg>