<svg width="307" height="174" viewBox="0 0 307 174" xmlns="http://www.w3.org/2000/svg"><title>movie-reel</title><defs><linearGradient x1="101.646%" y1="50%" x2=".683%" y2="50%" id="a"><stop stop-color="#FFF" stop-opacity="0" offset="0%"/><stop stop-color="#DDD" stop-opacity=".55" offset="37.085%"/><stop stop-color="#E4E4E4" offset="100%"/></linearGradient><filter x="-50%" y="-50%" width="200%" height="200%" filterUnits="objectBoundingBox" id="b"><feOffset dy="1" in="SourceAlpha" result="shadowOffsetInner1"/><feGaussianBlur in="shadowOffsetInner1" result="shadowBlurInner1"/><feComposite in="shadowBlurInner1" in2="SourceAlpha" operator="arithmetic" k2="-1" k3="1" result="shadowInnerInner1"/><feColorMatrix values="0 0 0 0 1 0 0 0 0 1 0 0 0 0 1 0 0 0 0.0911062047 0" in="shadowInnerInner1" result="shadowMatrixInner1"/><feMerge><feMergeNode in="SourceGraphic"/><feMergeNode in="shadowMatrixInner1"/></feMerge></filter><filter x="-50%" y="-50%" width="200%" height="200%" filterUnits="objectBoundingBox" id="c"><feOffset dy="2" in="SourceAlpha" result="shadowOffsetInner1"/><feGaussianBlur in="shadowOffsetInner1" result="shadowBlurInner1"/><feComposite in="shadowBlurInner1" in2="SourceAlpha" operator="arithmetic" k2="-1" k3="1" result="shadowInnerInner1"/><feColorMatrix values="0 0 0 0 1 0 0 0 0 1 0 0 0 0 1 0 0 0 0.0919185915 0" in="shadowInnerInner1" result="shadowMatrixInner1"/><feMerge><feMergeNode in="SourceGraphic"/><feMergeNode in="shadowMatrixInner1"/></feMerge></filter><filter x="-50%" y="-50%" width="200%" height="200%" filterUnits="objectBoundingBox" id="d"><feOffset dy="2" in="SourceAlpha" result="shadowOffsetOuter1"/><feGaussianBlur stdDeviation="2" in="shadowOffsetOuter1" result="shadowBlurOuter1"/><feColorMatrix values="0 0 0 0 0 0 0 0 0 0 0 0 0 0 0 0 0 0 0.35 0" in="shadowBlurOuter1" result="shadowMatrixOuter1"/><feMerge><feMergeNode in="shadowMatrixOuter1"/><feMergeNode in="SourceGraphic"/></feMerge></filter><filter x="-50%" y="-50%" width="200%" height="200%" filterUnits="objectBoundingBox" id="e"><feOffset dy="2" in="SourceAlpha" result="shadowOffsetOuter1"/><feGaussianBlur stdDeviation="2" in="shadowOffsetOuter1" result="shadowBlurOuter1"/><feColorMatrix values="0 0 0 0 0 0 0 0 0 0 0 0 0 0 0 0 0 0 0.35 0" in="shadowBlurOuter1" result="shadowMatrixOuter1"/><feMerge><feMergeNode in="shadowMatrixOuter1"/><feMergeNode in="SourceGraphic"/></feMerge></filter><filter x="-50%" y="-50%" width="200%" height="200%" filterUnits="objectBoundingBox" id="f"><feOffset dy="1" in="SourceAlpha" result="shadowOffsetInner1"/><feGaussianBlur in="shadowOffsetInner1" result="shadowBlurInner1"/><feComposite in="shadowBlurInner1" in2="SourceAlpha" operator="arithmetic" k2="-1" k3="1" result="shadowInnerInner1"/><feColorMatrix values="0 0 0 0 1 0 0 0 0 1 0 0 0 0 1 0 0 0 0.106303782 0" in="shadowInnerInner1" result="shadowMatrixInner1"/><feMerge><feMergeNode in="SourceGraphic"/><feMergeNode in="shadowMatrixInner1"/></feMerge></filter><linearGradient x1="50%" y1="0%" x2="50%" y2="100%" id="g"><stop stop-color="#DC4C37" offset="0%"/><stop stop-color="#F05A45" offset="49.798%"/><stop stop-color="#DC4C37" offset="100%"/></linearGradient><linearGradient x1="50%" y1="0%" x2="50%" y2="100%" id="h"><stop stop-color="#E36A59" offset="0%"/><stop stop-color="#F27F6E" offset="16.869%"/><stop stop-color="#EC7B6A" offset="49.798%"/><stop stop-color="#C3311D" offset="100%"/></linearGradient></defs><g fill="none" fill-rule="evenodd"><path d="M306.904 35.613v135.692L162.282 102.5l144.622-66.887z" fill="url(#a)" transform="translate(0 2)"/><path fill="#E1412B" d="M8 50h171v115H8z"/><path stroke="#B53223" filter="url(#b)" d="M13 54h161v109H13z" transform="translate(0 2)"/><path stroke="#B53223" fill="#E1412B" filter="url(#c)" d="M0 0h81v30H0z" transform="translate(53 105)"/><path d="M84 118v4h5v-4h-5zm-10 0v4h5v-4h-5zm-10 0v4h5v-4h-5zm51-2v7h8v-7h-8z" fill="#FFF"/><path d="M12.995 50A5.001 5.001 0 0 0 8 54.997V165L135.238 53.302c2.078-1.823 1.516-3.302-1.233-3.302H12.995z" fill-opacity=".1" fill="#FFF"/><g transform="translate(14 2)"><circle fill="#0E0E0E" cx="38.5" cy="39.5" r="19.5"/><path d="M37.5 20.5l84 8" stroke="#0E0E0E" stroke-width="2" stroke-linecap="square"/><path d="M39 78c21.54 0 39-17.46 39-39S60.54 0 39 0 0 17.46 0 39s17.46 39 39 39zM17.243 49.503c-1.556.558-1.866 1.962-.7 3.128l8.85 8.85c1.17 1.17 2.57.856 3.129-.7l5.305-14.778c.559-1.556-.25-2.364-1.806-1.806l-14.778 5.306zm11.279-31.166c-.559-1.556-1.963-1.865-3.128-.7l-8.851 8.851c-1.17 1.17-.856 2.57.7 3.128l14.778 5.305c1.556.559 2.364-.25 1.806-1.805l-5.305-14.779zm31.165 11.28c1.556-.56 1.866-1.964.7-3.129l-8.85-8.851c-1.17-1.17-2.57-.855-3.129.7l-5.305 14.779c-.559 1.556.25 2.364 1.806 1.805l14.778-5.305zM48.408 60.781c.559 1.555 1.963 1.865 3.128.7l8.851-8.851c1.17-1.17.856-2.57-.7-3.128L44.91 44.197c-1.556-.558-2.364.25-1.806 1.806l5.305 14.779z" fill="#E1412B" filter="url(#d)"/><circle fill="#0E0E0E" cx="119.5" cy="40.5" r="13.5"/><path d="M120 79c21.54 0 39-17.46 39-39S141.54 1 120 1 81 18.46 81 40s17.46 39 39 39zM98.243 50.503c-1.556.558-1.866 1.962-.7 3.128l8.85 8.85c1.17 1.17 2.57.856 3.129-.7l5.305-14.778c.559-1.556-.25-2.364-1.806-1.806l-14.778 5.306zm11.279-31.166c-.559-1.556-1.963-1.865-3.128-.7l-8.851 8.851c-1.17 1.17-.856 2.57.7 3.128l14.778 5.305c1.556.559 2.364-.25 1.806-1.805l-5.305-14.779zm31.165 11.28c1.556-.56 1.866-1.964.7-3.129l-8.85-8.851c-1.17-1.17-2.57-.855-3.129.7l-5.305 14.779c-.559 1.556.25 2.364 1.806 1.805l14.778-5.305zm-11.279 31.165c.559 1.555 1.963 1.865 3.128.7l8.851-8.851c1.17-1.17.856-2.57-.7-3.128l-14.778-5.306c-1.556-.558-2.364.25-1.806 1.806l5.305 14.779z" fill="#E1412B" filter="url(#e)"/></g><path fill="#E1412B" filter="url(#f)" d="M0 162h185v10H0z" transform="translate(0 2)"/><path fill="url(#g)" d="M179 86h9v34h-9z" transform="translate(0 2)"/><path fill="url(#h)" d="M188 78h15v50h-15z" transform="translate(0 2)"/></g></svg>