<svg id="Layer_1" data-name="Layer 1" xmlns="http://www.w3.org/2000/svg" viewBox="0 0 104.96 150.71"><defs><style>.cls-1{fill:#eda83f}.cls-2{fill:#fecc81}.cls-3{fill:#c6822a}.cls-4{fill:#a56928}.cls-5{fill:none;stroke:#231f20;stroke-miterlimit:10}</style></defs><title>cable</title><path class="cls-1" d="M374.15 412.67H286.7v76.07a4.78 4.78 0 0 0-.26 1.53c0 7.78 19.62 14.09 43.83 14.09 24.05 0 43.57-6.23 43.82-13.94h.07v-77.75z" transform="translate(-277.79 -353.65)"/><path class="cls-2" d="M286.44 406.33v32.07c0 7.78 19.62 14.09 43.83 14.09s43.83-6.31 43.83-14.09h.06v-32.07h-87.72z" transform="translate(-277.79 -353.65)"/><ellipse class="cls-3" cx="52.48" cy="61.67" rx="43.83" ry="14.09"/><path class="cls-2" d="M378.49 386v-16.85H282V386h-4.26v14.18H282v8.65c0 8.56 21.59 15.5 48.22 15.5s48.22-6.94 48.22-15.5v-8.65h4.26V386h-4.26z" transform="translate(-277.79 -353.65)"/><ellipse class="cls-4" cx="52.48" cy="15.5" rx="48.22" ry="15.5"/><path class="cls-1" d="M326.27 384.65v-15.83c0-2.76 1.66-5 3.72-5h.57c2.05 0 3.72 2.23 3.72 5v15.83" transform="translate(-277.79 -353.65)"/></svg>