<svg id="Layer_1" data-name="Layer 1" xmlns="http://www.w3.org/2000/svg" viewBox="0 0 87.72 154.35"><defs><style>.cls-1{fill:#3b3c3d}.cls-2{fill:#16171a}.cls-3{fill:#a7a7a7}.cls-4{fill:#40434a}.cls-5{fill:#aebe3e}.cls-6{fill:#e14426}.cls-7{fill:#717c33}.cls-8{fill:#e7e7e7}.cls-9{fill:#973020}</style></defs><title>fiber-cable</title><path class="cls-1" d="M561.79 412.67v76.07a4.78 4.78 0 0 0-.26 1.53c0 7.78 19.62 14.09 43.83 14.09 24.05 0 43.57-6.23 43.82-13.94h.07v-77.75h-87.46z" transform="translate(-561.53 -350.01)"/><path class="cls-2" d="M561.53 412.67c0 2.89 2.72 5.58 7.37 7.82v-15.64c-4.65 2.24-7.37 4.93-7.37 7.82zm87.66 0c0-2.83-2.61-5.47-7.09-7.68v15.36c4.48-2.21 7.09-4.85 7.09-7.68z" transform="translate(-561.53 -350.01)"/><path class="cls-3" d="M642.1 405v-19h-73.2v18.83c7.86-3.78 21.26-6.27 36.47-6.27 15.38.02 28.91 2.57 36.73 6.44z" transform="translate(-561.53 -350.01)"/><path class="cls-3" d="M605.36 398.58c-15.21 0-28.61 2.49-36.47 6.27v15.63c7.86 3.78 21.26 6.27 36.47 6.27 15.39 0 28.92-2.55 36.74-6.41V405c-7.82-3.87-21.35-6.42-36.74-6.42z" transform="translate(-561.53 -350.01)"/><path class="cls-4" d="M568.68 386c0 1.92 1.44 3.74 4 5.34v-10.65c-2.56 1.6-4 3.41-4 5.31zm73.38 0c0-1.85-1.33-3.6-3.69-5.16v10.31c2.36-1.52 3.69-3.27 3.69-5.15z" transform="translate(-561.53 -350.01)"/><path class="cls-5" d="M605.47 374.23v-6.59h-32.81v13c6.06-3.83 18.43-6.45 32.71-6.45h.1z" transform="translate(-561.53 -350.01)"/><path class="cls-5" d="M605.47 397.82v-23.59h-.1c-14.28 0-26.65 2.62-32.71 6.45v10.68c6.06 3.83 18.43 6.45 32.71 6.45h.1z" transform="translate(-561.53 -350.01)"/><path class="cls-6" d="M638.37 380.87v-13.23h-32.81v6.59c14.44.03 26.88 2.77 32.81 6.64z" transform="translate(-561.53 -350.01)"/><path class="cls-6" d="M605.56 374.24v23.58c14.43 0 26.89-2.72 32.81-6.64v-10.31c-5.93-3.87-18.37-6.61-32.81-6.63zm0 0v-6.59h-.09v6.59h.09z" transform="translate(-561.53 -350.01)"/><path class="cls-6" d="M605.47 397.82h.09v-23.58h-.09v23.58z" transform="translate(-561.53 -350.01)"/><path class="cls-7" d="M572.56 367.64a2.92 2.92 0 0 0 1.54 2.22v-4.45a2.92 2.92 0 0 0-1.54 2.23zm23.58-4.77v9.56q.82-.13 1.58-.28v-9q-.72-.15-1.58-.28zm-7.14-.53h-.94v10.57h1.82v-10.55H589zm16.54 5.3a3 3 0 0 0-1.6-2.27v4.53a3 3 0 0 0 1.6-2.26zm-25.23-4.48v9q.76.15 1.58.28v-9.54q-.82.1-1.58.26z" transform="translate(-561.53 -350.01)"/><path class="cls-8" d="M585 350c-1.72 0-3.11 1.68-3.11 3.76v18.54a38.42 38.42 0 0 0 6.21.62v-19.15c0-2.08-1.39-3.77-3.1-3.77zm-7.8 0c-1.72 0-3.11 1.68-3.11 3.76v15.45a15.7 15.7 0 0 0 6.21 2.74v-18.2c.01-2.06-1.38-3.75-3.1-3.75zm23.63 0c-1.72 0-3.11 1.68-3.11 3.76V372a16 16 0 0 0 6.21-2.71v-15.52c.01-2.08-1.38-3.77-3.1-3.77zm-7.83 0c-1.72 0-3.11 1.68-3.11 3.76v19.16a38.54 38.54 0 0 0 6.21-.61v-18.54c.04-2.08-1.35-3.77-3.1-3.77z" transform="translate(-561.53 -350.01)"/><path class="cls-9" d="M605.48 367.64a2.92 2.92 0 0 0 1.54 2.22v-4.45a2.92 2.92 0 0 0-1.54 2.23zm23.58-4.77v9.56q.82-.13 1.58-.28v-9q-.77-.15-1.58-.28zm-7.06-.53h-.94v10.57h1.82v-10.55H622zm16.45 5.3a3 3 0 0 0-1.6-2.27v4.53a3 3 0 0 0 1.6-2.26zm-25.23-4.48v9q.76.15 1.58.28v-9.54q-.8.1-1.58.26z" transform="translate(-561.53 -350.01)"/><path class="cls-8" d="M617.91 350c-1.72 0-3.11 1.68-3.11 3.76v18.54a38.42 38.42 0 0 0 6.21.62v-19.15c-.01-2.08-1.38-3.77-3.1-3.77zm-7.79 0c-1.72 0-3.11 1.68-3.11 3.76v15.45a15.7 15.7 0 0 0 6.21 2.74v-18.2c0-2.06-1.39-3.75-3.1-3.75zm23.62 0c-1.72 0-3.11 1.68-3.11 3.76V372a16 16 0 0 0 6.21-2.71v-15.52c.01-2.08-1.38-3.77-3.1-3.77zm-7.79 0c-1.72 0-3.11 1.68-3.11 3.76v19.16a38.54 38.54 0 0 0 6.21-.61v-18.54c.01-2.08-1.38-3.77-3.1-3.77z" transform="translate(-561.53 -350.01)"/></svg>