<svg id="Layer_2" data-name="Layer 2" xmlns="http://www.w3.org/2000/svg" viewBox="0 0 558.89 465.6"><defs><style>.cls-1{fill:#fff}.cls-2{fill:#3b3c3d}.cls-3{fill:#e14426}.cls-4{fill:#636464}.cls-5{fill:#9b9b9b}.cls-6{fill:#e6e6e6}</style></defs><title>geo-compare</title><path class="cls-1" d="M104 486.65a4.45 4.45 0 0 0 4.45 4.45h545.74a4.45 4.45 0 0 0 4.45-4.45V392H104v94.65z" transform="translate(-99.75 -349.5)"/><path class="cls-2" d="M654.19 349.5H108.45a4.45 4.45 0 0 0-4.45 4.45V392h554.64v-38.05a4.45 4.45 0 0 0-4.45-4.45z" transform="translate(-99.75 -349.5)"/><rect class="cls-3" x="449" y="6" width="97.75" height="30.25" rx="3.21" ry="3.21"/><path class="cls-3" d="M0 13.5h17.25l5.25 7.75L17 29H0V13.5z"/><path class="cls-4" d="M29.75 13.5h202.5V29H29.75z"/><path class="cls-1" d="M104 648.65a4.45 4.45 0 0 0 4.45 4.45h545.74a4.45 4.45 0 0 0 4.45-4.45V554H104v94.65z" transform="translate(-99.75 -349.5)"/><path class="cls-2" d="M654.19 511.5H108.45a4.45 4.45 0 0 0-4.45 4.45V554h554.64v-38.05a4.45 4.45 0 0 0-4.45-4.45z" transform="translate(-99.75 -349.5)"/><rect class="cls-3" x="449" y="168" width="97.75" height="30.25" rx="3.21" ry="3.21"/><path class="cls-5" d="M0 175.5h17.25l5.25 7.75L17 191H0v-15.5z"/><path class="cls-4" d="M29.75 175.5h202.5V191H29.75z"/><path class="cls-6" d="M25.25 75.73h95v33.94h-95zm135.5-4.29h44.5v16h-44.5zm0 25.22h44.5v16h-44.5zm97.24-14.71h82.49v21.5h-82.49zm123.76-9.59h83.5v7.5h-83.5zm0 15.5H509.2v7.5H381.75zm0 16.38h134.08v7.5H381.75zM25.25 237.73h95v33.94h-95zm135.5-4.29h44.5v16h-44.5zm0 25.22h44.5v16h-44.5zm97.24-14.71h82.49v21.5h-82.49zm123.76-9.59h109.6v7.5h-109.6zm0 15.5h83.5v7.5h-83.5zm0 16.38h123.57v7.5H381.75z"/><path class="cls-1" d="M104 810.65a4.45 4.45 0 0 0 4.45 4.45h545.74a4.45 4.45 0 0 0 4.45-4.45V716H104v94.65z" transform="translate(-99.75 -349.5)"/><path class="cls-2" d="M654.19 673.5H108.45a4.45 4.45 0 0 0-4.45 4.45V716h554.64v-38.05a4.45 4.45 0 0 0-4.45-4.45z" transform="translate(-99.75 -349.5)"/><rect class="cls-3" x="449" y="330" width="97.75" height="30.25" rx="3.21" ry="3.21"/><path class="cls-5" d="M0 337.5h17.25l5.25 7.75L17 353H0v-15.5z"/><path class="cls-4" d="M29.75 337.5h202.5V353H29.75z"/><path class="cls-6" d="M25.25 399.73h95v33.94h-95zm135.5-4.29h44.5v16h-44.5zm0 25.22h44.5v16h-44.5zm97.24-14.71h82.49v21.5h-82.49zm123.76-9.59h99.52v7.5h-99.52zm0 15.5h83.5v7.5h-83.5zm0 16.38h134.08v7.5H381.75z"/></svg>