<svg id="Layer_1" data-name="Layer 1" xmlns="http://www.w3.org/2000/svg" viewBox="0 0 295.26 241.88"><defs><style>.cls-1{fill:#eda83f}.cls-2{fill:#a56928}.cls-3{fill:#3a9ba2}.cls-4{fill:#266468}.cls-5{fill:#e14426}</style></defs><title>multiplecable</title><path class="cls-1" d="M492.56 450.57l-144.5 57.15a3.13 3.13 0 0 1-2.3 0l-144.51-57.3a3.13 3.13 0 0 1 0-5.81l144.5-57.15a3.13 3.13 0 0 1 2.3 0l144.51 57.3a3.13 3.13 0 0 1 0 5.81z" transform="translate(-199.28 -266.06)"/><path class="cls-2" d="M239.4 157.23l-91.77 36.3-91.65-36.35 91.65-36.24 91.77 36.29z"/><path class="cls-3" d="M492.56 390l-144.5 57.15a3.13 3.13 0 0 1-2.3 0l-144.51-57.3a3.13 3.13 0 0 1 0-5.81l144.5-57.15a3.13 3.13 0 0 1 2.3 0l144.51 57.3a3.13 3.13 0 0 1 0 5.81z" transform="translate(-199.28 -266.06)"/><path class="cls-4" d="M239.28 96.69l-91.65 36.25L55.98 96.6l91.65-36.25 91.65 36.34z"/><path class="cls-5" d="M492.56 329.4l-144.5 57.15a3.13 3.13 0 0 1-2.3 0l-144.51-57.3a3.13 3.13 0 0 1 0-5.81l144.5-57.15a3.13 3.13 0 0 1 2.3 0l144.51 57.3a3.13 3.13 0 0 1 0 5.81z" transform="translate(-199.28 -266.06)"/></svg>