<svg id="Bild" xmlns="http://www.w3.org/2000/svg" viewBox="0 0 492 393.6"><defs><style>.cls-1{fill:#973020}.cls-2{fill:#bb4f3c}.cls-3{fill:#e14426}.cls-4{fill:#d87166}.cls-5{fill:#414041}.cls-6{fill:#8e8c87}.cls-7{fill:#35383a}.cls-8{fill:#3b3c3d}.cls-9{fill:#4fbdc5}.cls-10{fill:#fff}.cls-11{fill:#453835}.cls-12{fill:#16171a}.cls-13{opacity:.3}</style></defs><title>red-house</title><g id="Fassade"><path class="cls-1" d="M307.2 367.2v7.2H300v9.6h-7.2v9.6H14.4v-28.8h292.8v2.4z"/><path class="cls-2" d="M398.4 364.8v28.8h-9.6V384h-7.2v-9.6h-7.2v-9.6h24z"/><path class="cls-1" d="M398.4 364.8H480v28.8h-81.6z"/><path class="cls-3" d="M388.8 254.4v110.4h-21.6v-96h-52.8v96h-21.6V254.4h96z"/><path class="cls-3" d="M559.2 499.2v24h-81.6V412.8h5.4l4.2 4.8h9.6l-4.27-4.8h66.67v86.4zm-14.4-7.2v-2.4H540v-62.4h-45.6v62.4h-4.8v2.4h55.2zm-182.4 7.2v24H141.6V412.8h205.87l-4.27 4.8h9.6l4.2-4.8h5.4v86.4zm-40.8-7.2v-2.4h-4.8v-62.4h-45.6v62.4h-4.8v2.4h55.2zm-86.4 0v-2.4h-4.8v-62.4h-45.6v62.4H180v2.4h55.2zm-2.4-233.68V300h-55.2v-41.68l27.6-29.05zm-12 29.68v-31.2h-31.2V288h31.2z" transform="translate(-79.2 -158.4)"/><path class="cls-3" d="M537.6 331.2v21.6h-98.4L420 331.2l-19.2 21.6h-288v-21.6h189.6V240l72-72 72 72v91.2h91.2zm-110.4-24v-2.4h-4.8v-43.2c0-14.59-21.47-26.4-48-26.4s-48 11.81-48 26.4v43.2h-4.8v2.4h105.6z" transform="translate(-79.2 -158.4)"/><path class="cls-4" d="M477.6 412.8v110.4H468V412.8h-96v110.4h-9.6V406.63L420 340.8l57.6 65.83v6.17zM434.4 384a14.4 14.4 0 1 0-14.4 14.4 14.4 14.4 0 0 0 14.4-14.4z" transform="translate(-79.2 -158.4)"/></g><g id="Treppe"><path class="cls-5" d="M292.8 386.4h96v7.2h-96zm7.2-9.6h81.6v7.2H300zm7.2-9.6h67.2v7.2h-67.2z"/><path class="cls-6" d="M388.8 384v2.4h-96V384h96zm-7.2-9.6v2.4H300v-2.4h81.6zm-7.2-9.6v2.4h-67.2v-2.4h67.2z"/></g><g id="T_r_6_" data-name="T¸r_6_"><circle class="cls-7" cx="323.52" cy="314.4" r="1.92"/><path class="cls-8" d="M398.4 432v91.2h43.2V432h-43.2zm7.2 7.2h28.8V456h-28.8v-16.8zm-2.88 35.52a1.92 1.92 0 1 1 1.92-1.92 1.92 1.92 0 0 1-1.92 1.92z" transform="translate(-79.2 -158.4)"/></g><g id="Glas"><path class="cls-9" d="M439.2 290.4H456v36h-16.8zm-19.2 0h16.8v36H420zm0-16.8h36V288h-36z"/><path class="cls-9" d="M421.2 385.2h8.32a9.6 9.6 0 0 1-8.32 8.32v-8.32zm8.32-2.4h-8.32v-8.32a9.6 9.6 0 0 1 8.32 8.32zm-10.72-8.32v8.32h-8.32a9.6 9.6 0 0 1 8.32-8.32zm0 10.72v8.32a9.6 9.6 0 0 1-8.32-8.32h8.32z" transform="translate(-79.2 -158.4)"/><path class="cls-9" d="M328.8 283.2h24v12h-24zM216 290.4h16.8v36H216zm-19.2 0h16.8v36h-16.8zm0-16.8h36V288h-36zm-67.2 16.8h16.8v36h-16.8zm-19.2 0h16.8v36h-16.8zm0-16.8h36V288h-36zm16.8-158.4h9.6v9.6h-9.6zm-12 0h9.6v9.6h-9.6zm0-12h9.6v9.6h-9.6zm12 0h9.6v9.6h-9.6zm196.8 2.4h14.4v36H324zm-55.2 0h52.8v36h-52.8zm-16.8 0h14.4v36H252z"/><path class="cls-9" d="M345.6 245.49v16.11h-14.4c0-6.4 5.56-12.15 14.4-16.11zm55.2-1v17.11H348v-17.11a79.81 79.81 0 0 1 52.8 0zm16.8 17.11h-14.4v-16.11c8.8 3.96 14.4 9.71 14.4 16.11z" transform="translate(-79.2 -158.4)"/></g><g id="Fenster"><path class="cls-10" d="M465.6 331.2v2.4h-55.2v-2.4h55.2z"/><path class="cls-10" d="M540 427.2v62.4h-45.6v-62.4H540zm-4.8 57.6v-36h-16.8v36h16.8zm0-38.4V432h-36v14.4h36zM516 484.8v-36h-16.8v36H516zm-96-115.2a14.4 14.4 0 1 1-14.4 14.4 14.4 14.4 0 0 1 14.4-14.4zm1.2 13.2h8.32a9.6 9.6 0 0 0-8.32-8.32v8.32zm8.32 2.4h-8.32v8.32a9.6 9.6 0 0 0 8.32-8.32zm-10.72 8.32v-8.32h-8.32a9.6 9.6 0 0 0 8.32 8.32zm0-10.72v-8.32a9.6 9.6 0 0 0-8.32 8.32h8.32z" transform="translate(-79.2 -158.4)"/><path class="cls-10" d="M367.2 268.8v96h-4.8v-91.2h-43.2v91.2h-4.8v-96h52.8z"/><path class="cls-10" d="M434.4 439.2V456h-28.8v-16.8h28.8zm-2.4 14.4v-12h-24v12h24z" transform="translate(-79.2 -158.4)"/><path class="cls-10" d="M242.4 331.2v2.4h-55.2v-2.4h55.2z"/><path class="cls-10" d="M316.8 427.2v62.4h-45.6v-62.4h45.6zm-4.8 57.6v-36h-16.8v36H312zm0-38.4V432h-36v14.4h36zm-19.2 38.4v-36H276v36h16.8z" transform="translate(-79.2 -158.4)"/><path class="cls-10" d="M156 331.2v2.4h-55.2v-2.4H156z"/><path class="cls-10" d="M230.4 427.2v62.4h-45.6v-62.4h45.6zm-4.8 57.6v-36h-16.8v36h16.8zm0-38.4V432h-36v14.4h36zm-19.2 38.4v-36h-16.8v36h16.8zm14.4-228V288h-31.2v-31.2h31.2zm-4.8 26.4v-9.6h-9.6v9.6h9.6zm0-12v-9.6h-9.6v9.6h9.6zm-12 12v-9.6h-9.6v9.6h9.6zm0-12v-9.6h-9.6v9.6h9.6z" transform="translate(-79.2 -158.4)"/><path class="cls-10" d="M348 146.4v2.4H242.4v-2.4H348z"/><path class="cls-10" d="M403.2 245.49v16.11h14.4c0-6.4-5.6-12.15-14.4-16.11zm-57.6 0c-8.84 4-14.4 9.71-14.4 16.11h14.4v-16.11zm55.2-1a79.81 79.81 0 0 0-52.8 0v17.11h52.8v-17.11zm21.6 17.11v43.2h-96v-43.2c0-14.59 21.47-26.4 48-26.4s48 11.8 48 26.4zm-4.8 38.4v-36h-14.4v36h14.4zm-16.8 0v-36H348v36h52.8zm-55.2 0v-36h-14.4v36h14.4z" transform="translate(-79.2 -158.4)"/></g><g id="Dach"><path class="cls-10" d="M283.2 248.23v6.17h-5.4l5.4-6.17zm-8.53-1.03l-6.4 7.2H4.8v-7.2h269.87zm212.53 0v7.2h-73.87l-6.4-7.2h80.27zm-88.8 1.03l5.4 6.17h-5.4v-6.17z"/><path class="cls-10" d="M277.8 254.4l-4.2 4.8h-7.2l74.4-84 74.4 84H408l-4.2-4.8-5.4-6.17-57.6-65.83-57.6 65.83-5.4 6.17zm195-88.8v7.2H367.2v-7.2h105.6zm-249.6 0v7.2h-204v-7.2h204zm-69.6-65.68L126 70.86 98.4 99.92 90.72 108h-6.84L126 63.66 168.12 108h-6.84l-7.68-8.08zm69.6-18.32v9.6h-9.6l9.6-9.6zm153.6 9.6h-9.6v-9.6l9.6 9.6z"/><path class="cls-10" d="M367.2 81.6l-72-72-72 72-9.6 9.6-4.8 4.8h-7.2l93.6-93.6L388.8 96h-7.2l-4.8-4.8-9.6-9.6z"/><path class="cls-11" d="M223.2 163.2v2.4H14.4v-2.4h208.8zm53.6 81.6l-2.13 2.4H0v-2.4h276.8zm215.2 0v2.4h-85.07l-2.13-2.4H492z"/><path class="cls-11" d="M415.2 259.2l-74.4-84-74.4 84H264l4.27-4.8 6.4-7.2 2.13-2.4 6.4-7.2 38.4-43.2 19.2-21.6 19.2 21.6 44.8 50.4 2.13 2.4 6.4 7.2 4.27 4.8h-2.4zM126 61.26L170.4 108h-2.28L126 63.66 83.88 108H81.6L126 61.26z"/><path d="M391.2 96h-2.4L295.2 2.4 201.6 96h-2.4l67.2-67.2L295.2 0 324 28.8 391.2 96z"/><path class="cls-11" d="M477.6 163.2v2.4H367.2v-2.4h110.4z"/><path class="cls-8" d="M482.4 230.4l9.6 14.4h-87.2L360 194.4h98.4l17.6 26.4 1.6 2.4 4.8 7.2z"/><path class="cls-12" d="M321.6 194.4l-38.4 43.2-6.4 7.2H0l33.6-50.4h288z"/><path class="cls-12" d="M169.92 266.4l7.68-8.08V300h55.2v-41.68l7.68 8.08h9.12l-44.4-46.74-44.4 46.74h9.12zm175.68-79.2l-67.2 67.2h9.6l4.8-4.8h9.6v72H93.6L180 187.2h165.6z" transform="translate(-79.2 -158.4)"/><path class="cls-8" d="M428.23 86.4l49.37 76.8H367.2v-72h9.6l4.8 4.8h9.6L324 28.8h67.2l37.03 57.6z"/></g><g id="Schatten"><path class="cls-13" d="M388.8 254.4h-96v110.4h45.6V300h50.4v-45.6zm52.8 36h-2.4v36h2.4v-33.6H456v-2.4h-14.4z"/><path class="cls-13" d="M480 261.6v-7.2h-66.67l4.27 4.8H408l-4.2-4.8h-5.4v139.2H432v-55.2h38.4l-4.8-7.2v2.4H432v-40.8h4.8v-2.4H432v-7.2h28.8v-14.4H432v-7.2h48zm-319.2 76.8h-57.6l-2.4-4.8H156v-2.4l4.8 7.2zm86.4 0h-57.6l-2.4-4.8h55.2v-2.4l4.8 7.2zm134.4 36h-7.2v-9.6l7.2 9.6zm7.2 9.6h-7.2v-9.6l7.2 9.6zm7.2 9.6h-7.2V384l7.2 9.6z"/><path class="cls-13" d="M420 369.6a14.4 14.4 0 0 0-6.87 27.06 14 14 0 0 1-.33-3.06 14.26 14.26 0 0 1 1.31-6h4.69v-2.4h-3.29a14.33 14.33 0 0 1 5.69-4.69v2.29h2.4v-3.14a14.42 14.42 0 0 1 10.47 1.29A14.39 14.39 0 0 0 420 369.6z" transform="translate(-79.2 -158.4)"/><path class="cls-13" d="M423.52 385.2h-2.32v8.32a9.62 9.62 0 0 0 2.32-.59v-5.41h5.41a9.62 9.62 0 0 0 .59-2.32h-6z" transform="translate(-79.2 -158.4)"/><path class="cls-13" d="M277.8 254.4l-4.2 4.8H264l4.27-4.8H62.4v43.2h43.2v33.6H120v-33.6h9.6v28.8h2.4v-28.8h60v33.6h14.4v-33.6h9.6v28.8h2.4v-28.8h64.8v-43.2h-5.4zM127.2 115.2v9.6h2.4v-7.2h7.2v-2.4h-9.6z"/><path class="cls-13" d="M374.4 235.2c-26.53 0-48 11.81-48 26.4v43.2h14.4v-38.4h4.8V264h-4.8v-2.4c0-2.81 2.69-5.39 7.2-7.43v7.43h2.4v-8.4c6.1-2.22 14.59-3.6 24-3.6a160.08 160.08 0 0 1 28.8 2.4v9.6h2.4v-9.12c10.29 2.2 16.8 5.47 16.8 9.12 0-14.6-21.47-26.4-48-26.4z" transform="translate(-79.2 -158.4)"/><path class="cls-13" d="M268.8 105.6v36h2.4V108h50.4v-2.4h-52.8zm57.6 0H324v36h2.4V108h12v-2.4h-12zm26.4 48h-108l-2.4-4.8H348v-2.4l4.8 7.2zM33.6 172.8h189.6v7.2H33.6zm-14.4-7.2h204v2.4h-204zm253.33 84H4.8v-2.4h269.87l-2.14 2.4zm136.54 0h78.13v-2.4h-80.26l2.13 2.4z"/><path class="cls-12" d="M472.8 168v-2.4H372v-2.4l36-64.8-45.6-69.6H324L391.2 96h-9.6l-4.8-4.8h-9.6V180h91.2v-7.2h-81.6V168h96z"/><path class="cls-13" d="M126 61.26L170.4 108h-9.12l-7.68-8.08v41.68l28.8-33.6L126 61.26zM283.2 254.4h-5.4l63-72 63 72h-3.6L345.6 192 288 257.83l-4.8 5.48v-8.91zm91.2-163.2l-72-72-72 72-7.2 7.2v-7.2h-9.6l81.6-81.6 81.6 81.6h-2.4z"/><path class="cls-13" d="M153.6 102.06v-2.14L126 70.86 98.4 99.92v17.05l7.08-7.45 4.92-5.18v25.26h12v-12h2.4v-2.4h-2.4v-4.8h4.8v2.4h2.4v-2.4h12v-12h-25.56l17.04-17.94 20.52 21.6z"/><path class="cls-12" d="M410.4 247.2h-3.47L360 194.4h14.4l36 52.8z"/></g><path id="Gel_nder_3_" data-name="Gel‰nder_3_" class="cls-10" d="M362.4 484.8V480H100.8v-67.2h-7.2v110.4h7.2v-4.8h76.8v4.8h2.4v-4.8h91.2v4.8h2.4v-4.8h84v4.8h2.4v-4.8h2.4V516H360v-31.2h2.4zM100.8 516v-31.2h4.8V516h-4.8zm7.2 0v-31.2h4.8V516H108zm7.2 0v-31.2h4.8V516h-4.8zm7.2 0v-31.2h4.8V516h-4.8zm7.2 0v-31.2h4.8V516h-4.8zm7.2 0v-31.2h4.8V516h-4.8zm7.2 0v-31.2h4.8V516H144zm7.2 0v-31.2h4.8V516h-4.8zm7.2 0v-31.2h4.8V516h-4.8zm7.2 0v-31.2h4.8V516h-4.8zm7.2 0v-31.2h4.8V516h-4.8zm7.2 0v-31.2h4.8V516H180zm7.2 0v-31.2h4.8V516h-4.8zm7.2 0v-31.2h4.8V516h-4.8zm7.2 0v-31.2h4.8V516h-4.8zm7.2 0v-31.2h4.8V516h-4.8zm7.2 0v-31.2h4.8V516H216zm7.2 0v-31.2h4.8V516h-4.8zm7.2 0v-31.2h4.8V516h-4.8zm7.2 0v-31.2h4.8V516h-4.8zm7.2 0v-31.2h4.8V516h-4.8zm7.2 0v-31.2h4.8V516H252zm7.2 0v-31.2h4.8V516h-4.8zm7.2 0v-31.2h4.8V516h-4.8zm7.2 0v-31.2h4.8V516h-4.8zm7.2 0v-31.2h4.8V516h-4.8zm7.2 0v-31.2h4.8V516H288zm7.2 0v-31.2h4.8V516h-4.8zm7.2 0v-31.2h4.8V516h-4.8zm7.2 0v-31.2h4.8V516h-4.8zm7.2 0v-31.2h4.8V516h-4.8zm7.2 0v-31.2h4.8V516H324zm7.2 0v-31.2h4.8V516h-4.8zm7.2 0v-31.2h4.8V516h-4.8zm7.2 0v-31.2h4.8V516h-4.8zm12 0h-4.8v-31.2h4.8V516z" transform="translate(-79.2 -158.4)"/><path class="cls-13" d="M14.4 254.4h7.2v2.4h-7.2zm7.2 67.2H24v4.8h-2.4zm0 36H24v2.4h-2.4zm4.8-31.2h2.4v1.44h-2.4zm7.2 0H36v1.44h-2.4zm7.2 0h2.4v1.44h-2.4zm7.2 0h2.4v1.44H48zm7.2 0h2.4v1.44h-2.4zm7.2 0h2.4v1.44h-2.4zm7.2 0H72v1.44h-2.4zm7.2 0h2.4v1.44h-2.4zm7.2 0h2.4v1.44H84zm7.2 0h2.4v1.44h-2.4zm7.2 0h2.4v1.44h-2.4zm7.2 0h2.4v1.44h-2.4zm7.2 0h2.4v1.44h-2.4zm7.2 0h2.4v1.44H120zm7.2 0h2.4v1.44h-2.4zm7.2 0h2.4v1.44h-2.4zm7.2 0h2.4v1.44h-2.4zm7.2 0h2.4v1.44h-2.4zm7.2 0h2.4v1.44H156zm7.2 0h2.4v1.44h-2.4zm7.2 0h2.4v1.44h-2.4zm7.2 0h2.4v1.44h-2.4zm7.2 0h2.4v1.44h-2.4zm7.2 0h2.4v1.44H192zm7.2 0h2.4v1.44h-2.4zm7.2 0h2.4v1.44h-2.4zm7.2 0h2.4v1.44h-2.4zm7.2 0h2.4v1.44h-2.4zm7.2 0h2.4v1.44H228zm7.2 0h2.4v1.44h-2.4zm7.2 0h2.4v1.44h-2.4zm7.2 0h2.4v1.44h-2.4zm7.2 0h2.4v1.44h-2.4zm7.2 0h2.4v1.44H264zm7.2 0h2.4v1.44h-2.4zm7.2 0h2.4v1.44h-2.4zm0 33.6h2.4v1.44h-2.4zm-86.4 0h2.4v1.44H192zm-93.6 0h2.4v1.44h-2.4z" id="Schatten-2" data-name="Schatten"/></svg>