<svg id="Layer_1" data-name="Layer 1" xmlns="http://www.w3.org/2000/svg" viewBox="0 0 163.99 164.83"><defs><style>.cls-1{fill:#266468}.cls-2{fill:#4fbdc5}.cls-3{fill:#3a9ba2}</style></defs><title>satellite</title><path class="cls-1" d="M374.45 617a3.51 3.51 0 0 1-2.49-1l-40.28-40.28a3.52 3.52 0 0 1 0-5l24.41-24.41a3.52 3.52 0 0 1 5 0l40.28 40.28a3.52 3.52 0 0 1 0 5L376.93 616a3.5 3.5 0 0 1-2.48 1zM450 692.58a3.5 3.5 0 0 1-2.49-1l-40.28-40.28a3.52 3.52 0 0 1 0-5l24.41-24.41a3.52 3.52 0 0 1 5 0l40.28 40.28a3.52 3.52 0 0 1 0 5l-24.41 24.41a3.52 3.52 0 0 1-2.51 1z" transform="translate(-313.94 -545.31)"/><path class="cls-2" d="M50.72 88.46l6.33-11.83 38.35-9.94-4.41 42.42-14.63 4.99-25.64-25.64z"/><path class="cls-3" d="M383.31 684.66c-8.22 0-19.18-5.86-28.61-15.29-6.28-6.28-11.08-13.35-13.53-19.92-2.78-7.47-2.26-13.65 1.48-17.39a12 12 0 0 1 8.7-3.25c8.22 0 19.18 5.86 28.61 15.29 6.28 6.28 11.08 13.35 13.53 19.92 2.78 7.47 2.26 13.65-1.48 17.39a12 12 0 0 1-8.7 3.25zm52.84-72a39.94 39.94 0 0 0-9.69-14.76c-6.66-6.67-14.69-10.81-20.93-10.81a11.07 11.07 0 0 0-6 1.58 3.54 3.54 0 0 0-1.88 1l-27 27a3.52 3.52 0 0 0 0 5l.29.29 7.53-.8c3.59 0 9.92 2.7 16 8.75a33.3 33.3 0 0 1 8 12v11.46a3.52 3.52 0 0 0 5 0l27-27c3.02-3.06 3.63-7.93 1.68-13.71z" transform="translate(-313.94 -545.31)"/><path class="cls-2" d="M348.42 679.15a3.52 3.52 0 0 1-2.49-6l15.77-15.76a3.52 3.52 0 1 1 5 5l-15.77 15.76a3.51 3.51 0 0 1-2.51 1z" transform="translate(-313.94 -545.31)"/><path class="cls-2" d="M355.66 696.44a29.17 29.17 0 0 1-27.94-25.9 3.52 3.52 0 0 1 7-.62 21.3 21.3 0 0 0 6.36 13c4.57 4.58 10.66 7 16.29 6.34a3.52 3.52 0 0 1 .75 7 23.39 23.39 0 0 1-2.46.18z" transform="translate(-313.94 -545.31)"/><path class="cls-2" d="M351.53 710.13A38.37 38.37 0 0 1 314 671.36a3.47 3.47 0 0 1 3.63-3.4 3.52 3.52 0 0 1 3.41 3.63 30.51 30.51 0 0 0 9.17 22.33c7.21 7.21 17.08 10.47 26.39 8.72a3.52 3.52 0 1 1 1.3 6.92 34.53 34.53 0 0 1-6.37.57z" transform="translate(-313.94 -545.31)"/></svg>