<svg id="Layer_1" data-name="Layer 1" xmlns="http://www.w3.org/2000/svg" viewBox="0 0 190 190"><defs><style>.cls-1{fill:#eda840}.cls-2{fill:#b47515}.cls-3{fill:#a66709}.cls-4{fill:#c78219}.cls-5{fill:#ffcc80}</style></defs><title>yellow-laptop</title><g id="Page-1"><g id="Bundle"><circle id="Oval-4" class="cls-1" cx="95" cy="95" r="95"/><g id="Computer"><path id="Rectangle-13" class="cls-2" d="M-345 199v2.5a2.5 2.5 0 0 0 2.49 2.5h132a2.49 2.49 0 0 0 2.49-2.5V199H-345z" transform="translate(371 -66)"/><rect id="Rectangle-9" class="cls-3" x="41" y="55" width="108" height="66" rx="3" ry="3"/><path id="Rectangle-11" class="cls-4" d="M-327 187a10.3 10.3 0 0 0-5.38 1.83L-345.56 199h137.77l-11.92-10a9.55 9.55 0 0 0-5.29-2h-102z" transform="translate(371 -66)"/><path id="Rectangle-12" class="cls-3" d="M-316.63 188l-10.65 9.24h102l-11.21-9.24h-80.14z" transform="translate(371 -66)"/><rect id="Rectangle-10" class="cls-5" x="48" y="62" width="93" height="52" rx="3" ry="3"/></g></g></g></svg>