<svg width="54" height="54" viewBox="0 0 54 54" xmlns="http://www.w3.org/2000/svg"><title>Oval 76</title><path d="M53.99 54c.007-.333.01-.666.01-1C54 23.729 30.271 0 1 0 .666 0 .333.003 0 .01v12.002C.332 12.004.666 12 1 12c22.644 0 41 18.356 41 41 0 .334-.004.668-.012 1h12.003zm-19.004 0c.01-.332.014-.666.014-1 0-18.778-15.222-34-34-34-.334 0-.668.005-1 .014v10.031C.496 29.015.996 29 1.5 29 15.031 29 26 39.969 26 53.5c0 .167-.002.334-.005.5h8.99zM6.5 54a6.5 6.5 0 1 0 0-13 6.5 6.5 0 0 0 0 13z" fill="#454545" fill-rule="evenodd"/></svg>