<svg width="95" height="65" viewBox="0 0 95 65" xmlns="http://www.w3.org/2000/svg"><title>callerid</title><path d="M0 0v58h45.046v5.022H22.994v1.905h49.014v-1.905H50.023V58H95V0H0zm5 4v50h85V4H5zm22.554 11.679l7.193 6.946-2.778 2.878 11.312-.198-.198-11.312-2.778 2.878-7.194-6.947-5.557 5.755zm29.677 9.697s-.017 3.892-1.08 4.992L48.5 38.293c-1.062 1.1-4.013.281-4.013.281l-8.624 7.37.935.903c2.264 2.187 6.502 3.098 9.347 1.736 0 0 2.86.174 11.817-9.101 8.957-9.276 8.692-12.147 8.692-12.147 1.121-2.928.198-7.071-2.07-9.261l-.935-.904-6.417 8.206zm-23.37 16.293a1.5 1.5 0 0 0-.19 2.117l.964 1.15 8.426-7.071-.964-1.15a1.501 1.501 0 0 0-2.118-.18l-6.119 5.134zm25.373-26.37a1.5 1.5 0 0 1 2.105-.301l1.198.902-6.62 8.785-1.198-.902a1.501 1.501 0 0 1-.291-2.106l4.806-6.379z" fill="#454545" fill-rule="evenodd"/></svg>