<svg xmlns="http://www.w3.org/2000/svg" width="200" height="52" viewBox="0 0 200 52"><g fill="none"><path fill="#000" d="M53.53 20.562h2.661v9.158c0 3.11 1.279 5.978 7.258 5.978 2.177 0 4.63-.276 5.563-.449v-7.603s-1.106.07-2.073.035c-1.763 0-1.693-.968-1.693-1.59v-5.529h4.008v-7.845H65.28V5.564h-9.054v7.153h-2.661v7.845h-.035zm-40.985 7.326c-2.143 0-3.905-1.728-3.905-3.87 0-2.143 1.727-3.87 3.905-3.87a3.864 3.864 0 0 1 3.87 3.87 3.864 3.864 0 0 1-3.87 3.87m0-15.93C5.356 11.957 0 17.278 0 23.982 0 30.688 5.356 36.01 12.545 36.01c7.188 0 12.544-5.321 12.544-12.026-.034-6.67-5.356-12.026-12.544-12.026m27.024 15.931a3.864 3.864 0 0 1-3.87-3.87 3.864 3.864 0 0 1 3.87-3.87 3.864 3.864 0 0 1 3.87 3.87 3.864 3.864 0 0 1-3.87 3.87m2.592-15.93c-2.661 0-4.838.828-6.393 2.625.069-.31.103-.829.103-1.486v-.38h-9.054V41.16h9.054v-7.603c1.555 1.693 3.698 2.488 6.255 2.488 5.84 0 10.437-5.045 10.437-12.06.034-6.981-4.562-12.027-10.402-12.027"/><path fill="#0084D6" d="M193.56 24.64c-3.042 0-5.53 2.488-5.53 5.53 0 3.04 2.488 5.528 5.53 5.528 3.04 0 5.529-2.488 5.529-5.529-.035-3.041-2.488-5.53-5.53-5.53"/><path fill="#000" d="M78.861.07c-3.04 0-5.529 2.487-5.529 5.528 0 3.042 2.488 5.53 5.53 5.53 3.04 0 5.529-2.488 5.529-5.53A5.523 5.523 0 0 0 78.86.07m-7.152 20.492h2.661v14.756h9.054V12.717H71.708zm66.767 4.319c0 1.832-1.28 2.42-2.281 2.42-1.003 0-2.177-.588-2.177-2.42V12.717h-9.055v13.34c0 4.734 3.56 9.641 11.266 9.641 7.741 0 11.266-4.907 11.335-9.642V12.717h-9.054v12.164h-.034zm39.707-12.544c-3.007 0-5.46 1.279-7.188 3.421-1.279-2.108-3.49-3.421-6.325-3.421-2.142 0-4.354 1.002-5.77 2.66 0 0 .172-.76.172-1.865v-.415h-9.054v22.601h9.054V21.495c.242-.415 1.175-1.244 2.315-1.244 1.21 0 2.212.69 2.212 2.315v12.752h9.054V21.495c.277-.415 1.175-1.244 2.316-1.244 1.21 0 2.211.69 2.211 2.315v12.752h9.09V19.871c0-4.908-4.044-7.534-8.087-7.534m-63.794 0c-3.007 0-5.46 1.279-7.188 3.421-1.28-2.108-3.49-3.421-6.325-3.421-2.142 0-4.354 1.002-5.77 2.66 0 0 .172-.76.172-1.865v-.415h-9.054v22.601h9.054V21.495c.242-.415 1.175-1.244 2.315-1.244 1.21 0 2.212.69 2.212 2.315v12.752h9.054V21.495c.242-.415 1.175-1.244 2.316-1.244 1.21 0 2.211.69 2.211 2.315v12.752h9.055V19.871c.034-4.908-4.01-7.534-8.052-7.534M65.28 51.387c-.104 0-.276.035-.45.035-1.209 0-1.762-.484-2.142-1.14-.518.656-1.382 1.174-2.695 1.174-2.212 0-3.802-1.555-3.802-3.836 0-2.177 1.66-3.835 3.802-3.835.933 0 1.659.345 2.177.863v-.76h1.762v3.94c0 .38 0 .656.07.898.138.622.552.968 1.07.968h.174v1.693h.034zm-3.11-3.767c0-1.244-.864-2.108-2.039-2.108-1.175 0-2.004.864-2.004 2.108 0 1.245.864 2.109 2.004 2.109 1.175 0 2.039-.864 2.039-2.109zm11.68 3.767c-.172.035-.38.035-.587.035-.899 0-1.555-.38-1.935-1.037-.622.622-1.383 1.037-2.316 1.037-1.9 0-3.006-1.21-3.006-3.249v-4.32h1.935v4.217c0 .967.588 1.624 1.52 1.624.83 0 1.521-.588 1.521-1.624v-4.216h1.935v4.976c0 .518.242.899.968.864v1.693h-.035zm4.839 0c-.139.035-.38.035-.622.035-1.521 0-2.558-.795-2.869-2.316-.069-.345-.103-.863-.103-1.382v-2.177h-.83v-1.659h.83v-1.831h1.866v1.831h1.59v1.659h-1.59v1.9c0 .554 0 .9.069 1.176.138.725.587 1.106 1.348 1.071h.31v1.693zm6.393-.069v-4.216c0-.968-.657-1.624-1.59-1.624-.83 0-1.59.587-1.59 1.624v4.216h-1.935V41.09h1.936v3.49c.518-.553 1.313-.794 2.004-.794 1.9 0 3.076 1.21 3.076 3.248v4.285h-1.901zm7.015.173c-2.315 0-3.94-1.693-3.94-3.87 0-2.178 1.66-3.871 3.94-3.871 2.281 0 3.974 1.693 3.974 3.87 0 2.178-1.658 3.871-3.974 3.871zm2.074-3.905c0-1.21-.933-2.177-2.074-2.177-1.14 0-2.073.933-2.073 2.177s.933 2.177 2.073 2.177 2.074-.933 2.074-2.177zm3.179 3.732v-7.464h1.832v.76c.552-.622 1.14-.864 1.762-.864.657 0 1.071.173 1.417.45l-1.037 1.52a1.432 1.432 0 0 0-.795-.208c-.725 0-1.278.484-1.278 1.556v4.216H97.35v.034zm5.598-9.296c0-.587.484-1.106 1.106-1.106.588 0 1.106.484 1.106 1.106 0 .588-.484 1.106-1.106 1.106a1.114 1.114 0 0 1-1.106-1.106zm.139 9.296v-7.464h1.935v7.464h-1.935zm3.248 0v-1.175l3.456-4.631h-3.352v-1.658h5.909v1.106l-3.49 4.734h3.663v1.659h-6.186zm8.675-3.041c.137.968 1.036 1.59 2.28 1.59.76 0 1.348-.208 1.866-.588l1.14 1.244c-.794.726-1.866 1.003-3.006 1.003-2.42 0-4.182-1.417-4.182-3.94 0-2.246 1.625-3.94 3.836-3.94 2.281 0 3.698 1.486 3.767 3.629 0 .622-.034.968-.034.968h-5.668v.034zm3.8-1.52c-.138-.934-.863-1.486-1.866-1.486-1.002 0-1.693.622-1.866 1.486h3.732zm11.336 4.63c-.104 0-.277.035-.415.035-1.21 0-1.659-.553-1.97-1.071-.553.69-1.244 1.105-2.523 1.105-2.211 0-3.801-1.555-3.801-3.836 0-2.177 1.659-3.835 3.801-3.835.864 0 1.59.31 2.108.794v-3.455h1.832v7.464c0 .795.345 1.14.76 1.14h.208v1.66zm-2.765-3.767c0-1.244-.864-2.108-2.04-2.108-1.174 0-2.003.864-2.003 2.108 0 1.245.864 2.109 2.004 2.109 1.14 0 2.039-.864 2.039-2.109zm8.64 3.698v-7.464h1.83v.76c.554-.622 1.141-.864 1.763-.864.657 0 1.072.173 1.417.45l-1.036 1.52a1.432 1.432 0 0 0-.795-.208c-.726 0-1.279.484-1.279 1.556v4.216h-1.9v.034zm6.738-3.04c.138.967 1.037 1.589 2.281 1.589.76 0 1.348-.208 1.866-.588l1.14 1.244c-.794.726-1.866 1.003-3.006 1.003-2.42 0-4.182-1.417-4.182-3.94 0-2.246 1.625-3.94 3.836-3.94 2.281 0 3.698 1.486 3.767 3.629 0 .622-.034.968-.034.968h-5.668v.034zm3.802-1.521c-.139-.934-.864-1.486-1.867-1.486-1.002 0-1.693.622-1.866 1.486h3.733zm7.395-.76a2.187 2.187 0 0 0-1.693-.796c-.657 0-1.037.242-1.037.657 0 1.313 4.147.484 4.147 3.283 0 1.659-1.417 2.42-3.041 2.42-1.14 0-2.454-.346-3.352-1.314l1.244-1.21a2.853 2.853 0 0 0 2.108.899c.76 0 1.106-.277 1.106-.622 0-1.279-4.078-.519-4.078-3.456 0-1.313 1.106-2.246 2.868-2.246 1.21 0 2.246.345 2.972 1.244l-1.244 1.14zm4.043 2.28c.138.968 1.037 1.59 2.281 1.59.76 0 1.348-.208 1.866-.588l1.14 1.244c-.794.726-1.865 1.003-3.006 1.003-2.419 0-4.181-1.417-4.181-3.94 0-2.246 1.624-3.94 3.836-3.94 2.28 0 3.697 1.486 3.766 3.629 0 .622-.034.968-.034.968h-5.668v.034zm3.767-1.52c-.138-.934-.864-1.486-1.866-1.486-1.002 0-1.693.622-1.866 1.486h3.732zm6.359 4.63c-.173.035-.346.035-.553.035-1.14 0-2.04-.553-2.42-1.624-.207-.519-.31-1.244-.31-2.074v-6.67h1.9v6.705c0 .38.035.656.104.898.138.622.553.968 1.106.968h.173v1.762zm4.043 0c-.173.035-.346.035-.553.035-1.14 0-2.039-.553-2.419-1.624-.207-.519-.311-1.244-.311-2.074v-6.67h1.9v6.705c0 .38.035.656.104.898.139.622.553.968 1.106.968h.173v1.762zm2.246-3.11c.139.968 1.037 1.59 2.281 1.59.76 0 1.348-.208 1.866-.588l1.14 1.244c-.794.726-1.865 1.003-3.006 1.003-2.419 0-4.181-1.417-4.181-3.94 0-2.246 1.624-3.94 3.836-3.94 2.28 0 3.697 1.486 3.766 3.629 0 .622-.034.968-.034.968h-5.668v.034zm3.802-1.52c-.139-.934-.864-1.486-1.866-1.486-1.003 0-1.694.622-1.867 1.486h3.733zm3.179 4.561v-7.464h1.832v.76c.553-.622 1.14-.864 1.762-.864.657 0 1.071.173 1.417.45l-1.037 1.52a1.432 1.432 0 0 0-.795-.208c-.725 0-1.278.484-1.278 1.556v4.216h-1.901v.034z"/></g></svg>