<?xml version="1.0" encoding="utf-8"?>
<!-- Generator: Adobe Illustrator 19.0.0, SVG Export Plug-In . SVG Version: 6.00 Build 0)  -->
<svg version="1.1" id="Layer_1" xmlns="http://www.w3.org/2000/svg" xmlns:xlink="http://www.w3.org/1999/xlink" x="0px" y="0px"
	 viewBox="-132 349 347 96" style="enable-background:new -132 349 347 96;" xml:space="preserve">
<style type="text/css">
	.st0{fill:#EA422D;}
	.st1{fill:#404349;}
	.st2{font-family:'ChalkboardSE-Bold';}
	.st3{font-size:60px;}
	.st4{font-size:36px;}
</style>
<title>ctv-logo</title>
<g>
	<path class="st0" d="M-84.5,349c-26.2,0-47.5,21.3-47.5,47.5c0,26.2,21.3,47.5,47.5,47.5c26.2,0,47.5-21.3,47.5-47.5
		S-58.3,349-84.5,349L-84.5,349z M-96.4,420c-14.6,0-17.1-8.2-17.1-17.9v-20.2c0-3.8,3.4-5.7,6.5-5.7c3.1,0,6.5,1.9,6.5,5.7v4.3h2.4
		c4.1,0,6.2,3,6.2,6c0,3-2.1,6-6.2,6h-2.4v3.9c0,3.1,1,5.8,4.4,5.8c4,0,5.9,3,5.9,6S-92.4,420-96.4,420z M-52.7,395.2l-10,18.3
		c-2.4,4.8-4.9,6.5-8,6.5s-6.2-1.7-8.7-6.5l-10-18.3c-3.9-7.7,9.5-12.6,12.3-5.5l6.4,13.7l6.4-13.7
		C-61.5,382.5-48.9,387.5-52.7,395.2z"/>
	<path class="st1" d="M257.3,426.1c-2.1,0.8-4.5,1.1-7.2,1.1c-12.2,0-19.1-7.8-19.1-17.3c0-9.5,7-17.8,19.1-17.8
		c4.2,0,9.2,1.6,12.5,4.7c0.9,0.9,1.5,2.1,1.5,3.2c0,2.9-2,5.1-5.1,5.1c-1.5,0-2.1-0.4-3.9-1.7c-1.7-1.3-3.5-1.7-5-1.7
		c-3.9,0-7.9,2.9-7.9,8.3c0,4.9,4,7.8,7.9,7.8c2.2,0,4.5-0.6,6.1-1.8c0.9-0.6,1.9-0.9,2.8-0.9c2.7,0,4.7,2.4,4.7,4.9
		C263.8,423,260.2,425.1,257.3,426.1 M303.5,412c0,3.3,0.4,4.6,1.7,4.7c3.9,0.9,4.1,9.6-2.3,9.6c-4.9,0-8.3-2.1-9.6-6.1
		c-2.4,4.6-6.7,6.9-12.5,6.9c-8.5,0-15.3-6.4-15.3-17.5c0-9.4,7.4-17.5,19.1-17.5c11.9,0,19,8,19,17.8
		C303.5,409.9,303.5,412,303.5,412z M284.6,401.2c-4,0-7.9,2.8-7.9,8.4c0,5.5,3.9,8.5,7.9,8.5c4.1,0,7.9-2.8,7.9-8.5
		C292.5,404,288.7,401.2,284.6,401.2z M308.4,373.7c0-6.4,10.9-6.4,10.9,0v24.6c2.4-3.9,6.5-5.8,11.9-5.8c8.5,0,15.3,6.4,15.3,17.5
		c0,9.4-7.4,17.4-19.1,17.4c-11.9,0-19-7.9-19-17.7C308.4,409.7,308.4,373.7,308.4,373.7z M327.5,418.4c4,0,7.9-2.8,7.9-8.4
		c0-5.5-3.9-8.5-7.9-8.5c-4.1,0-8,2.8-8,8.5C319.5,415.6,323.3,418.4,327.5,418.4z M350.1,373.9c0-6.4,10.9-6.4,10.9,0V412
		c0,3.3,0.3,4.6,1.6,4.7c3.9,0.9,4.2,9.6-2.3,9.6c-6.4,0-10.2-3.6-10.2-10.2V373.9 M377.1,411.8c0.9,3.4,4.3,6.1,10.1,6.1
		c3.9,0,5.5-0.9,7.3-1.2c3.8-0.6,5.7,1.6,5.8,4c0.1,1.7-0.9,3.2-2.3,4.3c-1.7,1.1-3.6,1.5-5.8,1.8c-2.3,0.3-4.6,0.5-6.9,0.5
		c-11.5,0-19.7-6.6-19.7-17.4c0-11.1,8.2-17.8,18.6-17.8c10.6,0,16.4,6.2,16.4,11.9c0,6.7-5.3,9.9-13.7,9.9
		C383.7,413.9,380.3,413.2,377.1,411.8z M377.5,406.6c1.3,0.6,2.6,1,3.8,1.2c5.3,0.9,8.5-0.6,9.1-2.5c0.6-1.9-1.6-3.9-6-3.9
		C381.4,401.4,378.7,403.5,377.5,406.6L377.5,406.6z M405.6,423.5c0-1.7,1.5-2.9,3-2.9s3,1.2,3,2.9c0,1.8-1.5,2.9-3,2.9
		S405.6,425.3,405.6,423.5 M427.7,426.2c-1.1,0.4-2.3,0.6-3.7,0.6c-6.3,0-9.9-4.1-9.9-9c0-4.9,3.6-9.2,9.9-9.2
		c2.2,0,4.8,0.8,6.5,2.4c0.5,0.5,0.8,1.1,0.8,1.6c0,1.5-1,2.7-2.6,2.7c-0.8,0-1.1-0.2-2-0.9c-0.7-0.6-1.6-0.9-2.6-0.9
		c-2,0-4.1,1.5-4.1,4.3c0,2.5,2.1,4.1,4.1,4.1c1.1,0,2.3-0.3,3.2-0.9c0.5-0.3,1-0.5,1.4-0.5c1.4,0,2.5,1.2,2.5,2.5
		C431,424.6,429.2,425.7,427.7,426.2 M441.9,426.7c-6.1,0-9.9-3.9-9.9-9.1c0-5.2,3.8-9.1,9.9-9.1c6.1,0,9.9,3.9,9.9,9.1
		S447.9,426.7,441.9,426.7z M441.9,413.3c-2.5,0-4.1,1.9-4.1,4.4c0,2.5,1.6,4.4,4.1,4.4c2.5,0,4.1-2,4.1-4.4
		C446,415.2,444.3,413.3,441.9,413.3z M474,416.5c0-2.1-1-2.8-2.3-2.8c-1.2,0-2.3,0.7-2.3,2.8v7.1c0,1.7-1.5,2.7-2.8,2.7
		c-1.3,0-2.8-0.9-2.8-2.7v-7.1c0-2.1-1-2.8-2.3-2.8s-2.3,0.7-2.3,2.8v7.1c0,1.7-1.5,2.7-2.9,2.7c-1.3,0-2.7-0.9-2.7-2.7v-7.1
		c0-6.7,3.3-8,7.7-8c2.4,0,4.4,1.2,5.2,3.3c0.8-2.1,3-3.3,5.2-3.3c4.5,0,7.7,1.3,7.7,8v7.1c0,1.7-1.5,2.7-2.9,2.7
		c-1.3,0-2.8-0.9-2.8-2.7L474,416.5"/>
	<text transform="matrix(1 0 0 1 -36 419.9867)" class="st1 st2 st3">cable</text>
</g>
<text transform="matrix(1 0 0 1 115 419.9867)" class="st0 st2 st4">deal</text>
</svg>
