<svg xmlns="http://www.w3.org/2000/svg" viewBox="0 0 300.03 101.34"><defs><clipPath id="a"><path fill="none" d="M.03.01h300v101.31H.03z"/></clipPath></defs><title>ATT Uverse Logo</title><g data-name="Layer 2"><g data-name="Layer 1"><g data-name="Layer 2"><g data-name="Layer 1-2"><g clip-path="url(#a)" data-name="AT T U-verse"><path d="M47.16 101.27a51.71 51.71 0 0 1-23.93-8.07A54.08 54.08 0 0 1 7.67 77.31a50.62 50.62 0 0 1-1.83-50.06A51.16 51.16 0 0 1 45.29.27a74.94 74.94 0 0 1 10.92 0 51.34 51.34 0 0 1 21.2 7.34A52.12 52.12 0 0 1 97 30a50.82 50.82 0 0 1-39.28 70.9 78.66 78.66 0 0 1-10.56.37z" fill="#fff"/><path d="M58.27 100.86a50.86 50.86 0 0 0 18.47-6.63A52.93 52.93 0 0 0 88 85.06l1.54-1.73-1.73 1.43c-7.65 6.33-17.41 10.3-29.2 11.88A117.78 117.78 0 0 1 42.3 97a56.25 56.25 0 0 1-20.53-5.43c-3.42-1.7-3.22-1.42 1 1.43 7 4.7 14.1 7.17 23.65 8.29a90.67 90.67 0 0 0 11.85-.43z" fill="#32a4da"/><path d="M61.86 92.83c11.62-1.61 22-6.36 29.52-13.52a21.46 21.46 0 0 0 5.3-7.16 61.28 61.28 0 0 0 3.16-8.47 13.24 13.24 0 0 0-1.28 1.79c-7.33 11.14-24.39 18.62-48.72 21.36a94.83 94.83 0 0 1-16.36-.43c-8.71-1.33-15-3.55-20.68-7.34A37.9 37.9 0 0 1 5 71.57a4.84 4.84 0 0 0-.87-1.14 5.21 5.21 0 0 0 .49 1.32c1.93 4.24 6.56 9 12 12.23 6.54 3.93 19.84 8 29.31 8.93l3.06.32a113 113 0 0 0 12.87-.4z" fill="#32a4da"/><path d="M65.55 78.82C81.1 76.71 92.31 71 98.34 62.08a30 30 0 0 0 1.62-3c1.31-2.72 1.67-5.09 1.49-10a34.38 34.38 0 0 0-.32-4.22c-.14-.47-.2-.52-.21-.19a19.72 19.72 0 0 1-1.5 4.33c-1.86 3.66-6 7.82-10.68 10.72C81.81 64 73.23 67 60 69.73c-17.19 3.48-26.83 3.18-40.1-1.26C10.39 65.29 3.29 59 .73 51.61l-.7-2v2a12.21 12.21 0 0 0 1.27 6.28c2.47 5 8.64 10.15 16.23 13.55 7.27 3.25 20.26 6.5 30.92 7.72a99.41 99.41 0 0 0 17.11-.3z" fill="#32a4da"/><path d="M69.88 59.83c14.5-2.17 24.07-7.28 28.15-15a12.22 12.22 0 0 0 1.71-6.51 34.6 34.6 0 0 0-2.7-8.4l-1.1-2.49-.12 1.48c-.27 3.37-1.91 6.06-5.48 9C85.4 42 75.76 46.19 63.83 49.46c-15.23 4.18-29.9 4.22-42.39.12C13.56 47 7.37 42.6 5 38a12.23 12.23 0 0 1-1.29-4.27L3.5 32l-.82 2.43c-1.11 3.3-1.24 5.17-.46 6.86 1.62 3.54 5.54 7.3 10.34 9.9 9 4.87 23.18 8 40.54 9a109.78 109.78 0 0 0 16.78-.36z" fill="#32a4da"/><path d="M64.5 39.11c14.35-1 24.09-4.81 27.18-10.69 1.46-2.78 1.47-5.17 0-7.54a36.18 36.18 0 0 0-4.68-5.7l-1.28-1.26v.84c0 1.29-.7 2.54-2.26 4.08a25 25 0 0 1-7.32 4.79c-14.47 7-35.43 9.56-48.76 6.06-4.45-1.17-7.74-2.87-10.14-5.24-2.07-2-2.74-3.44-2.73-5.72a5.65 5.65 0 0 1 .86-3.44l.86-1.73L14.74 15c-3.13 3.07-6.54 7.59-6.81 9-.43 2.28 2.86 5.49 8.23 8 5.76 2.74 12 4.34 21.72 5.57 11.57 1.54 19.88 2 26.62 1.54z" fill="#32a4da"/><path d="M58.27 20c9.66-1.14 17.36-3.85 20.1-7a4.18 4.18 0 0 0 1.11-3.18C79 7.54 70.27 3.18 62.6 1.35A44.93 44.93 0 0 0 50.78 0a47.11 47.11 0 0 0-16.67 2.77C29 4.49 22.79 7.91 21.45 9.66A3.32 3.32 0 0 0 21 13c1.68 3.55 10.33 6.49 21.73 7.39A154.48 154.48 0 0 0 58.27 20" fill="#32a4da"/><path d="M149.8 54.11V27.93H142v25.9a7.43 7.43 0 0 1-1.87 5.4 6.73 6.73 0 0 1-5.06 1.93 6.64 6.64 0 0 1-5-1.93 7.49 7.49 0 0 1-1.85-5.4v-25.9h-7.78v26.18a14 14 0 0 0 1.15 5.76 13.14 13.14 0 0 0 3.13 4.39 14.31 14.31 0 0 0 4.64 2.83 16.83 16.83 0 0 0 11.47 0 14.32 14.32 0 0 0 4.64-2.83 13.12 13.12 0 0 0 3.13-4.39 14 14 0 0 0 1.2-5.76zm4.72-5.71h17.23v6.77h-17.23zm44.41-9.79h-7.67l-5.87 18.02-5.93-18.02h-7.67l10.74 29.15h5.71l10.69-29.15zm24.76 16.84v-3.24a17.68 17.68 0 0 0-.84-5.57 12.48 12.48 0 0 0-2.46-4.39 11.47 11.47 0 0 0-4-2.91 14.2 14.2 0 0 0-10.57-.08 11 11 0 0 0-4 2.88 13.3 13.3 0 0 0-2.6 4.67 20.06 20.06 0 0 0-.92 6.35 19.91 19.91 0 0 0 1.15 7.3 12.17 12.17 0 0 0 3 4.59 10.44 10.44 0 0 0 4.31 2.38 18.73 18.73 0 0 0 5 .67 18.31 18.31 0 0 0 3.52-.31 13.36 13.36 0 0 0 2.88-.89 12.69 12.69 0 0 0 2.43-1.43 20.94 20.94 0 0 0 2.24-2l-4.42-4.31a10.39 10.39 0 0 1-2.8 2.07 8.92 8.92 0 0 1-3.8.67 6.06 6.06 0 0 1-4.73-1.82 6.68 6.68 0 0 1-1.65-4.67zm-7.16-5h-11.07a12.11 12.11 0 0 1 .2-1.65 7.5 7.5 0 0 1 .48-1.48 5.61 5.61 0 0 1 1.86-2.15 5.8 5.8 0 0 1 6.1 0 5.61 5.61 0 0 1 1.82 2.15 7.5 7.5 0 0 1 .48 1.48 12 12 0 0 1 .17 1.67zm31.8-9.45a9 9 0 0 0-3.13-2.13 10.53 10.53 0 0 0-3.75-.62 10 10 0 0 0-4.31.92 8.58 8.58 0 0 0-3 2.21v-2.77H227v29.15h7.27V50.19a6.24 6.24 0 0 1 .42-2.41 5.12 5.12 0 0 1 1.09-1.68 4.15 4.15 0 0 1 1.51-1 4.84 4.84 0 0 1 1.68-.31 4.63 4.63 0 0 1 2.18.45 7.18 7.18 0 0 1 1.68 1.29zM273 58.58a8.09 8.09 0 0 0-2.15-5.9q-2.15-2.21-6.52-2.66l-4.59-.45a4.16 4.16 0 0 1-1.54-.34 3.31 3.31 0 0 1-.92-.62 1.67 1.67 0 0 1-.45-.76 3.15 3.15 0 0 1-.11-.81 2.52 2.52 0 0 1 1-2 4.82 4.82 0 0 1 3.16-.84 16.1 16.1 0 0 1 3.69.42 7.06 7.06 0 0 1 3.08 1.54l4.48-4.53a11.38 11.38 0 0 0-5-2.62 24.65 24.65 0 0 0-6.21-.73 14.75 14.75 0 0 0-4.28.62 11.13 11.13 0 0 0-3.58 1.79 8.84 8.84 0 0 0-2.46 2.91 8.33 8.33 0 0 0-.92 4q0 4 2.27 5.9a11.3 11.3 0 0 0 6.24 2.27l4.59.45a3.82 3.82 0 0 1 2.41.87 2.52 2.52 0 0 1 .67 1.82 2.17 2.17 0 0 1-.45 1.4 3.46 3.46 0 0 1-1.18.92 6.11 6.11 0 0 1-1.65.53 10.52 10.52 0 0 1-1.87.17 18 18 0 0 1-3.83-.48 8 8 0 0 1-3.88-2.31l-4.76 4.75a13.08 13.08 0 0 0 2.85 2.21 14.22 14.22 0 0 0 3 1.26 16.86 16.86 0 0 0 3.19.59q1.62.14 3.36.14a19.19 19.19 0 0 0 4.84-.59 12.13 12.13 0 0 0 3.94-1.76 8.36 8.36 0 0 0 2.63-3 8.81 8.81 0 0 0 .95-4.16zm27-3.13v-3.24a17.68 17.68 0 0 0-.84-5.57 12.48 12.48 0 0 0-2.46-4.39 11.47 11.47 0 0 0-4-2.91 14.2 14.2 0 0 0-10.57-.08 11 11 0 0 0-4 2.88 13.3 13.3 0 0 0-2.6 4.67 20.06 20.06 0 0 0-.92 6.35 19.91 19.91 0 0 0 1.15 7.3 12.17 12.17 0 0 0 3 4.59 10.44 10.44 0 0 0 4.31 2.38 18.73 18.73 0 0 0 5 .67 18.31 18.31 0 0 0 3.52-.31 13.36 13.36 0 0 0 2.88-.89 12.69 12.69 0 0 0 2.43-1.43 20.94 20.94 0 0 0 2.24-2l-4.42-4.31a10.39 10.39 0 0 1-2.8 2.07 8.92 8.92 0 0 1-3.8.67 6.06 6.06 0 0 1-4.73-1.82 6.68 6.68 0 0 1-1.65-4.67zm-7.16-5h-11.05a12.25 12.25 0 0 1 .2-1.65 7.51 7.51 0 0 1 .48-1.48 5.61 5.61 0 0 1 1.82-2.15 5.8 5.8 0 0 1 6.1 0 5.61 5.61 0 0 1 1.82 2.15 7.5 7.5 0 0 1 .48 1.48 12 12 0 0 1 .19 1.65" fill="#010101"/></g></g></g></g></g></svg>