<svg xmlns="http://www.w3.org/2000/svg" viewBox="0 0 300 88.82"><title>Asset 11</title><g data-name="Layer 2"><path d="M15.36 88.64l-1.73-4.89H4.19l-1.73 4.89H0L8 67h1.89l7.92 21.61zM9 70.34L4.89 81.75H13zm19.25 18.48c-4.37 0-7.53-3-7.53-7.31V67H23v14.33c0 3.28 2.06 5.43 5.22 5.43s5.25-2.15 5.25-5.43V67h2.33v14.51c0 4.31-3.18 7.31-7.55 7.31zM48.48 69.1v19.54h-2.3V69.1h-6.25V67h14.8v2.1zm23.08 19.54v-9.86H61.3v9.86H59V67h2.3v9.68h10.26V67h2.31v21.64zm20.57-2.06a7.91 7.91 0 0 1-11 0c-2-2-2-4.16-2-8.74s0-6.71 2-8.74a7.91 7.91 0 0 1 11 0c2 2 2 4.16 2 8.74s.03 6.71-2 8.74zm-1.79-16.11a5.27 5.27 0 0 0-7.46 0c-1.37 1.4-1.52 2.85-1.52 7.37s.15 6 1.52 7.37a5.27 5.27 0 0 0 7.46 0c1.37-1.4 1.52-2.85 1.52-7.37s-.15-5.98-1.52-7.37zm21.42 18.17l-4.92-9.59h-5.19v9.59h-2.3V67h8.28c3.76 0 6.4 2.28 6.4 6a5.61 5.61 0 0 1-4.7 5.8l5.13 9.8zm-4.34-19.54h-5.77V77h5.77c2.52 0 4.31-1.3 4.31-3.95s-1.79-3.95-4.31-3.95zm11.7 19.54V67h2.31v21.64zm6.94 0v-2.18l10.8-17.36h-10.38V67h13v2l-10.89 17.6h10.89v2.06zm18.08 0V67h13.41v2.1h-11.1v7.62h9.47v2.06h-9.47v7.8h11.11v2.06zm30.92-2a7.55 7.55 0 0 1-5.46 2h-7.4V67h7.4a7.55 7.55 0 0 1 5.46 2c2.25 2.25 2.12 5.55 2.12 8.56s.12 6.83-2.12 9.08zm-1.61-16a5.62 5.62 0 0 0-4.25-1.58h-4.7v17.52h4.7a5.62 5.62 0 0 0 4.25-1.58c1.49-1.55 1.43-4.76 1.43-7.4s.06-5.38-1.43-6.92zm29.55 16a7.55 7.55 0 0 1-5.46 2h-7.4V67h7.4a7.55 7.55 0 0 1 5.46 2c2.25 2.25 2.12 5.55 2.12 8.56s.16 6.83-2.12 9.08zm-1.61-16a5.62 5.62 0 0 0-4.25-1.58h-4.7v17.52h4.7a5.62 5.62 0 0 0 4.28-1.58c1.49-1.55 1.43-4.76 1.43-7.4s.06-5.38-1.43-6.92zm8.89 18V67h13.42v2.1h-11.11v7.62h9.47v2.06h-9.47v7.8h11.11v2.06zm32.03 0l-1.73-4.89h-9.44l-1.73 4.89H227l8-21.61h1.94l7.92 21.61zm-6.4-18.3l-4.07 11.41h8.07zm12.86 18.3V67h2.31v19.58h11v2.06zm17.62 0V67h13.41v2.1h-11.11v7.62h9.47v2.06h-9.47v7.8h11.11v2.06zm30.46 0l-4.92-9.59h-5.19v9.59h-2.31V67h8.28c3.76 0 6.4 2.28 6.4 6a5.61 5.61 0 0 1-4.7 5.8l5.13 9.8zm-4.34-19.54h-5.77V77h5.77c2.52 0 4.31-1.3 4.31-3.95s-1.82-3.95-4.31-3.95zM35.4 51c-3.69 3.7-9 5.35-14.76 5.35H.45V.44h20.19c5.8 0 11.07 1.65 14.76 5.34 6.28 6.28 5.65 14 5.65 22.38S41.68 44.73 35.4 51m-7.62-37.37c-1.89-2.28-4.4-3.46-8.17-3.46h-8.24v36.44h8.24c3.77 0 6.28-1.18 8.17-3.46 2-2.52 2.35-6.52 2.35-15s-.31-12-2.35-14.53M51.15.47h10.9v55.88h-10.9zm51.57 55.88l-10.9-22.3H84v22.3H73.06V.47H95c11.37 0 18.12 7.77 18.12 17.11a15 15 0 0 1-10.2 14.68l12.48 24.1zM94.24 10.2H84V25h10.24c4.79 0 7.93-3.06 7.93-7.38S99 10.2 94.24 10.2m28.15 46.15V.47h36.8v9.73H133.3v13.11h22.05v9.73H133.3v13.57h25.89v9.74h-36.8zm63.47.47a20.47 20.47 0 0 1-15.06-6.12 16.11 16.11 0 0 1-4.55-8.4 76.22 76.22 0 0 1-.94-13.89 76.15 76.15 0 0 1 .94-13.89 15.76 15.76 0 0 1 4.55-8.39A20.44 20.44 0 0 1 185.86 0c10.76 0 18.68 6.28 20.57 17.65h-11.08c-1.18-4.78-4.15-7.92-9.41-7.92a8.62 8.62 0 0 0-7 2.9c-2.27 2.44-2.74 4.94-2.74 15.78s.47 13.34 2.74 15.78a8.65 8.65 0 0 0 7 2.9c5.26 0 8.23-3.14 9.41-7.92h11.07c-1.88 11.38-9.89 17.66-20.57 17.66m49.06-46.63v46.15H224V10.2h-14.6V.47h40.1v9.73h-14.59zm46.57 46.15h-8.16L254.88.47h11.29l11.23 36.41L288.62.47H300l-18.52 55.88z" data-name="Layer 1"/></g></svg>