<svg xmlns="http://www.w3.org/2000/svg" viewBox="0 0 300 82.62"><title>Centurylink Logo</title><path d="M5.42 47.76a30.6 30.6 0 0 0 7.34 7.34l10-17.37-17.37 10m7.37-42.31a30.41 30.41 0 0 0-7.34 7.34l17.37 10-10-17.37M43 2.68A30.1 30.1 0 0 0 33 0v20.05L43 2.68M17.5 57.84a30.25 30.25 0 0 0 10 2.69V40.46l-10 17.37m37.6-45.07a30.42 30.42 0 0 0-7.34-7.34l-10 17.37 17.37-10M47.76 55.1a30.55 30.55 0 0 0 7.34-7.34l-17.37-10 10 17.37" fill="#8dc641"/><path d="M60.52 27.52a30.34 30.34 0 0 0-2.68-10l-17.37 10h20.05M0 33a30.18 30.18 0 0 0 2.68 10l17.38-10H0m2.68-15.51A30.22 30.22 0 0 0 0 27.52h20.06l-17.38-10M40.47 33l17.37 10a30.13 30.13 0 0 0 2.68-10H40.47M27.53 0a30 30 0 0 0-10 2.68l10 17.37V0M33 60.52a30.23 30.23 0 0 0 10-2.69L33 40.46v20.06M53.21 3.65a3.66 3.66 0 1 1 3.67 3.67 3.66 3.66 0 0 1-3.67-3.67zm6.73 0a3.08 3.08 0 0 0-6.15 0 3.07 3.07 0 1 0 6.15 0zM56 5.72h-.5V1.54h1.8c1.09 0 1.46.41 1.46 1.16s-.56 1.1-1.29 1.16l1.24 1.86h-.6l-1.18-1.86H56zm.74-2.35c.59 0 1.4.1 1.4-.69 0-.58-.49-.66-1-.66H56v1.35z" fill="#028644"/><path d="M95.38 23.5c-.2-2.67-3.05-4.44-5.91-4.44-6.88 0-8.16 6.3-8.16 11.21 0 5.76 1.74 11.19 7.81 11.19 3 0 5.68-1.47 6.14-4.44h4.06c-.38 4.67-5.1 7.76-10.54 7.76-8.23 0-11.51-6.71-11.51-14.52 0-6.84 3-14.8 12.35-14.53 5.37.16 9.39 2.78 9.81 7.76h-4.05M106.1 35.2c-.27 3.4 1.12 6.91 4.87 6.91 2.86 0 4.29-1.12 4.72-3.94h3.86c-.58 4.4-4 6.6-8.61 6.6-6.22 0-8.69-4.4-8.69-10.11s2.85-10.43 9-10.43c5.79.11 8.53 3.78 8.53 9.15v1.82H106.1m9.81-2.54c.07-3.25-1.4-5.76-4.95-5.76-3.05 0-4.87 2.59-4.87 5.76zm11.22-4.99h.08a6.73 6.73 0 0 1 5.87-3.44c1.35 0 7.34.35 7.34 6.57v13.4h-3.67V32c0-3.21-1.35-4.94-4.45-4.94a5 5 0 0 0-3.55 1.43c-.54.54-1.55 1.39-1.55 5.17V44.2h-3.67V24.81h3.6v2.86m19.09-2.86v-4.12l3.67-1.16v5.28h4.48v2.66h-4.48v12.45c0 1.38 1.08 2 2.4 2a8.44 8.44 0 0 0 1.92-.23v2.82c-.84 0-1.66.23-2.5.23a13.68 13.68 0 0 1-2.47-.19 3.47 3.47 0 0 1-2.16-1.28c-.66-.93-.85-1-.85-3.59V27.47h-3.33v-2.66h3.32m24.28 0h3.66V44.2h-3.59v-2.85h-.08a7.36 7.36 0 0 1-6.64 3.43c-4.06 0-6.38-3.08-6.38-7v-13h3.67v11.5c0 3.36.77 5.83 4.29 5.83a4.61 4.61 0 0 0 4.33-2.78 14.39 14.39 0 0 0 .73-4.56v-10m12.25 19.43h-3.67V24.81h3.67v3.74h.08c.54-2.66 3-4 5.68-4h1.27v3.47a4.56 4.56 0 0 0-1.58-.19c-4.64.15-5.45 2.62-5.45 6.72v9.65m17.88 7.42h-3.75l2.93-7.49-8.06-19.31h4.08l6.07 15.29 6.19-15.29h3.93l-11.39 26.8m14.14-7.42V16.31h5.99v23.26h12.09v4.63h-18.08m21.51-27.89h6.18v5h-6.18zm.19 8.5h5.79V44.2h-5.79zm17.1 2.24l.08.12a6.61 6.61 0 0 1 6-2.94c1.93 0 5.68 1.42 6.37 4.25a13.27 13.27 0 0 1 .39 3.09V44.2h-5.8V32.54c0-2.09-.62-4.44-3.48-4.44-1.82 0-3.4 1.62-3.48 4.44V44.2h-5.79V24.81h5.75v2.24m24.15 5.61l.07.07 5.72-8.14h6.45l-6.69 8.49 7.11 11.12h-6.76l-5.83-10.62-.07.08V44.2h-5.79V16.31h5.79v16.35m14.93-4.43a3.66 3.66 0 1 1 3.67 3.67 3.66 3.66 0 0 1-3.67-3.67zm6.73 0a3.07 3.07 0 1 0-3.07 3.09 3 3 0 0 0 3.08-3.09zm-3.9 2.07H295v-4.18h1.8c1.09 0 1.46.41 1.46 1.16s-.57 1.11-1.29 1.17l1.24 1.86h-.6l-1.18-1.86h-.9zm.74-2.35c.59 0 1.4.1 1.4-.69 0-.58-.49-.66-1-.66h-1.15V28z"/><path d="M80.37 78.93L85.87 65h1.46l5.54 13.89H91.5L90 75.18h-6.88l-1.46 3.75zM89.58 74l-3-7.83L83.52 74zm11.11-4.73h1.15v7.48c0 .75.06 1.52.1 2.17h-1.19l-.06-1.42a3.32 3.32 0 0 1-3 1.75c-3.15 0-3.4-2.79-3.4-3.9v-6h1.15v6.15a2.39 2.39 0 0 0 2.54 2.66c1.9 0 2.77-1.6 2.77-3.33zm4.77 1.06h-1.92v-1.06h1.92v-2.05l1.15-.5v2.56h2.19v1.06h-2.19v6.46a1.19 1.19 0 0 0 1.33 1.37 3.42 3.42 0 0 0 1-.12v1a4.71 4.71 0 0 1-1.17.17c-2.44 0-2.31-1.56-2.31-2.87zm6.37.41a3.32 3.32 0 0 1 3-1.75c3.15 0 3.4 2.79 3.4 3.91v6h-1.15v-6.2a2.39 2.39 0 0 0-2.48-2.7c-1.9 0-2.77 1.6-2.77 3.33v5.56h-1.15V65h1.15zm17.55 3.36c0 2.54-1.42 5.12-4.5 5.12s-4.5-2.58-4.5-5.12 1.42-5.1 4.5-5.1 4.5 2.56 4.5 5.1zm-4.5-4.1c-2.33 0-3.25 2.27-3.25 4.06s.92 4.06 3.25 4.06 3.25-2.27 3.25-4.06-.92-4.06-3.25-4.06zm7.75 8.93h-1.15v-7.48c0-.75-.06-1.52-.1-2.18h1.19l.06 1.43a2.49 2.49 0 0 1 2.21-1.7h1.15v1.12c-.23 0-.48-.08-.71-.08-1.71 0-2.62 1.23-2.65 3.08zm6.26-12.45h-1.35V65h1.35zm-.1 2.79v9.66h-1.16v-9.66zm1.84 8.6l5.64-7.54h-5.64v-1.06h7v1.06L142 77.87h5.6v1.06h-7zm9.3-3.5c0 2.06 1 3.79 3.35 3.79a2.88 2.88 0 0 0 2.79-2.31h1.21a4.05 4.05 0 0 1-4.37 3.36c-2.89 0-4.23-2.48-4.23-5.12S150.13 69 153 69c3.23 0 4.4 2.37 4.4 5.39zm6.21-1.06C156 71.45 155 70 153 70s-2.89 1.58-3 3.27zm10.26 4.2v-.08a3.92 3.92 0 0 1-3.31 1.79c-2.87 0-4-2.73-4-5.16s1.1-5.08 4-5.08a3.86 3.86 0 0 1 3.31 1.75V65h1.15v11.76c0 .75.06 1.52.1 2.17h-1.19zM163.25 70c-2.19 0-2.9 2-2.9 3.89s.52 4.23 2.73 4.23c2.52 0 3.29-2.1 3.29-4.29-.01-1.92-.87-3.83-3.12-3.83zm16.25 9.22a4 4 0 0 1-4.14-3.9h1.35c0 2.14 1.62 2.75 3.48 2.75 1.56 0 3.35-.9 3.35-2.67 0-1.39-1-2-2.17-2.43-2.25-.75-5.68-1.46-5.68-4.46 0-2.42 2.23-3.75 4.43-3.75 1.83 0 4.21.63 4.52 3.31h-1.35c0-1.71-1.6-2.15-3-2.15s-3.23.73-3.23 2.42c0 3.94 7.85 2.15 7.85 6.94-.02 3.01-2.62 3.94-5.41 3.94zm13.5-7.1c-.12-1.58-.92-2.08-2.29-2.08-1.21 0-2.21.37-2.37 1.67h-1.23c.29-2 1.77-2.73 3.62-2.73 2.14 0 3.46 1 3.42 3.19v4.58c0 .75.06 1.52.1 2.17h-1.19V77.5l-.06.14a3.62 3.62 0 0 1-3 1.58 3 3 0 0 1-3.21-3 3 3 0 0 1 1.94-2.79c1.29-.56 3-.37 4.37-.44zm-2.89 6c2.52 0 3-2.08 2.89-4.1-1.63.06-5.06-.25-5.06 2.18a1.93 1.93 0 0 0 2.18 1.96zm7.89.81h-1.15V65H198zm3.42-4.56c0 2.06 1 3.79 3.35 3.79a2.88 2.88 0 0 0 2.79-2.31h1.21a4.05 4.05 0 0 1-4.37 3.36c-2.89 0-4.23-2.48-4.23-5.12s1.44-5.09 4.3-5.09c3.23 0 4.41 2.37 4.41 5.39zm6.21-1.06c-.13-1.86-1.13-3.27-3.13-3.27s-2.89 1.58-3 3.27zm6.68-4.31c1.83 0 3.37.63 3.52 2.67h-1.25c-.12-1.21-1.19-1.62-2.38-1.62s-2.2.42-2.2 1.55c0 1.42 1.87 1.29 4.48 2.21a2.35 2.35 0 0 1 1.63 2.25c0 2.17-2 3.15-4.06 3.15-1.67 0-3.6-.79-3.64-2.92h1.25c.1 1.44 1.37 1.87 2.67 1.87s2.52-.58 2.52-1.92-1.52-1.62-3.06-2-3.06-.81-3.06-2.6c.04-1.96 1.89-2.64 3.58-2.64zm10.38 9.93L230.2 65h1.46l5.54 13.89h-1.37l-1.48-3.75h-6.91L226 78.93zm9.21-4.9l-3-7.83-3.05 7.8zm11.47-4.76h1.19c0 .65-.1 1.43-.1 2.18v5.79c0 1.92.1 3.94-2 4.94a4.4 4.4 0 0 1-2.19.44c-1.75 0-3.83-.59-3.83-2.6h1.25c.13 1.16 1.5 1.54 2.73 1.54a2.81 2.81 0 0 0 2.92-2.67v-1.81a3.53 3.53 0 0 1-3.13 1.81c-2.91 0-4.15-2.21-4.15-4.87s1.17-5 4.12-5a3.69 3.69 0 0 1 3.17 1.79v-.08zm-3.16.77c-2.1 0-3 2.11-3 3.89s.9 3.9 3 3.9 3.06-2.06 3.06-3.94-.98-3.89-3.06-3.89zm7.6 4.33c0 2.06 1 3.79 3.35 3.79a2.88 2.88 0 0 0 2.79-2.31h1.21a4.05 4.05 0 0 1-4.37 3.36c-2.89 0-4.23-2.48-4.23-5.12S250 69 252.87 69c3.23 0 4.4 2.37 4.4 5.39zm6.19-1.06c-.14-1.86-1.13-3.27-3.14-3.27s-2.89 1.58-3 3.27zm4.64 5.62h-1.15v-7.48c0-.75-.06-1.52-.1-2.18h1.19l.06 1.43a3.32 3.32 0 0 1 3-1.75c3.15 0 3.4 2.79 3.4 3.91v6H266V72.7a2.39 2.39 0 0 0-2.59-2.7c-1.9 0-2.77 1.6-2.77 3.33zm9.81-8.6h-1.92v-1.06h1.92v-2.05l1.16-.5v2.56h2.19v1.06h-2.2v6.46a1.19 1.19 0 0 0 1.33 1.37 3.44 3.44 0 0 0 1-.12v1a4.74 4.74 0 0 1-1.17.17c-2.44 0-2.31-1.56-2.31-2.87z" fill="#8ac542"/></svg>