<svg xmlns="http://www.w3.org/2000/svg" viewBox="0 0 322.01 103.56"><title>Spectrum Logo</title><path fill="#143257" d="M0 36.4h10.08c.15.18.24.23.26.31 1.07 4.91 3.53 7.11 8.55 7.79a17.72 17.72 0 0 0 8.2-.61 5.55 5.55 0 0 0 4-5c.26-2.47-1.18-3.91-3.1-5-3.23-1.84-6.83-2.54-10.39-3.39-2.73-.65-5.45-1.36-8.12-2.2-5-1.57-7.77-5.1-8.5-10.18-.89-6.23.79-11.69 6.12-15.07A19.4 19.4 0 0 1 15 .39a32 32 0 0 1 13.27.66C35.06 3 39.78 9.35 39.36 16h-9.68c-1-4.61-3.27-6.8-8-7.22a22.56 22.56 0 0 0-6.22.35 6.4 6.4 0 0 0-3.23 2 4.55 4.55 0 0 0 1.16 7.37 22.15 22.15 0 0 0 4.7 1.87c4.28 1.26 8.61 2.33 12.88 3.6 6.52 1.94 9.95 5.91 10.26 11.69.42 7.68-2.76 13.24-9.13 15.86-5.1 2.1-10.44 2.18-15.81 1.64a19.13 19.13 0 0 1-10.35-3.98A15.63 15.63 0 0 1 .31 39.3C.23 38.86.1 38.44 0 38zm267.56-20.6c4.93-3.65 10.44-3.94 16.1-3.39a21.9 21.9 0 0 1 8.55 2.5 21.38 21.38 0 0 1 3.1 2.09 5.18 5.18 0 0 1 2 4.39c-.1 9.78 0 19.57 0 29.36v1.66c-2.27 0-4.41.16-6.53 0-2.72-.26-4.33-2.26-4.34-5.06V27.78a8.34 8.34 0 0 0-.4-3.16 6.62 6.62 0 0 0-2.14-2.94 8 8 0 0 0-8.18-.33c-2.5 1.22-3.21 3.59-3.22 6.18v24.86h-10.25v-25.1c0-4.44-2.41-6.8-6.93-6.8-4.24 0-6.8 2.58-6.8 6.88v25h-10.33c0-.43-.06-.86-.06-1.28 0-7.42-.05-14.83 0-22.25 0-4.72 1-9.17 4.73-12.52 3.33-3 7.44-4 11.76-4.08 4.63-.13 9.12.43 12.94 3.56zM53.42 50.28c0 3.75-.15 7.41 0 11.06.2 3.88-2.48 6.23-5.9 5.89-1.32-.13-2.66 0-4.06 0 0-.56-.07-1-.07-1.43 0-11.7-.09-23.41.06-35.11a30.37 30.37 0 0 1 1.44-8.26 12.71 12.71 0 0 1 7.68-8.26 24 24 0 0 1 14.82-1.35c6.31 1.47 10.41 5.35 12.09 11.58A29.84 29.84 0 0 1 79 42.43c-1.91 5.38-5.3 9.47-11.18 10.67a18 18 0 0 1-13-2.22c-.31-.18-.61-.38-.92-.55a2 2 0 0 0-.48-.05zm16.91-17.36a24.26 24.26 0 0 0-1.41-7.28c-1.25-3.22-4-4.58-7.35-4.51A6.81 6.81 0 0 0 54.74 26a27.22 27.22 0 0 0-1.25 7 13.51 13.51 0 0 0 1.66 7.74 7.64 7.64 0 0 0 7.26 3.92 7 7 0 0 0 6.46-4.24 16.58 16.58 0 0 0 1.46-7.5zm48.12 7.44c-1.35 5.2-4.25 8.93-9 11A20.64 20.64 0 0 1 94 52c-5.1-1.73-8.26-5.51-9.82-10.57a29.73 29.73 0 0 1-.3-16.43c2-7.66 7.31-12.06 15.21-12.59A19.82 19.82 0 0 1 111 14.84c5.09 3.06 7 8 7.77 13.54.31 2.24.3 4.52.44 7H93.75a7.7 7.7 0 0 0 6.63 9.15c3.65.34 7.12.19 9.08-3.71a1.15 1.15 0 0 1 .88-.41c2.66-.06 5.25-.05 8.11-.05zm-10-11.6c-.21-2.95-.93-5.52-3.53-7a7.59 7.59 0 0 0-8.26.35c-2.29 1.52-3 3.89-3.18 6.61zm126.63-15.57a6.21 6.21 0 0 1 .12.8c0 8.35.11 16.71-.1 25.06-.19 7.37-4.85 12.46-12.15 13.63a25.3 25.3 0 0 1-12.06-.68c-6.1-2-9.38-6.51-9.65-12.68-.37-8.65-.09-17.32-.09-26.09a10.13 10.13 0 0 1 1-.11h7.91c1 0 1.28.33 1.27 1.3v23.45c0 2.55.62 4.86 3 6.19a7.56 7.56 0 0 0 7.57.06c2.31-1.23 3.16-3.41 3.16-5.95V19.01a9.18 9.18 0 0 1 .46-2.75 4.13 4.13 0 0 1 3.83-3.06c1.86-.1 3.74-.01 5.73-.01zm-78.59 11.92h-9.5a1.4 1.4 0 0 1-.94-.69c-1.5-2.74-4-3.57-6.86-3.52a6.65 6.65 0 0 0-6.25 3.86 16.61 16.61 0 0 0-1.41 9.66 21.25 21.25 0 0 0 1.54 6.17c1.92 4.2 8.63 5.54 12.23 2.61a3.94 3.94 0 0 0 1.26-1.53c.43-1.17 1.2-1.32 2.28-1.29 2.62.07 5.25 0 8.07 0a16.89 16.89 0 0 1-4.91 8.29c-4.53 4.21-10.06 5.05-15.87 4.19-8-1.18-13.21-6.7-14.38-14.91A33 33 0 0 1 122.6 24c1.8-6.22 5.89-10.05 12.31-11.25 5.66-1.05 11-.53 15.8 3 2.94 2.25 5.4 6.25 5.78 9.36zm2.85-23.33c2.13 0 4.1-.09 6.05 0 2.31.13 3.9 2 4 4.56.08 1.78 0 3.57 0 5.36v1.62h6.08v3c0 2-.09 3.94 0 5.9.08 1.3-.41 1.6-1.6 1.53-1.46-.09-2.93 0-4.52 0v28.38a51.72 51.72 0 0 1-6 0c-2.08-.25-3.24-1.76-3.75-3.73a11.44 11.44 0 0 1-.41-2.77V2.88c.11-.35.13-.65.15-1.1zm38.72 11.17v10.52l-1.27.06c-1.07 0-2.15 0-3.21.09-5 .51-7.23 3-7.26 8v20.54H176c0-.49-.06-1-.06-1.43 0-5.94-.14-11.89.06-17.82a30.36 30.36 0 0 1 1.37-8.4c2.13-6.46 7.15-9.68 13.6-10.86 2.29-.38 4.62-.46 7.09-.7z"/><path fill="#0f99d6" d="M300.37 20.02v32.46l21.64-16.23-21.64-16.23z"/><path fill="#143257" d="M163.6 65.71h3.65l5.46 15.44h-3.5l-1-3.17h-5.68l-1 3.17h-3.37zm-.21 9.6h4l-1.95-6.07zm11.28-9.6h3.28v9.48a5.39 5.39 0 0 0 .38 2.32 3.14 3.14 0 0 0 5.08 0 5.39 5.39 0 0 0 .38-2.32v-9.48h3.28v9.49a8 8 0 0 1-.77 3.8q-1.42 2.51-5.43 2.51T175.43 79a8 8 0 0 1-.76-3.83zm26.71 0v2.73h-4.62v12.7h-3.25v-12.7h-4.64v-2.73zm1.86 15.44V65.71h3.2v5.89h6v-5.89h3.2v15.44h-3.2v-6.9h-6v6.89zm27.4-1.38a8 8 0 0 1-10.12 0 8.33 8.33 0 0 1-2.35-6.37q0-4.24 2.35-6.37a8 8 0 0 1 10.12 0q2.36 2.13 2.36 6.38a8.35 8.35 0 0 1-2.36 6.36zm-2-2.35a6.32 6.32 0 0 0 1.13-4 6.32 6.32 0 0 0-1.13-4 3.68 3.68 0 0 0-3-1.42 3.73 3.73 0 0 0-3.06 1.41 6.26 6.26 0 0 0-1.14 4 6.26 6.26 0 0 0 1.14 4 3.73 3.73 0 0 0 3.06 1.41 3.68 3.68 0 0 0 2.98-1.39zm16.69-11.31a3.81 3.81 0 0 1 1.44 1.08 4.76 4.76 0 0 1 .78 1.3 4.34 4.34 0 0 1 .29 1.62 4.62 4.62 0 0 1-.56 2.16 3.1 3.1 0 0 1-1.83 1.5A2.88 2.88 0 0 1 247 75a5.08 5.08 0 0 1 .45 2.41v1a7.72 7.72 0 0 0 .09 1.43 1.29 1.29 0 0 0 .6.88v.39h-3.56q-.15-.51-.21-.83a7.6 7.6 0 0 1-.14-1.33v-1.43a2.92 2.92 0 0 0-.51-2 2.61 2.61 0 0 0-1.84-.49h-3.15v6.05h-3.15V65.71h7.38a6.73 6.73 0 0 1 2.37.4zm-6.67 2.28v4.15h3.47a3.7 3.7 0 0 0 1.55-.25 1.74 1.74 0 0 0 .91-1.74 2 2 0 0 0-.88-1.89 3.2 3.2 0 0 0-1.49-.27zm15.2 12.76h-3.2V65.71h3.2zm1.93-2.73l7.89-10H256v-2.71h11.7v2.59l-8 10.13h8v2.72h-11.91zm25.61-9.98h-8.17v3.28h7.5v2.68h-7.5v4h8.55v2.78h-11.7V65.71h11.32zM293.33 66a5.09 5.09 0 0 1 2.67 2 6.84 6.84 0 0 1 1.1 2.49 12 12 0 0 1 .29 2.56 10.24 10.24 0 0 1-1.24 5.22 5.58 5.58 0 0 1-5.18 2.88h-6.66V65.71h6.66a8.12 8.12 0 0 1 2.36.29zm-5.91 2.35v10.11h3a3.22 3.22 0 0 0 3.19-2.25 7.94 7.94 0 0 0 .49-2.94 7.22 7.22 0 0 0-.74-3.62q-.74-1.26-2.94-1.26zm-91.74 19.77a3.82 3.82 0 0 1 1.45 1.08 4.8 4.8 0 0 1 .78 1.3 4.32 4.32 0 0 1 .29 1.62 4.62 4.62 0 0 1-.56 2.16 3.1 3.1 0 0 1-1.83 1.5 2.88 2.88 0 0 1 1.51 1.22 5.08 5.08 0 0 1 .45 2.41v1a7.72 7.72 0 0 0 .09 1.43 1.28 1.28 0 0 0 .6.88v.39h-3.56q-.15-.51-.21-.83a7.6 7.6 0 0 1-.14-1.33v-1.43a2.91 2.91 0 0 0-.51-2 2.6 2.6 0 0 0-1.84-.49H189v6.05h-3.15V87.72h7.38a6.72 6.72 0 0 1 2.45.4zM189 90.4v4.15h3.47a3.7 3.7 0 0 0 1.53-.25 1.74 1.74 0 0 0 .91-1.74 2 2 0 0 0-.88-1.89 3.2 3.2 0 0 0-1.49-.27zm23.7.06h-8.17v3.28H212v2.68h-7.5v4h8.55v2.78h-11.7V87.72h11.35zm5.21 7.93a3.14 3.14 0 0 0 .59 1.58 3.42 3.42 0 0 0 2.75 1 5.92 5.92 0 0 0 1.89-.25 1.8 1.8 0 0 0 1.38-1.79 1.32 1.32 0 0 0-.68-1.18 7.34 7.34 0 0 0-2.14-.75l-1.7-.39a10.4 10.4 0 0 1-3.39-1.18 3.76 3.76 0 0 1-1.56-3.34 4.43 4.43 0 0 1 1.53-3.45 6.51 6.51 0 0 1 4.48-1.37 6.88 6.88 0 0 1 4.21 1.29 4.6 4.6 0 0 1 1.83 3.75H224a2.21 2.21 0 0 0-1.25-2 4.26 4.26 0 0 0-1.92-.39 3.65 3.65 0 0 0-2 .5 1.59 1.59 0 0 0-.76 1.4 1.32 1.32 0 0 0 .75 1.24 9.32 9.32 0 0 0 2.05.64l2.71.64a6.88 6.88 0 0 1 2.67 1.12 3.78 3.78 0 0 1 1.38 3.15 4.43 4.43 0 0 1-1.64 3.51 6.9 6.9 0 0 1-4.62 1.4 7.55 7.55 0 0 1-4.79-1.38 4.55 4.55 0 0 1-1.75-3.79zm23.4-7.93h-8.17v3.28h7.5v2.68h-7.5v4h8.55v2.78H230V87.72h11.32zm2.89-2.74h3.23v12.66h7.71v2.78H244.2zm13.1 0h3.23v12.66h7.71v2.78H257.3zm24.52 2.74h-8.17v3.28h7.5v2.68h-7.5v4h8.55v2.78h-11.7V87.72h11.32zm12.78-2.34a3.81 3.81 0 0 1 1.4 1.08 4.76 4.76 0 0 1 .78 1.3 4.34 4.34 0 0 1 .29 1.62 4.62 4.62 0 0 1-.56 2.16 3.1 3.1 0 0 1-1.83 1.5 2.88 2.88 0 0 1 1.55 1.22 5.08 5.08 0 0 1 .45 2.41v1a7.72 7.72 0 0 0 .09 1.43 1.29 1.29 0 0 0 .6.88v.39h-3.57q-.15-.51-.21-.83a7.6 7.6 0 0 1-.14-1.33v-1.43a2.92 2.92 0 0 0-.51-2 2.61 2.61 0 0 0-1.84-.49h-3.15v6.05h-3.15V87.72h7.38a6.73 6.73 0 0 1 2.42.4zm-6.67 2.28v4.15h3.47a3.7 3.7 0 0 0 1.6-.25 1.74 1.74 0 0 0 .91-1.74 2 2 0 0 0-.88-1.89 3.2 3.2 0 0 0-1.49-.27z"/></svg>