<svg width="300" height="58" viewBox="0 0 300 58" xmlns="http://www.w3.org/2000/svg"><title>Buckeye Broadband Logo</title><g fill="none"><path d="M286.233 57.5h6.95c7.292 0 6.809-5.608 6.809-8.058 0-5-1.05-7.884-6.667-7.884H286.2l.033 15.942zm4.267-13.492h2.2c2.967 0 2.967 2.584 2.967 5.517 0 3.992-.509 5.517-3.109 5.517H290.5V44.008zM265.375 57.5V45.833h.058L271 57.5h5.625V41.583h-3.983v11.034h-.059l-5.425-11.034h-5.766V57.5h3.983zm-18.483-5.983h-4.067l1.95-6.892h.058l2.059 6.892zm-6.059 5.983l1.159-3.533h5.833l1.108 3.533h4.492l-5.542-15.917h-5.625l-5.65 15.917h4.225zm-18.258 0c1.808 0 6.3-.175 6.3-4.217 0-2.183-.792-3.708-3.817-4.041V49.2c2.317-.35 3.475-1.667 3.475-3.508 0-3.4-2.683-4.167-5.933-4.167H215V57.5h7.575zM219.3 44.008h2.625c1.442 0 2.5.834 2.5 2.034a2.041 2.041 0 0 1-2.233 2.033h-2.85l-.042-4.067zm0 6.509h2.5c2.15 0 2.825.833 2.825 2.275 0 2.225-2.033 2.25-2.942 2.25h-2.375l-.008-4.525zM191.85 57.5h6.95c7.292 0 6.808-5.608 6.808-8.058 0-5-1.041-7.884-6.666-7.884h-7.117l.025 15.942zm4.267-13.492h2.216c2.967 0 2.967 2.584 2.967 5.517 0 3.992-.508 5.517-3.108 5.517h-2.067l-.008-11.034zm-18.817 7.5h-4.067l1.95-6.891h.059l2.058 6.891zm-6.075 5.992l1.158-3.533h5.834l1.116 3.533h4.492l-5.542-15.917h-5.616L167.008 57.5h4.217zm-19.017.267c7.034 0 7.034-4.059 7.034-8.234s0-8.233-7.034-8.233c-7.033 0-7.033 4.017-7.033 8.233 0 4.217 0 8.234 7.033 8.234zm0-2.384c-2.4 0-2.716-1.766-2.716-5.833s.308-5.833 2.716-5.833c2.409 0 2.717 1.766 2.717 5.833s-.308 5.833-2.717 5.833zM127.9 50.917h1.1c3.275 0 3.05 1.608 3.05 3.508a5.834 5.834 0 0 0 .45 3.075h4.167c-.392-.658-.484-3.667-.484-4.683 0-2.867-2.766-3.05-3.7-3.134v-.041c2.767-.35 3.784-1.875 3.784-3.909 0-2.716-1.867-4.166-4.775-4.166h-7.884V57.5h4.267l.025-6.583zm0-6.884h1.892c1.358 0 2.175.575 2.175 2.1a2.108 2.108 0 0 1-2.175 2.342H127.9v-4.442zM108.125 57.5c1.808 0 6.3-.175 6.3-4.217 0-2.183-.792-3.708-3.817-4.041V49.2c2.317-.35 3.475-1.667 3.475-3.508 0-3.4-2.683-4.167-5.933-4.167h-7.575V57.5h7.55zm-3.275-13.492h2.65c1.442 0 2.458.834 2.458 2.034a2.042 2.042 0 0 1-2.233 2.033h-2.85l-.025-4.067zm0 6.509h2.5c2.15 0 2.825.833 2.825 2.275 0 2.225-2.033 2.25-2.942 2.25h-2.375l-.008-4.525zm-68.5-15.392A9.9 9.9 0 1 1 46.25 45c-5.458 0-9.886-4.417-9.9-9.875" fill="#11407A"/><path d="M4.025 26.525h.433a12.708 12.708 0 0 0 11.267-6.883 34.533 34.533 0 0 1 60.833-1.075 12.792 12.792 0 0 0 11.334 7.025h.316a4.167 4.167 0 1 1 0 8.25H87.9A20.883 20.883 0 0 1 69.317 22.5a26.292 26.292 0 0 0-46.267.958 20.9 20.9 0 0 1-18.583 11.3h-.342a4.117 4.117 0 0 1-.092-8.225" fill="#11407A"/><path d="M59.292 30.042a4.274 4.274 0 0 1-.25-.484 13.992 13.992 0 1 0-12.817 19.609 14.717 14.717 0 0 0 5.333-1.042c12.584-4.042 22.792-12.767 36.667-12.042a4.167 4.167 0 0 1 0 8.275h-.142a29.773 29.773 0 0 0-3.566.1c-11.134.909-19.884 8.042-30.167 11.425-11.314 4.435-24.093-1.032-28.699-12.277-4.606-11.246.666-24.106 11.84-28.882s24.114.3 29.059 11.401a4.167 4.167 0 0 1-7.258 3.917M79.75 52.6a2.25 2.25 0 0 0 0 4.492 2.258 2.258 0 0 0 0-4.5v.008zm0 5.167a2.933 2.933 0 1 1 2.942-2.934 2.833 2.833 0 0 1-2.942 2.934zm.108-3.217c.3 0 .484-.058.484-.408s-.35-.35-.609-.35h-.475v.758h.6zm-.6 1.858h-.675v-3.15h1.175c.834 0 1.292.234 1.292.95a.741.741 0 0 1-.758.834l.833 1.383h-.833l-.725-1.325h-.317l.008 1.308z" fill="#11407A"/><path fill="#CF202E" d="M277.05.883v34.592H300v-5.567h-16.842v-9.383h15.75v-5.567h-15.75v-8.5h16.617V.883M268 .917l-8.592 13.75-8.483-13.75h-7.708l12.975 19.75v14.775h6.15V20.667L275.317.917m-66.684 0L194.4 15.55h-.292V.917h-6.125v34.525h6.125V18.475h.342l14.908 16.967h8.6l-17.15-18.575L216.883.917M162.892 17.95c0-6.575 4.525-11.8 11.333-11.8 2.283 0 4.525.7 6.95 3.267l4.567-3.334a14.35 14.35 0 0 0-11.575-5.25c-10.167 0-17.442 6.9-17.442 17.5 0 10.309 7.275 17.209 17.442 17.209 4.85 0 9.325-1.775 12.308-5.834l-4.808-3.508c-2.192 2.8-4.759 4.008-7.417 4.008-6.808 0-11.333-5.225-11.333-12.266m-7.992 4.291V.892h-6v21.15c0 3.333-1.808 7.716-7.575 7.716s-7.575-4.383-7.575-7.716V.892h-6v21.341c0 8.142 5.833 13.242 13.575 13.242 7.742 0 13.575-5.1 13.575-13.242m-36.517-11.641c0 2.6-2.058 4.358-6.166 4.358h-5.634V6.133h5.059c4.65 0 6.708 1.467 6.708 4.459h.033zm-11.808 9.65h5.9c5 0 7.342 1.275 7.342 4.9 0 4.558-4.409 5.091-7.592 5.091h-5.683l.033-9.991zm17.975-10.675c0-6.325-5.408-8.734-10.625-8.734h-13.517v34.684h12.5c6.567 0 13.125-2.35 13.125-9.892a8.25 8.25 0 0 0-7.5-8.333v-.1c3.575-1.075 6.025-3.675 6.025-7.592l-.008-.033zm94.542-8.65v34.525h22.941v-5.559h-16.841v-9.358h15.75v-5.567h-15.75V6.475h16.616V.917"/></g></svg>