<svg xmlns="http://www.w3.org/2000/svg" viewBox="0 0 300 164.03"><title>Dish Logo</title><g data-name="Layer 1"><path d="M18.48 163.52l-.86-2.74h-6.33l-.86 2.74H5.9l6.33-17.2h4.45l6.32 17.2zm-4-13.09l-2.14 7.27h4.36zm24.3 6.25c0 4.28-2.74 7.19-7.36 7.19-4 0-7.27-2.14-7.27-6.85v-10.7h4.36v11.12c0 2.31 1.2 2.82 3.08 2.82 2.22 0 2.91-1.11 2.91-3.08v-10.86h4.28zm10.61-6.93v13.78H45v-13.79h-4.44v-3.42h13.26v3.42zm16.94 13.78v-7.36H60v7.36h-4.3v-17.2H60v6.25h6.33v-6.25h4.28v17.2zm15.57-17.71c6.25 0 8.73 5.13 8.73 9.24 0 4.62-3.17 9-8.64 9-5.65 0-8.56-4.45-8.56-9.16-.01-3.96 2.3-9.09 8.46-9.09zm.1 14.53c3.17 0 4.36-3 4.36-5.39 0-3.08-1.37-5.56-4.36-5.56-3.25 0-4.28 3.08-4.28 5.39-.11 2.74 1.17 5.56 4.28 5.56zm19.51-14c2.57 0 6.59.68 6.59 5.56a4.49 4.49 0 0 1-3.51 4.71l3.94 6.85h-4.71l-3.42-6.16h-2.68v6.16h-4.37v-17.15zm-3.85 7.87h3.51a2.25 2.25 0 0 0 2.57-2.4c0-2.22-1.8-2.31-2.57-2.31h-3.62v4.71zm13.18-7.87h4.28v17.2h-4.28zm11.81 13.78h9.24v3.42h-14.58v-3.25l9.5-10.61h-8.73v-3.34h13.86v3.34zm11.89-13.78h12.66v3.34h-8.39v3.08h7.87v3.34h-7.87v4h9.16v3.42h-13.46zm16.09 0h5.9c6.67 0 9.5 2.91 9.5 8.56 0 4.11-1.8 8.56-8.64 8.56h-6.79zm4.25 13.65h1.37c3.68 0 5.39-1.28 5.39-5.22 0-2.65-.86-4.88-4.62-4.88h-2.14zm28.67-13.69c2.57 0 6.59.68 6.59 5.56a4.49 4.49 0 0 1-3.51 4.71l3.94 6.85h-4.71l-3.42-6.16h-2.74v6.16h-4.28v-17.11zm-3.85 7.87h3.51a2.25 2.25 0 0 0 2.57-2.4c0-2.22-1.8-2.31-2.57-2.31h-3.51zm13.18-7.87h12.75v3.34h-8.47v3.08H205v3.34h-7.87v4h9.16v3.42h-13.42zm23.19 3.42v13.78h-4.28v-13.77h-4.45v-3.42h13.18v3.42zm15.83 13.78l-.86-2.74h-6.34l-.86 2.74h-4.54l6.33-17.2h4.45l6.33 17.2zm-4-13.09l-2.14 7.27h4.36zm10.44-4.11h4.28v17.2h-4.28zm7.79 17.2v-17.2h4.28v13.52h6.76v3.68zm13-17.2h12.75v3.34h-8.47v3.08h7.87v3.34h-7.87v4h9.16v3.42H259.1zm24.22 0c2.57 0 6.59.68 6.59 5.56a4.49 4.49 0 0 1-3.51 4.71l3.94 6.85h-4.71l-3.42-6.16h-2.65v6.16h-4.36v-17.11zm-3.85 7.87h3.5a2.25 2.25 0 0 0 2.57-2.4c0-2.22-1.8-2.31-2.57-2.31h-3.59v4.71z"/><path data-name="Shape" d="M146.06 64.69c0 14.29 10.44 21.39 22.16 28l10.44 5.9c5.65 3.17 8.21 6.76 8.21 11.72 0 6.5-4.79 10.52-12.49 10.52-14.2 0-18.48-11.81-20.79-23.36l-.34-1.8h-6.93v32.52h5.39l.68-.77c1.28-1.37 1.28-1.37 2.48-1.37 2.05-.09 4.79.6 7.87 1.28a55.23 55.23 0 0 0 12.92 2c11.72 0 28.32-7.87 28.32-25.41 0-12.24-7.36-17.71-16.17-23.1L168.4 69.31c-4.45-2.65-6.59-6.16-6.59-10.87 0-3.76 3-9.41 11.38-9.41 6.25 0 13.86 2.31 17.71 20.28l.34 1.8h6.85L197.23 42h-5.56l-.67 1.13a1.5 1.5 0 0 1-1.28.86c-.26 0-1.8-.51-2.74-.77-3.51-1.11-8.73-2.82-13.95-2.82-15.67-.01-26.97 10.17-26.97 24.29zM19.94 81c0-23 10.78-31.15 20-31.15 10.18 0 16.26 8.56 16.26 16.77v39.87c-1.2 5.13-7 8.9-13.78 8.9-10.33.04-22.48-8.94-22.48-34.39zM72.48.26l-.6.17C68.63 1.54 56 5.73 45.69 8.3L44 8.73v7.1l2.48-.26c5.73-.6 8 .17 8.73.86.94.86 1 2.57 1 5.31v24a27.09 27.09 0 0 0-16.76-5.44c-10.18 0-20.37 5.13-27.81 14A51.2 51.2 0 0 0 0 86.77c0 41.23 31.32 42.44 34.91 42.44 8.73 0 15.83-2.74 21.31-8v6.33l2.57 2 29-10.27v-6.85l-2.4.17c-5.65.43-7.79-.34-8.64-1.11s-1-2.14-1-4.54V1.37l-3.1-1.2zm216.65 120.05c-7.87-1.37-8.9-1.63-8.9-13.09V71.11c0-20.45-8.21-30.8-24.3-30.8-9.16 0-17.46 3.85-24.13 11.12V1.8l-3-1.8-.26.09-.77.34C224 2 209.3 6.33 202.54 8.21l-1.63.43v7.1l2.48-.26a34.37 34.37 0 0 1 4.28-.17 4.91 4.91 0 0 1 3.51 1c1.11 1.11 1.11 3.42 1 5.22v85.23c0 11.47-.68 12.49-9.5 13.43l-2.05.26v6.93h41.67v-7.1h-.3c-8-.86-10.18-1.11-10.18-13.26v-42.5c1-1.28 8.39-10 17.54-10 7.87 0 11.38 5.31 11.38 17.37v35.34c0 11.12-1.88 12.41-10.18 13h-.17v7.19H291v-6.85zm-172.5 5.48c13.78 0 20.71-8 25.58-17.37.34-.6.09-1-.51-.77-3.68 1.71-13.18 6.08-25 6.08s-21.39-4.45-25-6.08c-.6-.26-.86.17-.51.77 4.81 9.41 11.75 17.36 25.44 17.36zm-20-40.13c3.76 7.36 9.24 13.78 20.11 13.78S133 93 136.82 85.65c.26-.51.09-.86-.51-.6a45.37 45.37 0 0 1-39.19 0c-.6-.25-.77.09-.51.6zm5-20.88c2.82 5.48 6.85 10.44 15.06 10.44s12.24-5 15.06-10.44c.17-.34 0-.68-.43-.51a37.24 37.24 0 0 1-29.26 0c-.49-.18-.66.16-.41.5zm15-12.24c5.73 0 8.47-3.68 10.35-7.36.17-.26 0-.51-.34-.43a30.71 30.71 0 0 1-9.93 1.54 30.11 30.11 0 0 1-9.93-1.54c-.34-.17-.51.09-.34.43 1.72 3.68 4.56 7.36 10.19 7.36zm-15.57-36.88a15.66 15.66 0 1 1 15.66 15.66 15.67 15.67 0 0 1-15.66-15.66z" fill="#eb2046"/><path data-name="Shape" d="M297.18 124.24l1.11 1.71h-.68l-1-1.63h-.68V126h-.6v-3.9h1.45c.94 0 1.37.34 1.37 1.11a.92.92 0 0 1-.94 1zm2.82-.17a3.34 3.34 0 0 1-3.34 3.34 3.31 3.31 0 0 1-3.42-3.34 3.38 3.38 0 0 1 6.76 0zm-.68 0a2.7 2.7 0 1 0-5.39 0 2.65 2.65 0 0 0 2.74 2.74 2.69 2.69 0 0 0 2.65-2.74"/></g></svg>