<svg xmlns="http://www.w3.org/2000/svg" xmlns:xlink="http://www.w3.org/1999/xlink" viewBox="0 0 300 102.47"><defs><linearGradient id="a" x1="-743.36" y1="133.66" x2="-743.36" y2="134.09" gradientTransform="matrix(62.6 0 0 60.6 46564.19 -8066.93)" gradientUnits="userSpaceOnUse"><stop offset="0" stop-color="#0067a8"/><stop offset="1" stop-color="#34387b"/></linearGradient><linearGradient id="b" x1="-736.22" y1="135.26" x2="-736.22" y2="135.82" gradientTransform="matrix(38.46 0 0 46.83 28375.69 -6300.29)" xlink:href="#a"/><linearGradient id="c" x1="-737.21" y1="133.22" x2="-737.21" y2="133.62" gradientTransform="matrix(39.94 0 0 65.66 29538.61 -8713.76)" xlink:href="#a"/><linearGradient id="d" x1="-694.23" y1="135.46" x2="-694.23" y2="136.03" gradientTransform="matrix(11.68 0 0 45.7 8233.52 -6156.22)" xlink:href="#a"/><linearGradient id="e" x1="-737.45" y1="135.08" x2="-737.45" y2="135.63" gradientTransform="matrix(39.5 0 0 47.87 29277.91 -6433.32)" xlink:href="#a"/><linearGradient id="f" x1="-735.13" y1="135.24" x2="-735.13" y2="135.79" gradientTransform="matrix(34.44 0 0 47 25497.29 -6322.73)" xlink:href="#a"/><linearGradient id="g" x1="-738.34" y1="135.32" x2="-738.34" y2="135.88" gradientTransform="matrix(40.37 0 0 46.48 30016.01 -6256.02)" xlink:href="#a"/><linearGradient id="h" x1="-743.85" y1="135.5" x2="-743.85" y2="136.08" gradientTransform="matrix(58.6 0 0 45.43 43836.02 -6122.9)" xlink:href="#a"/><linearGradient id="i" data-name="New Gradient Swatch copy" x1="-752.44" y1="131.43" x2="-752.06" y2="132.64" gradientTransform="matrix(225.8 0 0 84.08 170089.17 -11075.29)" gradientUnits="userSpaceOnUse"><stop offset="0" stop-color="#de392e"/><stop offset=".28" stop-color="#de392e"/><stop offset=".66" stop-color="#fed504"/></linearGradient></defs><title>Mediacom Logo</title><g data-name="Layer 1"><path d="M31 17.16l-6.06 22.41c-.71 2.66-1.23 5-1.62 7.34a70.38 70.38 0 0 0-1.56-7.14l-5.91-22.6H4.22L0 62.3h9l1.56-23.58c.2-2.79.33-5.46.33-8.12.45 2.6 1.23 5.78 1.82 8l6.45 23.7h7.73L34 37.62c.78-2.73 1.17-4.35 1.69-7 0 2.4.13 4.68.32 7.53l1.69 24.1h8.9l-4-45.14z" fill="url(#a)"/><path d="M53.26 32.82C50.34 36.06 49.1 40 49.1 46c0 10.46 6.17 17.21 15.72 17.21a19.08 19.08 0 0 0 12.53-4.61L74 53.4a13 13 0 0 1-8.44 3.31c-4.48 0-7-2.92-7-8.05v-.26h19.19v-2c0-6.95-1.36-11.43-4.42-14.55-2.14-2.21-5.78-3.51-9.61-3.51a13.07 13.07 0 0 0-10.46 4.48zm5.39 9.09c0-4.61 1.88-7.21 5.2-7.21a4.21 4.21 0 0 1 3.83 1.95c.78 1.23 1 2.53 1 5V42H58.65v-.13z" fill="url(#b)"/><path d="M101.31 25.67a40.6 40.6 0 0 0 .26 4.94 9 9 0 0 0-5.91-1.88c-8.44 0-14.22 7.14-14.22 17.54 0 10.33 5.33 16.89 13.77 16.89a11.15 11.15 0 0 0 7.66-2.79 5.93 5.93 0 0 0 .52 1.95h7.79c-.58-1.3-1.23-4-1.23-12.15V15.6l-8.64-1.36v11.43zm-10.2 20.66c0-7.4 1.69-10.65 5.59-10.65a7.25 7.25 0 0 1 4.74 2.15v15.83a6.22 6.22 0 0 1-4.29 2.14c-4.55 0-6-2.34-6-9.48z" fill="url(#c)"/><path d="M118 29.63V62.3h8.7v-34l-8.7 1.33z" fill="url(#d)"/><path d="M128.93 16.93l-4.7-.68-2.1-4.25-2.13 4.25-4.7.68 3.4 3.32-.81 4.68 4.21-2.21 4.21 2.21-.8-4.68 3.4-3.32z" fill="#de392e"/><path d="M138.94 30.28a32.1 32.1 0 0 0-5.39 2.72l3.7 6.23c3.57-2.4 6.82-3.77 9.61-3.77 3.18 0 3.9 1.24 3.9 4.94v1.36c-.72-.06-1.3-.06-1.95-.06-10.59 0-16 3.64-16 11.43 0 6.62 4 10.39 11.43 10.39a11.5 11.5 0 0 0 6.76-1.8 16.05 16.05 0 0 0 2-1.72 9.3 9.3 0 0 0 4.67 4l4.61-5.33c-2.53-1.88-3.12-3.25-3.12-6.82v-.58l.19-11.17c.06-3.57-.13-4.61-.58-6-1.3-3.7-5.13-5.78-10.72-5.78a22.54 22.54 0 0 0-9.09 1.95m3.18 22.54c0-4 2.08-5.07 8.12-5.07h.39l-.13 7.15a6.3 6.3 0 0 1-4.52 2.28c-2.21 0-3.83-1.75-3.83-4.35" fill="url(#e)"/><path d="M171.52 30.54c-3.9 2.66-6.82 7.73-6.82 15.39 0 10.78 5.32 17.15 14.48 17.15A15.54 15.54 0 0 0 187.3 61a13.73 13.73 0 0 0 3.05-2.47l-4-5.26-.52.46c-2.14 1.88-4 2.73-6 2.73a5 5 0 0 1-3.9-1.88c-1.1-1.43-1.69-4-1.69-8.38.07-7.8 1.82-11.2 5.76-11.2a8.38 8.38 0 0 1 5.26 2.6l4.22-5.72a14.61 14.61 0 0 0-3.25-2.34 14.17 14.17 0 0 0-6.43-1.5 15.75 15.75 0 0 0-8.25 2.47" fill="url(#f)"/><path d="M191.43 45.81c0 10.46 5.91 17.21 14.94 17.21 5.13 0 8.44-1.75 11-4.61 2.86-3.25 4.16-7.14 4.16-12.86 0-5.39-1.17-9-3.83-12.15a13.93 13.93 0 0 0-11.3-5c-9 0-14.94 7-14.94 17.41M202.21 54c-.72-1.69-1.1-4.54-1.1-8.38a23.7 23.7 0 0 1 .91-7.4 4.7 4.7 0 0 1 4.48-3.38 4.66 4.66 0 0 1 3.77 1.75c1.17 1.49 1.75 4.42 1.75 8.9 0 7.86-1.62 11.24-5.39 11.24a4.81 4.81 0 0 1-4.42-2.73" fill="url(#g)"/><path d="M250.57 32.82a10.93 10.93 0 0 0-1.3-1.63 9 9 0 0 0-6.75-2.73 11.46 11.46 0 0 0-8.12 3.38 8.49 8.49 0 0 0-1.17-3.38l-7.86 2.14c.91 1.62 1.23 3.7 1.23 8.51V62.3h8.51V38.08a9.22 9.22 0 0 1 5.72-2.53c2.4 0 3 1 3 5.13V62.3h8.25V38.4c1.88-1.69 4.16-2.79 5.78-2.79 2.27 0 2.73.78 2.73 4.74v22H269V38.66c0-4.55-.59-6.49-2.47-8.12a10.29 10.29 0 0 0-6.53-2.08c-3.64 0-6.37 1.23-9.42 4.35" fill="url(#h)"/><path d="M288.46 59.58h.41c.47 0 .87-.17.87-.61s-.23-.62-.87-.62a3 3 0 0 0-.41 0v1.21zm0 2h-.57V58a6.33 6.33 0 0 1 1-.09 1.88 1.88 0 0 1 1.11.27.85.85 0 0 1 .33.74.89.89 0 0 1-.7.87c.31.06.53.34.59.86a3 3 0 0 0 .23.88h-.6a2.64 2.64 0 0 1-.24-.91.67.67 0 0 0-.77-.62h-.4v1.53zm.6-4.56a2.71 2.71 0 0 0 0 5.41 2.71 2.71 0 0 0 0-5.41zm0-.5a3.2 3.2 0 1 1-3.18 3.2 3.15 3.15 0 0 1 3.18-3.2z" fill="#34387b"/><path d="M241.19 0c-23.17.12-63 4.16-108.61 16.07l-.76.73C359.4-28.86 279.65 55.9 273.43 62.63 291.24 54.52 336.36 0 242.47 0h-1.28" fill="url(#i)"/><path d="M10.15 81.3h2.32l8.85 20.82h-2.88L16.32 97H5.92l-2.15 5.12H1zm1.12 3.18h-.06L6.89 94.71h8.5zm22.64 14.38q0 .94.06 1.76t.06 1.5h-2.18v-2.27h-.06a4 4 0 0 1-.66 1 4.78 4.78 0 0 1-1 .84 5.42 5.42 0 0 1-1.32.59 5.51 5.51 0 0 1-1.59.22 6 6 0 0 1-2.34-.41 4.38 4.38 0 0 1-1.63-1.15 4.64 4.64 0 0 1-1-1.78 8 8 0 0 1-.31-2.28v-8.5h2.26v8.26a4.4 4.4 0 0 0 .8 2.72 2.81 2.81 0 0 0 2.38 1 4.47 4.47 0 0 0 1.93-.38 3.42 3.42 0 0 0 1.32-1.09 4.89 4.89 0 0 0 .76-1.68 8.61 8.61 0 0 0 .25-2.15v-6.7h2.29zm10.7-8.56h-4.06v8.13a2.58 2.58 0 0 0 .24 1 1.57 1.57 0 0 0 .62.68 2.28 2.28 0 0 0 1.18.25 4.73 4.73 0 0 0 1-.12 4.29 4.29 0 0 0 1-.35l.09 2.09a5.26 5.26 0 0 1-1.31.38 8.54 8.54 0 0 1-1.37.12 5 5 0 0 1-2-.32 2.67 2.67 0 0 1-1.15-.91 3.39 3.39 0 0 1-.54-1.46 12.82 12.82 0 0 1-.13-1.93V90.3h-3v-1.94h3v-3.91h2.29v3.91h4.06zm1.68-10.41h2.29v10.38h.06a3.65 3.65 0 0 1 .65-.81 4.84 4.84 0 0 1 1-.72 6 6 0 0 1 1.28-.53A5.34 5.34 0 0 1 53 88a6 6 0 0 1 2.34.41A4.39 4.39 0 0 1 57 89.56a4.65 4.65 0 0 1 1 1.78 8 8 0 0 1 .31 2.28v8.5H56v-8.26a4.4 4.4 0 0 0-.76-2.73 2.81 2.81 0 0 0-2.38-1 4.47 4.47 0 0 0-1.93.38 3.41 3.41 0 0 0-1.32 1.09 4.87 4.87 0 0 0-.76 1.68 8.59 8.59 0 0 0-.25 2.15v6.7h-2.31zm13.79 15.35a7.49 7.49 0 0 1 .56-2.94 7 7 0 0 1 1.52-2.3 6.79 6.79 0 0 1 2.32-1.48 8.43 8.43 0 0 1 5.88 0A6.8 6.8 0 0 1 72.69 90a7 7 0 0 1 1.53 2.28 8 8 0 0 1 0 5.88 7 7 0 0 1-1.53 2.28 6.8 6.8 0 0 1-2.32 1.48 8.43 8.43 0 0 1-5.88 0 6.79 6.79 0 0 1-2.32-1.48 7 7 0 0 1-1.53-2.28 7.49 7.49 0 0 1-.56-2.92zm2.47 0a5.83 5.83 0 0 0 .34 2 4.65 4.65 0 0 0 2.52 2.76 5.31 5.31 0 0 0 4 0A4.65 4.65 0 0 0 72 97.25a6.17 6.17 0 0 0 0-4 4.65 4.65 0 0 0-2.53-2.71 5.31 5.31 0 0 0-4 0 4.65 4.65 0 0 0-2.53 2.71 5.83 5.83 0 0 0-.39 1.99zm14.02-3.62q0-.94-.06-1.76t-.06-1.5h2.18v2.27h.06a4 4 0 0 1 .66-1 4.78 4.78 0 0 1 1-.84 5.42 5.42 0 0 1 1.32-.59 5.49 5.49 0 0 1 1.66-.2h.47a2.08 2.08 0 0 1 .47.12l-.15 2.32a4.28 4.28 0 0 0-1.23-.18 3.48 3.48 0 0 0-3.07 1.37 6.45 6.45 0 0 0-1 3.75v6.7h-2.25zM86 83a1.64 1.64 0 0 1 .49-1.18 1.67 1.67 0 0 1 2.38 0A1.69 1.69 0 1 1 86 83zm.53 5.38h2.29v13.76h-2.28zm4.98 11.95l8.09-10h-7.74v-1.97h10.73v1.76l-8.09 10.06h8.29v1.94H91.51zm25.49-.71a7 7 0 0 1-2.71 2.22 8.58 8.58 0 0 1-3.41.63 7.11 7.11 0 0 1-2.91-.57 6.56 6.56 0 0 1-2.19-1.54 6.76 6.76 0 0 1-1.38-2.29 8.14 8.14 0 0 1-.49-2.82 7.89 7.89 0 0 1 .53-2.93 6.78 6.78 0 0 1 1.44-2.32 6.6 6.6 0 0 1 2.23-1.48 7.38 7.38 0 0 1 2.82-.53 7 7 0 0 1 2.65.49 5.73 5.73 0 0 1 2.07 1.41 6.35 6.35 0 0 1 1.35 2.28 9.15 9.15 0 0 1 .47 3v.74h-11.12a4.82 4.82 0 0 0 .43 1.69 4.9 4.9 0 0 0 1 1.41 4.41 4.41 0 0 0 1.38 1 4.23 4.23 0 0 0 1.73.35 5.49 5.49 0 0 0 2.53-.53 5.75 5.75 0 0 0 1.85-1.56zM115 94a4 4 0 0 0-1.15-2.82 4.12 4.12 0 0 0-3-1.06 4.24 4.24 0 0 0-4.5 3.88zm16.29 5.68h-.06a5.25 5.25 0 0 1-2 2 6.37 6.37 0 0 1-3.25.81 6.77 6.77 0 0 1-2.71-.54 6.6 6.6 0 0 1-2.19-1.51 7.1 7.1 0 0 1-1.46-2.29 8.11 8.11 0 0 1 0-5.76 7 7 0 0 1 1.47-2.29 6.58 6.58 0 0 1 2.28-1.51 7.78 7.78 0 0 1 3-.54 6.12 6.12 0 0 1 2.75.62 6.77 6.77 0 0 1 2.19 1.73h.06V79.89h2.29v22.23h-2.29zm0-4.44a5.84 5.84 0 0 0-.34-2 4.65 4.65 0 0 0-2.53-2.71 5.31 5.31 0 0 0-4 0 4.65 4.65 0 0 0-2.53 2.71 6.17 6.17 0 0 0 0 4 4.65 4.65 0 0 0 2.53 2.71 5.31 5.31 0 0 0 4 0 4.65 4.65 0 0 0 2.58-2.7 5.84 5.84 0 0 0 .29-2.01zM144 81.3h5.32a25.26 25.26 0 0 1 3 .18 8 8 0 0 1 2.66.76 4.82 4.82 0 0 1 1.95 1.76 5.59 5.59 0 0 1 .74 3.07 5.07 5.07 0 0 1-1.38 3.7 6.6 6.6 0 0 1-3.82 1.79l5.91 9.59h-3l-5.65-9.35h-3.18v9.35H144zm2.47 9.17h2.21q1 0 2.13-.06a7.29 7.29 0 0 0 2-.38 3.53 3.53 0 0 0 1.53-1 2.93 2.93 0 0 0 .6-2 3.24 3.24 0 0 0-.44-1.79 3 3 0 0 0-1.16-1 5 5 0 0 0-1.62-.48 13.94 13.94 0 0 0-1.72-.16h-3.47zm25.66 9.15a7 7 0 0 1-2.71 2.22 8.57 8.57 0 0 1-3.41.63 7.11 7.11 0 0 1-2.91-.57 6.56 6.56 0 0 1-2.19-1.54 6.76 6.76 0 0 1-1.38-2.29 8.14 8.14 0 0 1-.48-2.82 7.88 7.88 0 0 1 .53-2.93A6.78 6.78 0 0 1 161 90a6.6 6.6 0 0 1 2.23-1.48 7.38 7.38 0 0 1 2.87-.52 7 7 0 0 1 2.65.49 5.73 5.73 0 0 1 2.07 1.41 6.35 6.35 0 0 1 1.34 2.26 9.16 9.16 0 0 1 .47 3v.74h-11.12a4.81 4.81 0 0 0 .43 1.69 4.9 4.9 0 0 0 1 1.41 4.42 4.42 0 0 0 1.38 1 4.23 4.23 0 0 0 1.74.35 5.49 5.49 0 0 0 2.53-.53 5.75 5.75 0 0 0 1.85-1.56zm-2-5.62a4 4 0 0 0-1.13-2.82 4.12 4.12 0 0 0-3-1.06 4.24 4.24 0 0 0-4.5 3.88zm12.41-3.7h-4.06v8.13a2.58 2.58 0 0 0 .24 1 1.57 1.57 0 0 0 .62.68 2.28 2.28 0 0 0 1.18.25 4.73 4.73 0 0 0 1-.12 4.29 4.29 0 0 0 1-.35l.09 2.09a5.26 5.26 0 0 1-1.31.38 8.54 8.54 0 0 1-1.37.12 5 5 0 0 1-2-.32 2.67 2.67 0 0 1-1.15-.91 3.39 3.39 0 0 1-.54-1.46 12.85 12.85 0 0 1-.13-1.93V90.3h-3v-1.94h3v-3.91h2.29v3.91h4.06zm2.06-.18a6.48 6.48 0 0 1 2.51-1.6 8.82 8.82 0 0 1 3-.51q3.06 0 4.41 1.44a6.21 6.21 0 0 1 1.35 4.38v5.91q0 .59.06 1.22t.15 1.16h-2.2a4.81 4.81 0 0 1-.13-1v-1h-.06a5.38 5.38 0 0 1-1.81 1.73 5.21 5.21 0 0 1-2.72.68 7.2 7.2 0 0 1-2-.27 4.94 4.94 0 0 1-1.62-.78 3.85 3.85 0 0 1-1.1-1.28 3.67 3.67 0 0 1-.41-1.76 3.83 3.83 0 0 1 .88-2.68 5.36 5.36 0 0 1 2.19-1.44 10.78 10.78 0 0 1 2.82-.59q1.51-.12 2.78-.12h.88v-.41a2.81 2.81 0 0 0-.9-2.26 3.76 3.76 0 0 0-2.51-.76 6.72 6.72 0 0 0-2.19.37 5.28 5.28 0 0 0-1.9 1.13zm6.64 5.38a8.23 8.23 0 0 0-3.5.62 2.1 2.1 0 0 0-1.29 2 2 2 0 0 0 .87 1.84 4 4 0 0 0 2.16.54 4.22 4.22 0 0 0 1.75-.34 3.67 3.67 0 0 0 1.25-.9 3.86 3.86 0 0 0 .76-1.31 5.33 5.33 0 0 0 .29-1.6v-.85zm7.29-12.5a1.64 1.64 0 0 1 .47-1.2 1.67 1.67 0 0 1 2.38 0 1.69 1.69 0 1 1-2.85 1.2zm.53 5.38h2.29v13.76h-2.29zm5.88-8.49h2.29v22.23h-2.29zm17.97 19.73a7 7 0 0 1-2.7 2.22 8.58 8.58 0 0 1-3.41.63 7.11 7.11 0 0 1-2.91-.57 6.56 6.56 0 0 1-2.19-1.54 6.78 6.78 0 0 1-1.38-2.29 8.14 8.14 0 0 1-.48-2.82 7.89 7.89 0 0 1 .53-2.93 6.78 6.78 0 0 1 1.45-2.32 6.61 6.61 0 0 1 2.23-1.48 7.38 7.38 0 0 1 2.82-.53 7 7 0 0 1 2.65.49 5.74 5.74 0 0 1 2.07 1.41 6.36 6.36 0 0 1 1.34 2.26 9.16 9.16 0 0 1 .47 3v.74h-11.11a4.81 4.81 0 0 0 .43 1.69 4.89 4.89 0 0 0 1 1.41 4.41 4.41 0 0 0 1.38 1 4.23 4.23 0 0 0 1.74.35 5.49 5.49 0 0 0 2.53-.53 5.75 5.75 0 0 0 1.85-1.56zm-2-5.62a4 4 0 0 0-1.15-2.82 4.12 4.12 0 0 0-3-1.06 4.24 4.24 0 0 0-4.5 3.88zm5.47-2.38q0-.94-.06-1.76t-.06-1.5h2.18v2.27h.06a4 4 0 0 1 .66-1 4.78 4.78 0 0 1 1-.84 5.43 5.43 0 0 1 1.32-.59 5.49 5.49 0 0 1 1.59-.22h.47a2.08 2.08 0 0 1 .47.12l-.15 2.32a4.28 4.28 0 0 0-1.24-.18 3.48 3.48 0 0 0-3.07 1.37 6.45 6.45 0 0 0-1 3.75v6.7h-2.29z" fill="#0178b3"/></g></svg>