<svg xmlns="http://www.w3.org/2000/svg" width="241" height="135" viewBox="0 0 241 135"><title>Cox Logo</title><defs><linearGradient id="a" x1="118.947%" x2="4.235%" y1="39.06%" y2="67.964%"><stop offset="0%" stop-color="#026CB6"/><stop offset="18.67%" stop-color="#006DB6"/><stop offset="35.07%" stop-color="#0072B8"/><stop offset="50.63%" stop-color="#007BBD"/><stop offset="65.67%" stop-color="#0088C4"/><stop offset="80.33%" stop-color="#0099CE"/><stop offset="94.53%" stop-color="#00ADD9"/><stop offset="99.44%" stop-color="#00B6DE"/></linearGradient><linearGradient id="b" x1="98.251%" x2="37.076%" y1="5.5%" y2="67.582%"><stop offset="0%" stop-color="#C3D0E4"/><stop offset="13.54%" stop-color="#A0CAE2"/><stop offset="33.04%" stop-color="#6FC2E0"/><stop offset="51.95%" stop-color="#37BCDF"/><stop offset="69.84%" stop-color="#00B8DE"/><stop offset="86.31%" stop-color="#00B7DE"/><stop offset="100%" stop-color="#00B6DE"/></linearGradient><linearGradient id="c" x1="96.987%" x2="3.011%" y1="32.899%" y2="67.103%"><stop offset="0%" stop-color="#026CB6"/><stop offset="18.67%" stop-color="#006DB6"/><stop offset="35.07%" stop-color="#0072B8"/><stop offset="50.63%" stop-color="#007BBD"/><stop offset="65.67%" stop-color="#0088C4"/><stop offset="80.33%" stop-color="#0099CE"/><stop offset="94.53%" stop-color="#00ADD9"/><stop offset="99.44%" stop-color="#00B6DE"/></linearGradient><linearGradient id="d" x1="71.84%" x2="32.249%" y1="124.727%" y2="-18.874%"><stop offset="0%" stop-color="#026CB6"/><stop offset="20.3%" stop-color="#0080BF"/><stop offset="45.62%" stop-color="#0096CC"/><stop offset="68.26%" stop-color="#00A7D5"/><stop offset="87.16%" stop-color="#00B1DB"/><stop offset="100%" stop-color="#00B6DE"/></linearGradient><linearGradient id="e" x1=".001%" x2="104.436%" y1="50.001%" y2="50.001%"><stop offset="0%" stop-color="#026CB6"/><stop offset="14.82%" stop-color="#006BB3"/><stop offset="29.61%" stop-color="#006BAE"/><stop offset="44.4%" stop-color="#006AA8"/><stop offset="59.19%" stop-color="#00689D"/><stop offset="73.98%" stop-color="#00628E"/><stop offset="88.57%" stop-color="#005779"/><stop offset="100%" stop-color="#004A64"/></linearGradient><linearGradient id="f" x1="-3.832%" x2="100.034%" y1="50.003%" y2="50.003%"><stop offset="0%" stop-color="#026CB6"/><stop offset="14.82%" stop-color="#006BB3"/><stop offset="29.61%" stop-color="#006BAE"/><stop offset="44.4%" stop-color="#006AA8"/><stop offset="59.19%" stop-color="#00689D"/><stop offset="73.98%" stop-color="#00628E"/><stop offset="88.57%" stop-color="#005779"/><stop offset="100%" stop-color="#004A64"/></linearGradient><linearGradient id="g" x1="44.713%" x2="55.287%" y1="3.706%" y2="96.296%"><stop offset="0%" stop-color="#0073AE"/><stop offset="7.6%" stop-color="#188BBF"/><stop offset="16.48%" stop-color="#77ABD3"/><stop offset="23.9%" stop-color="#ACC8E3"/><stop offset="29.49%" stop-color="#CFDDEE"/><stop offset="32.58%" stop-color="#DEE6F3"/><stop offset="39.43%" stop-color="#CCDBED"/><stop offset="52.47%" stop-color="#A3C2E0"/><stop offset="70.37%" stop-color="#62A1CD"/><stop offset="92.2%" stop-color="#007EB6"/><stop offset="100%" stop-color="#0073AE"/></linearGradient><linearGradient id="h" x1="24.367%" x2="74.419%" y1="527.674%" y2="-351.538%"><stop offset="0%" stop-color="#0073AE"/><stop offset="7.6%" stop-color="#188BBF"/><stop offset="16.48%" stop-color="#77ABD3"/><stop offset="23.9%" stop-color="#ACC8E3"/><stop offset="29.49%" stop-color="#CFDDEE"/><stop offset="32.58%" stop-color="#DEE6F3"/><stop offset="39.43%" stop-color="#CCDBED"/><stop offset="52.47%" stop-color="#A3C2E0"/><stop offset="70.37%" stop-color="#62A1CD"/><stop offset="92.2%" stop-color="#007EB6"/><stop offset="100%" stop-color="#0073AE"/></linearGradient><linearGradient id="i" x1="44.676%" x2="55.322%" y1="3.685%" y2="96.317%"><stop offset="0%" stop-color="#0073AE"/><stop offset="7.6%" stop-color="#188BBF"/><stop offset="16.48%" stop-color="#77ABD3"/><stop offset="23.9%" stop-color="#ACC8E3"/><stop offset="29.49%" stop-color="#CFDDEE"/><stop offset="32.58%" stop-color="#DEE6F3"/><stop offset="39.43%" stop-color="#CCDBED"/><stop offset="52.47%" stop-color="#A3C2E0"/><stop offset="70.37%" stop-color="#62A1CD"/><stop offset="92.2%" stop-color="#007EB6"/><stop offset="100%" stop-color="#0073AE"/></linearGradient><linearGradient id="j" x1="50.001%" x2="50.001%" y1="100%" y2="0%"><stop offset="0%" stop-color="#0073AE"/><stop offset="7.6%" stop-color="#188BBF"/><stop offset="16.48%" stop-color="#77ABD3"/><stop offset="23.9%" stop-color="#ACC8E3"/><stop offset="29.49%" stop-color="#CFDDEE"/><stop offset="32.58%" stop-color="#DEE6F3"/><stop offset="39.43%" stop-color="#CCDBED"/><stop offset="52.47%" stop-color="#A3C2E0"/><stop offset="70.37%" stop-color="#62A1CD"/><stop offset="92.2%" stop-color="#007EB6"/><stop offset="100%" stop-color="#0073AE"/></linearGradient><linearGradient id="k" x1="50%" x2="50%" y1="100%" y2="0%"><stop offset="0%" stop-color="#0073AE"/><stop offset="7.6%" stop-color="#188BBF"/><stop offset="16.48%" stop-color="#77ABD3"/><stop offset="23.9%" stop-color="#ACC8E3"/><stop offset="29.49%" stop-color="#CFDDEE"/><stop offset="32.58%" stop-color="#DEE6F3"/><stop offset="39.43%" stop-color="#CCDBED"/><stop offset="52.47%" stop-color="#A3C2E0"/><stop offset="70.37%" stop-color="#62A1CD"/><stop offset="92.2%" stop-color="#007EB6"/><stop offset="100%" stop-color="#0073AE"/></linearGradient><linearGradient id="l" x1="0%" x2="100.003%" y1="50%" y2="50%"><stop offset="0%" stop-color="#0073AE"/><stop offset="7.6%" stop-color="#188BBF"/><stop offset="16.48%" stop-color="#77ABD3"/><stop offset="23.9%" stop-color="#ACC8E3"/><stop offset="29.49%" stop-color="#CFDDEE"/><stop offset="32.58%" stop-color="#DEE6F3"/><stop offset="39.43%" stop-color="#CCDBED"/><stop offset="52.47%" stop-color="#A3C2E0"/><stop offset="70.37%" stop-color="#62A1CD"/><stop offset="92.2%" stop-color="#007EB6"/><stop offset="100%" stop-color="#0073AE"/></linearGradient><linearGradient id="m" x1="19.557%" x2="117.963%" y1="15.779%" y2="84.922%"><stop offset="0%" stop-color="#0073AE"/><stop offset="7.6%" stop-color="#188BBF"/><stop offset="16.48%" stop-color="#77ABD3"/><stop offset="23.9%" stop-color="#ACC8E3"/><stop offset="29.49%" stop-color="#CFDDEE"/><stop offset="32.58%" stop-color="#DEE6F3"/><stop offset="39.43%" stop-color="#CCDBED"/><stop offset="52.47%" stop-color="#A3C2E0"/><stop offset="70.37%" stop-color="#62A1CD"/><stop offset="92.2%" stop-color="#007EB6"/><stop offset="100%" stop-color="#0073AE"/></linearGradient><linearGradient id="n" x1="17.06%" x2="94.065%" y1="12.991%" y2="87.494%"><stop offset="0%" stop-color="#0073AE"/><stop offset="7.6%" stop-color="#188BBF"/><stop offset="16.48%" stop-color="#77ABD3"/><stop offset="23.9%" stop-color="#ACC8E3"/><stop offset="29.49%" stop-color="#CFDDEE"/><stop offset="32.58%" stop-color="#DEE6F3"/><stop offset="39.43%" stop-color="#CCDBED"/><stop offset="52.47%" stop-color="#A3C2E0"/><stop offset="70.37%" stop-color="#62A1CD"/><stop offset="92.2%" stop-color="#007EB6"/><stop offset="100%" stop-color="#0073AE"/></linearGradient><linearGradient id="o" x1="14.645%" x2="85.355%" y1="14.642%" y2="85.352%"><stop offset="0%" stop-color="#0073AE"/><stop offset="7.6%" stop-color="#188BBF"/><stop offset="16.48%" stop-color="#77ABD3"/><stop offset="23.9%" stop-color="#ACC8E3"/><stop offset="29.49%" stop-color="#CFDDEE"/><stop offset="32.58%" stop-color="#DEE6F3"/><stop offset="39.43%" stop-color="#CCDBED"/><stop offset="52.47%" stop-color="#A3C2E0"/><stop offset="70.37%" stop-color="#62A1CD"/><stop offset="92.2%" stop-color="#007EB6"/><stop offset="100%" stop-color="#0073AE"/></linearGradient><linearGradient id="p" x1="14.671%" x2="85.344%" y1="14.654%" y2="85.349%"><stop offset="0%" stop-color="#0073AE"/><stop offset="7.6%" stop-color="#188BBF"/><stop offset="16.48%" stop-color="#77ABD3"/><stop offset="23.9%" stop-color="#ACC8E3"/><stop offset="29.49%" stop-color="#CFDDEE"/><stop offset="32.58%" stop-color="#DEE6F3"/><stop offset="39.43%" stop-color="#CCDBED"/><stop offset="52.47%" stop-color="#A3C2E0"/><stop offset="70.37%" stop-color="#62A1CD"/><stop offset="92.2%" stop-color="#007EB6"/><stop offset="100%" stop-color="#0073AE"/></linearGradient><linearGradient id="q" x1=".004%" y1="50%" y2="50%"><stop offset="0%" stop-color="#0073AE"/><stop offset="7.6%" stop-color="#188BBF"/><stop offset="16.48%" stop-color="#77ABD3"/><stop offset="23.9%" stop-color="#ACC8E3"/><stop offset="29.49%" stop-color="#CFDDEE"/><stop offset="32.58%" stop-color="#DEE6F3"/><stop offset="39.43%" stop-color="#CCDBED"/><stop offset="52.47%" stop-color="#A3C2E0"/><stop offset="70.37%" stop-color="#62A1CD"/><stop offset="92.2%" stop-color="#007EB6"/><stop offset="100%" stop-color="#0073AE"/></linearGradient><linearGradient id="r" x1="50.001%" x2="50.001%" y1="-.004%" y2="99.997%"><stop offset="0%" stop-color="#0073AE"/><stop offset="7.6%" stop-color="#188BBF"/><stop offset="16.48%" stop-color="#77ABD3"/><stop offset="23.9%" stop-color="#ACC8E3"/><stop offset="29.49%" stop-color="#CFDDEE"/><stop offset="32.58%" stop-color="#DEE6F3"/><stop offset="39.43%" stop-color="#CCDBED"/><stop offset="52.47%" stop-color="#A3C2E0"/><stop offset="70.37%" stop-color="#62A1CD"/><stop offset="92.2%" stop-color="#007EB6"/><stop offset="100%" stop-color="#0073AE"/></linearGradient><linearGradient id="s" x1="50.001%" x2="50.001%" y1="100.001%" y2=".001%"><stop offset="0%" stop-color="#0073AE"/><stop offset="7.6%" stop-color="#188BBF"/><stop offset="16.48%" stop-color="#77ABD3"/><stop offset="23.9%" stop-color="#ACC8E3"/><stop offset="29.49%" stop-color="#CFDDEE"/><stop offset="32.58%" stop-color="#DEE6F3"/><stop offset="39.43%" stop-color="#CCDBED"/><stop offset="52.47%" stop-color="#A3C2E0"/><stop offset="70.37%" stop-color="#62A1CD"/><stop offset="92.2%" stop-color="#007EB6"/><stop offset="100%" stop-color="#0073AE"/></linearGradient><linearGradient id="t" x1="50%" x2="50%" y1="121.251%" y2="-57.644%"><stop offset="0%" stop-color="#026CB6"/><stop offset="18.67%" stop-color="#006DB6"/><stop offset="35.07%" stop-color="#0072B8"/><stop offset="50.63%" stop-color="#007BBD"/><stop offset="65.67%" stop-color="#0088C4"/><stop offset="80.33%" stop-color="#0099CE"/><stop offset="94.53%" stop-color="#00ADD9"/><stop offset="99.44%" stop-color="#00B6DE"/></linearGradient><linearGradient id="u" x1="-59.663%" x2="125.498%" y1="50%" y2="50%"><stop offset="0%" stop-color="#026CB6"/><stop offset="14.82%" stop-color="#006BB3"/><stop offset="29.61%" stop-color="#006BAE"/><stop offset="44.4%" stop-color="#006AA8"/><stop offset="59.19%" stop-color="#00689D"/><stop offset="73.98%" stop-color="#00628E"/><stop offset="88.57%" stop-color="#005779"/><stop offset="100%" stop-color="#004A64"/></linearGradient></defs><g fill="none" fill-rule="evenodd"><path fill="url(#a)" fill-rule="nonzero" d="M27.681 51.305c0-8.28 6.815-15.015 15.184-15.015 4.46 0 8.333 1.35 12.217 4.253v-.027l.057.12-.057-.127c-.027-5.26-.107-23.328-.112-25.347-.07-.017-.144-.03-.212-.047-4.5-1.142-9.18-1.768-13.644-1.768-21.48 0-38.306 16.912-38.306 38.503 0 20.794 16.331 37.09 37.182 37.09 3.234 0 9.87-.452 14.981-1.616 0-.055 0-.13.002-.212.01-2.82.079-19.584.1-24.63-.05.036-.1.07-.151.104-3.5 2.595-7.086 3.729-11.684 3.729-8.577 0-15.557-6.737-15.557-15.01z"/><path fill="url(#b)" fill-rule="nonzero" d="M42.244 36.321c.208-.01.413-.03.62-.03 4.461 0 8.334 1.351 12.218 4.254v-.027l.057.12-.057-.127c-.027-5.261-.107-23.329-.112-25.348-.07-.017-.144-.03-.212-.046-4.5-1.143-9.18-1.769-13.644-1.769-4.84 0-9.443.865-13.669 2.443 6.71 3.883 14.264 10.463 14.799 20.53z"/><path fill="url(#c)" fill-rule="nonzero" d="M105.144 89.88c21.328 0 38.681-17.349 38.681-38.68 0-21.33-17.352-38.68-38.681-38.68-21.326 0-38.68 17.35-38.68 38.68-.001 21.331 17.354 38.68 38.68 38.68zm0-53.932c8.414 0 15.251 6.84 15.251 15.251 0 8.414-6.836 15.248-15.251 15.248s-15.26-6.834-15.26-15.248c0-8.41 6.846-15.25 15.26-15.25z"/><path fill="url(#d)" fill-rule="nonzero" d="M124.736 17.841c-11.991-7.05-26.267-6.872-37.744-.797 28.605-5.335 25.833 11.783 35.134 16.8 16.632 8.973 21-5.193 2.61-16.003z"/><path fill="url(#e)" fill-rule="nonzero" d="M105.144 89.88c15.13 0 28.251-8.734 34.605-21.424-10.245 3.47-21.445-1.4-26.686-4.25a15.126 15.126 0 0 1-7.92 2.241c-6.993 0-12.889-4.727-14.684-11.155-10.685 2.028-18.906-4.124-23.654-9.16a39.186 39.186 0 0 0-.342 5.067c0 21.332 17.355 38.681 38.681 38.681z"/><path fill="url(#f)" fill-rule="nonzero" d="M39.989 88.942c3.233 0 9.87-.453 14.98-1.616 0-.056 0-.13.002-.213.01-2.819.08-19.584.1-24.63-.049.037-.1.07-.15.105-2.26 1.676-4.562 2.735-7.143 3.278-16.852 7.839-32.452 4.115-42.406-.251C10.746 79.4 24.042 88.942 39.99 88.942z"/><path fill="#FFF" fill-rule="nonzero" d="M151.378 91.902c14.243-18.677 45.286-59.4 59.459-77.981-20.61 20.946-44.634 52.456-59.46 77.981z"/><path fill="#FFF" fill-rule="nonzero" d="M151.321 92.176c14.243-18.675 45.342-59.673 59.514-78.254-20.608 20.945-44.69 52.73-59.514 78.254z"/><path d="M105.114 11.02c-22.258 0-40.293 18.036-40.293 40.287 0 22.25 18.035 40.294 40.293 40.294 22.241 0 40.293-18.045 40.293-40.294 0-22.251-18.052-40.286-40.293-40.286zm0 53.93c-7.541 0-13.647-6.105-13.647-13.642 0-7.531 6.106-13.64 13.647-13.64 7.523 0 13.64 6.109 13.64 13.64 0 7.536-6.115 13.642-13.64 13.642zM56.538 14.007c-4.991-1.398-10.292-2.16-15.46-2.16-22.38 0-39.912 17.824-39.912 40.113 0 21.779 17.021 38.698 38.792 38.698 4.005 0 11.486-.6 16.581-1.941l.125-29.636c-4.014 3.93-7.716 5.735-13.454 5.735-7.475 0-13.948-5.84-13.948-13.402 0-7.473 6.11-13.403 13.573-13.403 5.657 0 9.829 2.341 13.844 6.08l-.141-30.084z"/><path fill="#026CB6" fill-rule="nonzero" d="M54.97 15.163l-.014-.001c.005 2.023.086 20.084.111 25.344l1.616 3.426-.099-30.011c-.131-.036-.018.005-.018.005l-1.596 1.237z"/><path d="M105.13 35.944c-8.414 0-15.26 6.84-15.26 15.251 0 8.414 6.846 15.25 15.26 15.25s15.25-6.836 15.25-15.25c0-8.41-6.836-15.251-15.25-15.251zm-62.28.342c4.461 0 8.334 1.35 12.217 4.253-.026-5.15-.106-23.351-.111-25.381-4.563-1.174-9.323-1.816-13.857-1.816-21.48 0-38.307 16.913-38.307 38.503 0 20.795 16.331 37.09 37.183 37.09 3.233 0 9.87-.452 14.98-1.615.006-2.037.081-19.647.102-24.843-3.547 2.675-7.172 3.833-11.835 3.833-8.573 0-15.555-6.74-15.555-15.01 0-8.28 6.815-15.014 15.183-15.014z"/><path d="M42.85 36.286c4.461 0 8.334 1.35 12.217 4.253-.026-5.15-.106-23.351-.111-25.381-4.563-1.174-9.323-1.816-13.857-1.816-21.48 0-38.307 16.913-38.307 38.503 0 20.795 16.331 37.09 37.183 37.09 3.233 0 9.87-.452 14.98-1.615.006-2.037.081-19.647.102-24.843-3.547 2.675-7.172 3.833-11.835 3.833-8.573 0-15.555-6.74-15.555-15.01 0-8.28 6.815-15.014 15.183-15.014z"/><path fill="#002D62" fill-rule="nonzero" d="M55.057 62.479c-.022 5.047-.09 21.81-.1 24.629l1.626 1.209.123-29.168c0 .002-1.698 3.367-1.649 3.33z"/><path d="M105.13 35.944c-8.414 0-15.26 6.84-15.26 15.251 0 8.414 6.846 15.25 15.26 15.25s15.25-6.836 15.25-15.25c0-8.41-6.836-15.251-15.25-15.251z"/><path d="M105.13 12.514c-21.326 0-38.68 17.35-38.68 38.68 0 21.332 17.354 38.68 38.68 38.68 21.328 0 38.681-17.348 38.681-38.68 0-21.328-17.352-38.68-38.681-38.68zm0 53.93c-8.414 0-15.26-6.837-15.26-15.25 0-8.411 6.846-15.251 15.26-15.251s15.25 6.84 15.25 15.25c0 8.414-6.836 15.25-15.25 15.25z"/><path d="M105.13 35.944c-8.414 0-15.26 6.84-15.26 15.251 0 8.414 6.846 15.25 15.26 15.25s15.25-6.836 15.25-15.25c0-8.41-6.836-15.251-15.25-15.251z"/><path fill="url(#g)" fill-rule="nonzero" d="M163.43 91.916c14.82-25.535 38.856-57.055 59.471-78.007.334-.314 7.425-7.879 12.623-13.858-27.046 22.334-66.58 74.178-81.603 106.521 3.341-5.1 7.426-11.326 10.375-15.791-.291.379-.584.762-.865 1.135z"/><path fill="url(#h)" fill-rule="nonzero" d="M223.913 89.219l-3.151-1.68c.038.055.089.124.121.174H193.01v-.003l-.818 1.632.006.008h31.809l-.094-.131z"/><path fill="url(#i)" fill-rule="nonzero" d="M151.378 91.902c14.825-25.525 38.85-57.035 59.459-77.981-.072.09-.149.193-.22.284l11.47-13.002c-27.002 22.931-65.492 73.628-80.255 105.424l10.032-15.367c-.158.214-.332.439-.486.642z"/><path fill="#026CB6" fill-rule="nonzero" d="M55.057 62.479c-.022 5.047-.09 21.81-.1 24.811l1.626 1.31.123-29.565c0 .001-1.698 3.48-1.649 3.444z"/><path fill="url(#j)" fill-rule="nonzero" d="M235.575 0c-.017.016-.039.034-.053.05-3.913 4.505-8.61 9.499-13.008 14.368L194.883 50.66l.679.963c2.689 3.833 12.915 18.41 19.625 27.97 2.618 3.731 4.697 6.693 5.575 7.947l3.151 1.68-27.01-38.493L235.575 0z"/><path fill="url(#k)" fill-rule="nonzero" d="M198.864 13.826c-10.282 13.488-29.635 38.865-44.889 58.873-.605.796-1.214 1.598-1.808 2.374l-12.462 16.355-9.745 15.493L209.684 2.35c0-.002-11.327 11.99-10.82 11.476z"/><path fill="url(#l)" fill-rule="nonzero" d="M180.43 69.835c-.064 0-.12.017-.18.018l-.026.033c-1.272 1.671-9.755 12.795-16.795 22.03.235-.406.492-.825.733-1.231-2.935 4.47-7.052 11.015-10.242 15.888-.215.456-.42.907-.62 1.35l27.077-35.515 11.815 16.935.818-1.631c-.84-1.2-11.143-15.966-12.465-17.859-.038-.004-.076-.018-.116-.018z"/><path fill="url(#m)" fill-rule="nonzero" d="M54.957 87.11l-.001.211c-5.11 1.162-11.748 1.616-14.981 1.616-20.852 0-37.183-16.296-37.183-37.09 0-21.59 16.825-38.503 38.307-38.503 4.463 0 9.144.626 13.643 1.767l.226.052 1.597-1.235-.382-.113c-4.878-1.328-10.03-2.056-15.06-2.056-22.381 0-39.913 17.828-39.913 40.113 0 21.782 17.021 38.697 38.793 38.697 4.001 0 11.487-.597 16.581-1.936v-.032l-1.625-1.31c-.002-.053-.002-.121-.002-.182z"/><path fill="url(#n)" fill-rule="nonzero" d="M29.302 51.328c0-7.475 6.112-13.405 13.575-13.405 5.654 0 9.83 2.342 13.84 6.077 0 0-.892-1.936-1.65-3.488v.027c-3.883-2.903-7.755-4.253-12.217-4.253-8.368 0-15.183 6.734-15.183 15.015 0 8.272 6.982 15.01 15.555 15.01 4.598 0 8.185-1.132 11.684-3.728l.163-.103 1.637-3.33V59c-4.01 3.927-7.714 5.727-13.457 5.727-7.47 0-13.947-5.84-13.947-13.4z"/><path fill="url(#o)" fill-rule="nonzero" d="M105.158 10.936c-22.254 0-40.291 18.033-40.291 40.286 0 22.25 18.037 40.294 40.291 40.294 22.248 0 40.289-18.045 40.289-40.294-.002-22.253-18.042-40.286-40.289-40.286zm-.028 78.94c-21.326 0-38.68-17.35-38.68-38.681 0-21.33 17.354-38.68 38.68-38.68 21.328 0 38.681 17.35 38.681 38.68 0 21.332-17.352 38.681-38.681 38.681z"/><path fill="url(#p)" fill-rule="nonzero" d="M105.13 35.944c-8.414 0-15.26 6.84-15.26 15.251 0 8.414 6.846 15.25 15.26 15.25s15.25-6.836 15.25-15.25c0-8.41-6.836-15.251-15.25-15.251zm.028 28.919c-7.541 0-13.646-6.104-13.646-13.641 0-7.53 6.105-13.64 13.646-13.64 7.525 0 13.644 6.11 13.644 13.64 0 7.537-6.12 13.64-13.644 13.64z"/><path fill="url(#q)" fill-rule="nonzero" d="M138.824 12.924l.075.037-.025-.037h-.05zm28.368 37.802s-22.08-31.653-25.237-36.183l-3.088-1.613 26.362 37.784c-15.213 20.017-28.81 41.177-36.036 57.208l.765-1.002s9.996-15.83 9.337-14.961c7.098-12.264 16.488-26.23 27.187-40.3l.71-.933z"/><path fill="#026CB6" fill-rule="nonzero" d="M141.93 14.506h27.582c.04.06.864-1.582.864-1.582h-31.508l3.201 1.781c-.045-.065-.103-.142-.138-.199z"/><path fill="url(#r)" fill-rule="nonzero" d="M182.164 29.73l-11.783-16.79-.85 1.566c1.737 2.476 11.997 17.138 12.454 17.785.014 0 .028.005.04.008l1.328-1.547c5.36-6.242 10.355-11.658 15.29-16.655.886-1 11.04-11.747 11.04-11.747l1.79-2.35c-8.858 7.306-19.059 17.795-29.309 29.73z"/><path fill="url(#s)" fill-rule="nonzero" d="M222.085 1.203l-11.513 13.061c-14.11 18.507-44.284 58.085-58.663 76.938l-10.079 15.425c-.205.434-.4.867-.596 1.295L223.517 0c-.47.39-.951.795-1.432 1.203z"/><path fill="#026CB6" fill-rule="nonzero" d="M232.275 84.786a3.838 3.838 0 0 1 7.674 0 3.852 3.852 0 0 1-3.839 3.836 3.85 3.85 0 0 1-3.835-3.836zm-.719 0c0 2.518 2.038 4.496 4.554 4.496 2.518 0 4.554-1.976 4.554-4.496a4.534 4.534 0 0 0-4.554-4.534 4.537 4.537 0 0 0-4.554 4.534zm7.092 2.5l-1.358-2.159c.58-.2 1.019-.677 1.019-1.356 0-1.22-.997-1.599-1.938-1.599h-2.196v5.114h1.217v-1.977h.718l1.099 1.977h1.44zm-3.256-2.859V83.17h.939c.298 0 .737.18.737.6 0 .397-.38.657-.737.657h-.939z"/><path fill="url(#t)" fill-rule="nonzero" d="M151.378 91.9c14.243-18.679 45.286-59.402 59.459-77.982-20.61 20.946-44.634 52.456-59.46 77.981zm-12.081.056c14.224-18.666 45.447-59.615 59.569-78.134-4.937 4.998-10.152 10.684-15.511 16.926l-1.35 1.57s-11.61-16.555-12.493-17.816H141.93c3.068 4.402 25.26 36.22 25.26 36.22l-.71.934c-10.696 14.07-20.088 28.038-27.184 40.3zm83.603-78.05c-20.614 20.95-44.65 52.472-59.47 78.006 7.628-10.009 16.974-22.266 16.974-22.266s11.722 16.8 12.606 18.064h27.873c-3.103-4.424-26.001-37.054-26.001-37.054s16.686-21.882 28.018-36.75z"/><path fill="url(#u)" fill-rule="nonzero" d="M177.384 53.256c-9.839 13.05-18.965 26.52-26.008 38.645l28.236-37.031a242.14 242.14 0 0 1-2.228-1.614zm-38.087 38.7c7.704-10.11 20.393-26.754 32.654-42.83a238.99 238.99 0 0 1-14.614-12.53l9.856 14.127-.71.934c-10.698 14.07-20.09 28.037-27.186 40.299zm70.536-19.993c-8.616-3.533-16.856-8.113-24.51-13.164-8.257 11.285-15.848 22.699-21.892 33.113l16.974-22.266s11.722 16.8 12.606 18.064h27.874c-1.29-1.836-5.993-8.538-11.052-15.747z"/><path fill="#006BB4" d="M9.875 130.524H4.09L2.881 134H.185l5.64-14.93h2.327l5.65 14.93h-2.707l-1.22-3.476zm-5.056-2.092h4.327l-2.163-6.193-2.164 6.193zm21.595-9.362v9.977c0 1.586-.508 2.842-1.523 3.769-1.015.926-2.367 1.39-4.055 1.39-1.71 0-3.066-.457-4.07-1.37-1.006-.912-1.508-2.179-1.508-3.799v-9.967h2.584v9.988c0 .998.253 1.76.759 2.286.505.527 1.25.79 2.235.79 1.996 0 2.994-1.053 2.994-3.158v-9.906h2.584zm13.556 2.092h-4.656V134h-2.573v-12.838h-4.615v-2.092H39.97v2.092zM53.782 134h-2.584v-6.634h-6.676V134h-2.594v-14.93h2.594v6.214h6.676v-6.214h2.584V134zm14.98-7.075c0 1.463-.252 2.746-.758 3.85s-1.229 1.952-2.169 2.543c-.94.591-2.022.887-3.245.887-1.21 0-2.288-.296-3.235-.887-.947-.591-1.678-1.434-2.195-2.527-.516-1.094-.777-2.355-.784-3.784v-.841c0-1.456.258-2.741.774-3.855.516-1.115 1.244-1.967 2.184-2.559.94-.591 2.019-.887 3.235-.887 1.217 0 2.295.292 3.235.877.94.584 1.667 1.425 2.18 2.522.512 1.098.772 2.374.779 3.83v.83zm-2.594-.78c0-1.654-.312-2.922-.938-3.804-.625-.882-1.512-1.322-2.66-1.322-1.122 0-1.998.439-2.63 1.317-.633.879-.956 2.121-.97 3.727v.862c0 1.64.32 2.908.959 3.804.64.896 1.526 1.343 2.66 1.343 1.15 0 2.033-.437 2.651-1.312.62-.875.928-2.154.928-3.835v-.78zm10.665 2.103H73.94V134h-2.594v-14.93h5.25c1.722 0 3.052.387 3.988 1.159.937.772 1.405 1.89 1.405 3.353 0 .998-.24 1.834-.723 2.507-.482.673-1.153 1.191-2.015 1.554l3.353 6.224V134h-2.778l-2.994-5.752zm-2.892-2.082h2.666c.875 0 1.559-.22 2.05-.661.493-.441.739-1.045.739-1.81 0-.8-.227-1.419-.682-1.856-.454-.438-1.133-.663-2.035-.677H73.94v5.004zM87.189 134h-2.584v-14.93h2.584V134zm5.63-2.071h7.977V134H89.68v-1.682l7.72-11.156h-7.67v-2.092h10.819v1.64l-7.732 11.219zm18.928-4.594h-6.132v4.594h7.168V134h-9.762v-14.93h9.69v2.092h-7.096v4.122h6.132v2.051zm3.148 6.665v-14.93h4.41c1.319 0 2.49.294 3.511.882 1.022.588 1.813 1.422 2.374 2.502.56 1.08.84 2.317.84 3.712v.749c0 1.415-.281 2.659-.845 3.732a5.94 5.94 0 0 1-2.41 2.481c-1.042.581-2.237.872-3.584.872h-4.296zm2.594-12.838v10.767h1.692c1.36 0 2.405-.426 3.133-1.277.728-.851 1.099-2.073 1.112-3.666v-.83c0-1.62-.352-2.858-1.056-3.712-.704-.855-1.726-1.282-3.066-1.282h-1.815zm21.841 7.086h-2.892V134h-2.594v-14.93h5.25c1.723 0 3.052.387 3.989 1.159.937.772 1.405 1.89 1.405 3.353 0 .998-.241 1.834-.723 2.507s-1.154 1.191-2.015 1.554l3.353 6.224V134h-2.779l-2.994-5.752zm-2.892-2.082h2.666c.875 0 1.56-.22 2.051-.661.492-.441.739-1.045.739-1.81 0-.8-.228-1.419-.682-1.856-.455-.438-1.133-.663-2.036-.677h-2.738v5.004zm19.237 1.169h-6.132v4.594h7.167V134h-9.761v-14.93h9.69v2.092h-7.096v4.122h6.132v2.051zm13.935-6.173h-4.655V134h-2.574v-12.838h-4.614v-2.092h11.843v2.092zm10.315 9.362h-5.783l-1.21 3.476h-2.697l5.64-14.93h2.328l5.65 14.93h-2.707l-1.22-3.476zm-5.055-2.092h4.327l-2.163-6.193-2.164 6.193zM188.282 134h-2.584v-14.93h2.584V134zm5.783-2.071h6.778V134h-9.372v-14.93h2.594v12.859zm17.494-4.594h-6.132v4.594h7.167V134h-9.761v-14.93h9.69v2.092h-7.096v4.122h6.132v2.051zm8.633.913h-2.891V134h-2.594v-14.93h5.25c1.722 0 3.052.387 3.988 1.159.937.772 1.405 1.89 1.405 3.353 0 .998-.24 1.834-.723 2.507-.482.673-1.153 1.191-2.015 1.554l3.353 6.224V134h-2.778l-2.995-5.752zm-2.891-2.082h2.666c.875 0 1.558-.22 2.05-.661.493-.441.739-1.045.739-1.81 0-.8-.227-1.419-.682-1.856-.455-.438-1.133-.663-2.035-.677H217.3v5.004z"/></g></svg>