<svg xmlns="http://www.w3.org/2000/svg" viewBox="0 0 300 63.07"><defs><linearGradient id="a" x1="-59.53" y1="-434.84" x2="-59.53" y2="-459.79" gradientTransform="matrix(2.53 0 0 2.53 237.3 1163.78)" gradientUnits="userSpaceOnUse"><stop offset="0" stop-color="#8a181a"/><stop offset=".07" stop-color="#ac1f23"/><stop offset=".1" stop-color="#b92025"/><stop offset=".15" stop-color="#c62127"/><stop offset=".23" stop-color="#e31e26"/><stop offset=".25" stop-color="#ec2027"/><stop offset=".75" stop-color="#b92025"/><stop offset=".9" stop-color="#9c1c20"/><stop offset="1" stop-color="#8a181a"/></linearGradient><linearGradient id="b" x1="-6.82" y1="-434.84" x2="-6.82" y2="-459.79" gradientTransform="matrix(2.53 0 0 2.53 237.3 1163.78)" gradientUnits="userSpaceOnUse"><stop offset="0" stop-color="#383839"/><stop offset=".41" stop-color="#5c5e60"/><stop offset="1" stop-color="#282829"/></linearGradient></defs><title>Xfinity Logo</title><g data-name="Layer 1"><path d="M172.53 28.84a2.43 2.43 0 0 1 0 3.48l-28.2 29a6.74 6.74 0 0 1-4.22 1.72H2.5A2.51 2.51 0 0 1 0 60.57V2.5A2.51 2.51 0 0 1 2.5 0h137.76a6.74 6.74 0 0 1 4.22 1.72l28.05 27.12" fill="url(#a)"/><path d="M137.66 43.11a3 3 0 0 1 3-3 3 3 0 0 1 3 3 3 3 0 0 1-3 3 2.94 2.94 0 0 1-3-3zm5.69 0a2.71 2.71 0 0 0-2.75-2.75 2.77 2.77 0 0 0-2.75 2.75 2.71 2.71 0 0 0 2.75 2.75 2.68 2.68 0 0 0 2.75-2.75zm-3.83-1.62h1.37a1.37 1.37 0 0 1 1 .39.93.93 0 0 1 .25.64.92.92 0 0 1-.74 1l.88 1.23h-.74l-.74-1.13h-.64v1.13h-.64zM140.9 43c.39 0 .64-.25.64-.49 0-.39-.25-.49-.64-.49h-.74v1zm-42.22.25V19.42h-5.45v25.21h5.44zm-37.86 0V19.42h-5.45v25.21h5.44zm17.65-24.32a8.15 8.15 0 0 0-6.33 2.75v-2.26H66.7v25.21h5.44V30c0-4.12 1.72-6.33 5-6.33 3.48 0 5 2 5 6.82v14.24h5.44V30.21c-.09-7.45-3.18-11.28-9.11-11.28zm28.15 4.81v14.17c0 4.61 2.5 7.31 6.72 7.31a13.16 13.16 0 0 0 3.83-.49l.64-4.36a8.52 8.52 0 0 1-2.5.39c-2.26 0-3.24-.88-3.24-3.24V23.74h6.33l-1.62-4.36h-4.71V10.3l-5.45 2.7v6.33h-4v4.36h4zm-66-4.32H38l-3 4.36h5.59v21h5.44v-21h5.59v-4.36h-5.57v-2.5c0-1.86.74-2.6 2.6-2.6a15.32 15.32 0 0 1 3 .39v-4.36a14.14 14.14 0 0 0-4.36-.64c-4.22 0-6.72 2.75-6.72 7.31v2.4zm104.85 0h-5.84l-8.83 16-5.93-16h-5.69l8.44 22L121 53.55h5.69zM26.68 31.58l8.58-12.16h-6.33l-5.35 7.8-5.35-7.8h-6.17l8.54 12.16-9.17 13h6.33l5.93-8.68L36 53.46h6.08z" fill="#fff"/><path d="M297.63 0H140.26a6.74 6.74 0 0 1 4.22 1.72l28.05 27.07a2.43 2.43 0 0 1 0 3.48l-28.2 29a6.74 6.74 0 0 1-4.22 1.72h157.38a2.51 2.51 0 0 0 2.5-2.5V2.5a2.29 2.29 0 0 0-2.36-2.5z" fill="url(#b)"/><path d="M187.19 17.9h2.26l4.86 11.43h-2.6l-1-2.5H186l-1 2.5h-2.5zm2.6 6.57l-1.47-3.73-1.47 3.73zm4.46-.1V17.9h2.5v6.33c0 1.86.88 2.75 2.5 2.75s2.5-.88 2.5-2.75v-6.48h2.5v6.33c0 3.48-1.86 5.1-5 5.1-3.13.29-5-1.47-5-4.81zm14-4.12h-3.45V18h9.32v2.26h-3.48v9.07h-2.5v-9.08zm7-2.35h2.5v4.46h4.61V17.9h2.5v11.28h-2.5v-4.61h-4.61v4.61h-2.5zm10.64 5.74a5.93 5.93 0 0 1 11.87 0 5.78 5.78 0 0 1-5.93 5.84 5.87 5.87 0 0 1-5.94-5.84zm9.47 0a3.43 3.43 0 0 0-3.48-3.58 3.37 3.37 0 0 0-3.33 3.48 3.43 3.43 0 0 0 3.45 3.58 3.26 3.26 0 0 0 3.35-3.48zm3.83-5.74h5.2a4.57 4.57 0 0 1 3.32 1.1 3.47 3.47 0 0 1 1 2.6 3.39 3.39 0 0 1-2.5 3.48l2.75 4h-2.84l-2.35-3.58h-2v3.58h-2.45V17.9zm5.1 5.59c1.23 0 1.86-.64 1.86-1.62 0-1.13-.74-1.62-2-1.62h-2.5v3.24zM250 17.9h2.5v11.28H250V17.9zm4.12 9.47l6.23-7.21h-5.93V17.9h9.17v2l-6.23 7.21h6.23v2.26h-9.42v-2zm10.79-9.47h8.58v2.26h-6.08v2.26h5.35v2.26h-5.35V27h6.08v2.26h-8.58zm9.81 0H279a5.59 5.59 0 0 1 6 5.59 5.59 5.59 0 0 1-6 5.59h-4.36zm2.5 2.35v6.82H279a3.19 3.19 0 0 0 3.33-3.33A3.19 3.19 0 0 0 279 20.4h-1.86zm-94.6 15.06h5.2a4.57 4.57 0 0 1 3.33 1.13 3.47 3.47 0 0 1 1 2.6 3.39 3.39 0 0 1-2.5 3.48l2.75 4h-2.9l-2.35-3.58h-2v3.58h-2.5V35.31zm5 5.59c1.23 0 1.86-.64 1.86-1.62 0-1.13-.74-1.62-2-1.62h-2.5v3.24h2.6zm5.74-5.59h8.58v2.26h-6.08v2.26h5.3v2.26h-5.35v2.35h6.08v2.26h-8.58V35.31zm12.65 2.35h-3.48v-2.25h9.32v2.26h-3.48v9.07h-2.5v-9.08zm8.99-2.35h2.26l4.86 11.43h-2.6l-1-2.5h-4.71l-1 2.5h-2.5zm2.6 6.57l-1.47-3.73-1.47 3.73zm5.4-6.57h2.5v11.33H223zm4.36 0h2.5v9.07h5.59v2.26h-8.09zm8.93 0h8.58v2.26h-6.08v2.26h5.35v2.26h-5.35v2.35h6.08v2.26h-8.58zm10 0h5.2a4.57 4.57 0 0 1 3.33 1.13 3.47 3.47 0 0 1 1 2.6 3.44 3.44 0 0 1-2.35 3.48l2.75 4h-2.84l-2.5-3.58h-2v3.58h-2.5V35.31zm5 5.59c1.23 0 1.86-.64 1.86-1.62 0-1.13-.74-1.62-2-1.62h-2.5v3.24h2.6z" fill="#fff"/></g></svg>