<svg xmlns="http://www.w3.org/2000/svg" viewBox="0 0 300 134.23"><title>RCN Logo</title><g data-name="Layer 1"><path d="M24 .43C17.26 1.87 11.23 6.2 9.16 11.1c-2.26 5.52-1.76 13.56 1.44 22 2.38 6.34 2.13 6.21 8.91 3.26 12.05-5.27 22-7.47 36.34-8.1 8.54-.38 17.32.56 21.72 2.32 3.08 1.26 5.27 1.32 5.27.19 0-1.32-12.87-13.93-19-18.58S50.15 3.5 44.25 1.68C39.29.18 28.37-.51 24 .43zm171.31 23.28C185 25 177.55 28.67 170.4 35.89c-5.77 5.77-9.35 11.67-12.55 20.59-4.39 12.3-5.33 25.1-2.26 31.44 2.07 4.27 6.9 8.22 11.86 9.92 3.7 1.19 5.84 1.38 18.77 1.63 13.56.19 14.56.13 15.13-.94.94-1.76 5.27-16.57 5.59-19l.31-2.2-9.1.19c-10.17.25-12.18-.25-13.93-3.64-1.26-2.45-1.19-4.39.38-10 2.57-9.23 6.15-15 10.86-17.51 2.32-1.26 9.73-1.32 16.57-.13 2.51.38 4.71.63 4.9.44.5-.44 5.9-19.39 5.9-20.59 0-1.44-.94-1.76-9-2.45s-12.83-.64-18.52.07zm-95.46 1.38a8.29 8.29 0 0 0-2.64 2.32C96 29.11 75.06 98.27 75.56 98.84c.31.31 26.86.19 27.18-.13.13-.06 1.44-4.52 3.08-9.85 5.15-17.32 5.59-18.45 7-18.64a4.17 4.17 0 0 1 2.76 1.07c1.44 1.19 1.51 1.51 2.07 14.37l.56 13.24 13.87.19c7.66.13 14 .13 14.18 0s-.38-6.28-1.07-13.74c-1.07-10.29-1.69-14.12-2.64-16.07a19.58 19.58 0 0 1-1.13-2.57c1.95-.5 7.22-4 9.92-6.53 5-4.64 6.9-9.23 7.34-16.82s-.13-9.85-2.82-12.87S150.25 26 145.73 25c-4.83-1-43.87-1-45.88.09zm30.94 16.82c2.07.94 2.45 2.07 1.51 5s-3.08 5.33-5.59 5.84c-2.82.56-9.23.44-9.6-.13s2.2-9.41 3.08-10.73c.5-.89 8.66-.89 10.6.02zm100.49-17c-2.32.94-4 3.45-5.33 8.16-.75 2.57-5.46 18.39-10.42 35.08s-9 30.44-8.79 30.63 26.74.44 27 .13c.06-.13 2.38-7.72 5-16.88s5.15-16.88 5.46-17.2c.63-.69.82.38 2.07 10 .5 4.14 1.44 11.3 2 15.88l1.08 8.29 14.44-.13 14.44-.19 10.92-36.34c6-20 10.86-36.78 10.86-37.22 0-.63-2.26-.82-10.36-.82-11.42 0-13.37.44-14.94 3.64-.5.94-2.82 8.16-5.21 16.07-3.26 10.92-4.39 14-4.77 12.87-.25-.82-1.32-8.16-2.38-16.26s-2.07-15.13-2.2-15.56-3.51-.75-13.93-.69c-7.54-.03-14.22.22-14.94.54z" fill="#5c3795"/><path d="M47.38 30.55a82.35 82.35 0 0 0-19.46 4.21C9.16 41.22 0 48.94 0 58.23a14.9 14.9 0 0 0 .63 4.58c.88 2.32 5 6.65 6.34 6.65 1.82 0 11.55-2.76 15.31-4.39.69-.31 3.83-1.44 6.9-2.57 5.08-1.82 20.65-8.28 32-13.31 5.59-2.45 22.22-10.92 23.35-11.8 2.32-1.95.06-3.77-7-5.59-5.86-1.5-21.86-2.19-30.15-1.25z" fill="#4ab749"/><path d="M76.41 133.21a3.3 3.3 0 0 1-1.33-2.76q0-3.49 5-3.76l4-.22v-1.17q0-2.43-3.13-2.43a4.58 4.58 0 0 0-2.07.41 1.93 1.93 0 0 0-1.05 1.17h-2.19a3.38 3.38 0 0 1 1.72-2.45 6.94 6.94 0 0 1 3.71-.93A6 6 0 0 1 85 122.2a3.8 3.8 0 0 1 1.37 3.11V134h-2.1v-1.87H84a4.4 4.4 0 0 1-1.77 1.56 5.57 5.57 0 0 1-2.49.54 5.33 5.33 0 0 1-3.33-1.02zm6.59-1.68a2.82 2.82 0 0 0 1.12-2.27v-1.16l-3.72.22q-3 .19-3 2.07a1.73 1.73 0 0 0 .79 1.51 3.47 3.47 0 0 0 2 .54 4.34 4.34 0 0 0 2.81-.91zm18.59-10.23V134h-2.1v-2h-.21a3.59 3.59 0 0 1-1.6 1.64 5.68 5.68 0 0 1-2.68.58 4.71 4.71 0 0 1-3.53-1.22 4.76 4.76 0 0 1-1.2-3.48v-8.22h2.21v7.7a3.69 3.69 0 0 0 .74 2.53 3.08 3.08 0 0 0 2.39.82 3.86 3.86 0 0 0 2.8-.94 3.48 3.48 0 0 0 1-2.62v-7.49zm5.08-3.3h2.21v3.29H112V123h-3.08v7.19a2.29 2.29 0 0 0 .49 1.63 2.09 2.09 0 0 0 1.56.51H112V134l-.64.09h-.65a4.72 4.72 0 0 1-3.06-.79 3.25 3.25 0 0 1-.93-2.6V123h-2.23v-1.7h2.23zm8.75 16v-17.75h2.21v7h.21a3.77 3.77 0 0 1 1.6-1.64 5.47 5.47 0 0 1 2.66-.59 4.83 4.83 0 0 1 3.48 1.23 4.57 4.57 0 0 1 1.29 3.47V134h-2.21v-7.73a3.51 3.51 0 0 0-.81-2.53 3.16 3.16 0 0 0-2.38-.84 3.86 3.86 0 0 0-2.85 1 3.5 3.5 0 0 0-1 2.6v7.5zm16.49-1.53a7.63 7.63 0 0 1 0-9.64 7.07 7.07 0 0 1 9.33 0 7.63 7.63 0 0 1 0 9.64 7.05 7.05 0 0 1-9.33 0zm7.69-1.31a6.3 6.3 0 0 0 0-7 4.31 4.31 0 0 0-6.05 0 6.3 6.3 0 0 0 0 7 4.29 4.29 0 0 0 6.05 0zm6.81 2.84v-12.7h2.1v1.89h.21a2.74 2.74 0 0 1 1.39-1.52 5 5 0 0 1 2.45-.59h1.1v2a4.52 4.52 0 0 0-.6-.08h-.81a3.88 3.88 0 0 0-2.6.87 2.78 2.78 0 0 0-1 2.22V134zm10.08-15.7a1.32 1.32 0 0 1 0-2 1.64 1.64 0 0 1 2.17 0 1.34 1.34 0 0 1 0 2 1.62 1.62 0 0 1-2.17 0zm0 15.71V121.3h2.21V134zm6.07-.01v-1.49l8-9.34V123h-8v-1.7h10.6v1.52l-7.94 9.3v.19h8V134zm23.64-3.29h2.21a4.49 4.49 0 0 1-2 2.58 7.14 7.14 0 0 1-3.8.94 6 6 0 0 1-4.55-1.77 7.65 7.65 0 0 1 0-9.58 5.94 5.94 0 0 1 4.54-1.8 5.73 5.73 0 0 1 4.4 1.72 6.57 6.57 0 0 1 1.6 4.67v.78h-9.94v.09a4.44 4.44 0 0 0 1.16 3 3.75 3.75 0 0 0 2.83 1.11 5 5 0 0 0 2.23-.44 2.9 2.9 0 0 0 1.32-1.3zm-6.36-6.82a4 4 0 0 0-1.19 2.71h7.62a3.82 3.82 0 0 0-1.05-2.71 3.57 3.57 0 0 0-2.66-1 3.76 3.76 0 0 0-2.72 1zm13.1 8.55a8 8 0 0 1 0-9.57 5.37 5.37 0 0 1 4.22-1.79 5.61 5.61 0 0 1 2.6.59 4.07 4.07 0 0 1 1.74 1.64h.19v-7h2.21V134h-2.1v-2h-.21a4.48 4.48 0 0 1-1.82 1.66 5.65 5.65 0 0 1-2.6.6 5.36 5.36 0 0 1-4.23-1.82zm1.78-8.27a6.19 6.19 0 0 0 0 7 4.12 4.12 0 0 0 5.95 0 6.06 6.06 0 0 0 0-6.94 4.09 4.09 0 0 0-5.93 0zM215.6 134v-12.7h2.1v1.89h.21a2.74 2.74 0 0 1 1.39-1.52 5 5 0 0 1 2.45-.59h1.1v2a4.52 4.52 0 0 0-.6-.08h-.81a3.88 3.88 0 0 0-2.6.87 2.78 2.78 0 0 0-1 2.22V134zm19.17-3.29H237a4.49 4.49 0 0 1-2 2.58 7.14 7.14 0 0 1-3.8.94 6 6 0 0 1-4.55-1.77 7.65 7.65 0 0 1 0-9.58 5.94 5.94 0 0 1 4.54-1.8 5.73 5.73 0 0 1 4.4 1.72 6.57 6.57 0 0 1 1.6 4.67v.78h-9.94v.09a4.44 4.44 0 0 0 1.16 3 3.75 3.75 0 0 0 2.83 1.11 5 5 0 0 0 2.23-.44 2.9 2.9 0 0 0 1.3-1.3zm-6.36-6.82a4 4 0 0 0-1.19 2.71h7.62a3.82 3.82 0 0 0-1.05-2.71 3.57 3.57 0 0 0-2.66-1 3.76 3.76 0 0 0-2.72 1zm13.13-5.89h2.21v3.29h3.08V123h-3.08v7.19a2.29 2.29 0 0 0 .49 1.63 2.09 2.09 0 0 0 1.56.51h1.03V134l-.64.09h-.65a4.72 4.72 0 0 1-3.06-.79 3.25 3.25 0 0 1-.93-2.6V123h-2.23v-1.7h2.23zm9.13 15.21a3.3 3.3 0 0 1-1.33-2.76q0-3.49 5-3.76l4-.22v-1.17q0-2.43-3.13-2.43a4.58 4.58 0 0 0-2.07.41 1.93 1.93 0 0 0-1.05 1.17h-2.23a3.38 3.38 0 0 1 1.72-2.46 6.94 6.94 0 0 1 3.71-.93 6 6 0 0 1 3.89 1.13 3.8 3.8 0 0 1 1.37 3.11v8.7h-2.1v-1.87h-.21a4.4 4.4 0 0 1-1.77 1.56 5.57 5.57 0 0 1-2.49.54 5.33 5.33 0 0 1-3.31-1.02zm6.58-1.67a2.82 2.82 0 0 0 1.12-2.27v-1.17l-3.72.22q-3 .19-3 2.07a1.73 1.73 0 0 0 .79 1.51 3.47 3.47 0 0 0 2 .54 4.34 4.34 0 0 0 2.81-.91zm7.48-13.24a1.32 1.32 0 0 1 0-2 1.64 1.64 0 0 1 2.17 0 1.34 1.34 0 0 1 0 2 1.62 1.62 0 0 1-2.17 0zm0 15.71V121.3h2.21V134zm6.52-.01v-17.75h2.21V134zm15.65-3.29h2.21a4.49 4.49 0 0 1-2 2.58 7.14 7.14 0 0 1-3.8.94 6 6 0 0 1-4.55-1.77 7.65 7.65 0 0 1 0-9.58 5.94 5.94 0 0 1 4.54-1.8 5.73 5.73 0 0 1 4.4 1.72 6.57 6.57 0 0 1 1.6 4.67v.78h-9.94v.09a4.44 4.44 0 0 0 1.16 3 3.75 3.75 0 0 0 2.83 1.11 5 5 0 0 0 2.23-.44 2.9 2.9 0 0 0 1.32-1.3zm-6.36-6.82a4 4 0 0 0-1.19 2.71H287a3.82 3.82 0 0 0-1.05-2.71 3.57 3.57 0 0 0-2.66-1 3.76 3.76 0 0 0-2.75 1zM292.75 134v-12.7h2.1v1.89h.21a2.74 2.74 0 0 1 1.39-1.52 5 5 0 0 1 2.45-.59h1.1v2a4.52 4.52 0 0 0-.6-.08h-.81a3.88 3.88 0 0 0-2.6.87 2.78 2.78 0 0 0-1 2.22V134z" fill="#5d5d5d"/></g></svg>