<svg width="347" height="96" viewBox="0 0 347 96" xmlns="http://www.w3.org/2000/svg"><title>ctv-logo</title><g fill="none" fill-rule="evenodd"><path d="M222.992.769c-26.223 0-47.48 21.258-47.48 47.481 0 26.223 21.257 47.48 47.48 47.48 26.224 0 47.481-21.257 47.481-47.48 0-26.223-21.257-47.481-47.481-47.481zm-11.918 70.987C196.46 71.756 194 63.541 194 53.902V33.68c0-3.791 3.38-5.688 6.46-5.688 3.081 0 6.54 1.897 6.54 5.688V38h2.426c4.107 0 6.24 2.998 6.24 6s-2.054 6-6.24 6H207v3.902c0 3.082.976 5.846 4.373 5.846 4.028 0 5.893 3.002 5.893 6.004s-2.163 6.004-6.192 6.004zm43.696-24.805l-10.033 18.327c-2.449 4.82-4.897 6.478-7.978 6.478-3.081 0-6.24-1.658-8.69-6.478l-10.032-18.327c-3.871-7.662 9.48-12.639 12.323-5.45l6.399 13.745 6.398-13.745c2.844-7.268 15.484-2.212 11.613 5.45z" fill="#EA422D"/><path d="M26.618 77.097c-2.133.79-4.503 1.106-7.188 1.106C7.264 78.203.313 70.382.313 60.902c0-9.478 6.951-17.773 19.117-17.773 4.186 0 9.242 1.58 12.48 4.66.948.948 1.501 2.133 1.501 3.16 0 2.923-1.975 5.135-5.056 5.135-1.501 0-2.053-.395-3.949-1.738-1.659-1.343-3.475-1.739-4.976-1.739-3.871 0-7.9 2.924-7.9 8.295 0 4.899 4.029 7.821 7.9 7.821 2.212 0 4.502-.553 6.082-1.817.948-.553 1.896-.869 2.764-.869 2.687 0 4.741 2.37 4.741 4.898.079 3.081-3.476 5.135-6.399 6.162m46.213-14.062c0 3.318.396 4.582 1.659 4.74 3.871.948 4.108 9.559-2.291 9.559-4.897 0-8.294-2.055-9.636-6.083-2.371 4.581-6.715 6.872-12.482 6.872-8.531 0-15.325-6.398-15.325-17.537 0-9.4 7.426-17.457 19.117-17.457 11.928 0 18.958 7.978 18.958 17.773v2.133zM53.873 52.213c-4.029 0-7.899 2.844-7.899 8.373 0 5.53 3.87 8.453 7.899 8.453 4.108 0 7.899-2.844 7.899-8.453 0-5.607-3.791-8.373-7.899-8.373zm23.859-27.49c0-6.399 10.902-6.399 10.902 0v24.568c2.448-3.871 6.477-5.846 11.928-5.846 8.531 0 15.325 6.399 15.325 17.536 0 9.401-7.426 17.379-19.117 17.379-11.928 0-19.038-7.899-19.038-17.694V24.723zM96.77 69.355c4.029 0 7.9-2.843 7.9-8.374 0-5.529-3.871-8.452-7.9-8.452-4.108 0-7.978 2.765-7.978 8.452 0 5.609 3.87 8.374 7.978 8.374zm22.595-44.474c0-6.399 10.902-6.399 10.902 0v38.154c0 3.318.315 4.582 1.58 4.74 3.87.948 4.186 9.559-2.291 9.559-6.399 0-10.191-3.555-10.191-10.191V24.881m27.097 37.918c.869 3.396 4.266 6.082 10.111 6.082 3.95 0 5.451-.869 7.268-1.185 3.792-.632 5.687 1.579 5.766 4.029.08 1.659-.869 3.16-2.291 4.265-1.658 1.107-3.633 1.502-5.766 1.818a49.993 49.993 0 0 1-6.872.473c-11.533 0-19.67-6.556-19.67-17.379 0-11.058 8.216-17.773 18.642-17.773 10.586 0 16.431 6.162 16.431 11.85 0 6.713-5.292 9.873-13.666 9.873a25.06 25.06 0 0 1-9.953-2.053zm.395-5.214c1.343.632 2.607 1.026 3.791 1.185 5.293.948 8.533-.553 9.085-2.528.553-1.896-1.58-3.871-6.004-3.871-3.001 0-5.687 2.133-6.872 5.214zm126.067 16.878c0-1.681 1.476-2.91 2.993-2.91s2.993 1.229 2.993 2.91c0 1.804-1.476 2.912-2.993 2.912s-2.993-1.108-2.993-2.912m22.057 2.748c-1.106.41-2.336.574-3.73.574-6.315 0-9.922-4.059-9.922-8.98 0-4.92 3.607-9.225 9.922-9.225 2.173 0 4.797.82 6.478 2.42.492.491.779 1.106.779 1.639 0 1.517-1.026 2.666-2.624 2.666-.78 0-1.067-.205-2.05-.903a4.048 4.048 0 0 0-2.583-.902c-2.009 0-4.101 1.518-4.101 4.305 0 2.543 2.092 4.059 4.101 4.059 1.147 0 2.337-.286 3.157-.942.491-.287.984-.451 1.435-.451 1.394 0 2.46 1.23 2.46 2.542.041 1.598-1.804 2.665-3.322 3.198m14.187.533c-6.109 0-9.922-3.854-9.922-9.061s3.813-9.103 9.922-9.103c6.067 0 9.922 3.896 9.922 9.103s-3.855 9.061-9.922 9.061zm0-13.49c-2.501 0-4.101 1.928-4.101 4.429 0 2.46 1.6 4.427 4.101 4.427 2.46 0 4.1-1.967 4.1-4.427 0-2.501-1.64-4.429-4.1-4.429zm32.103 3.199c0-2.092-1.026-2.789-2.255-2.789-1.19 0-2.297.697-2.297 2.789v7.133c0 1.723-1.476 2.666-2.829 2.666-1.312 0-2.787-.861-2.787-2.666v-7.133c0-2.092-1.026-2.789-2.256-2.789-1.23 0-2.255.697-2.255 2.789v7.133c0 1.723-1.517 2.666-2.87 2.666-1.312 0-2.747-.902-2.747-2.666v-7.133c0-6.684 3.28-7.955 7.708-7.955 2.42 0 4.428 1.23 5.248 3.321.82-2.091 2.952-3.321 5.248-3.321 4.469 0 7.749 1.271 7.749 7.955v7.133c0 1.723-1.517 2.666-2.869 2.666-1.313 0-2.788-.861-2.788-2.666v-7.133" fill="#404349"/></g></svg>